<?xml version="1.0" encoding="UTF-8" standalone="no"?>
<svg
   xmlns:dc="http://purl.org/dc/elements/1.1/"
   xmlns:cc="http://creativecommons.org/ns#"
   xmlns:rdf="http://www.w3.org/1999/02/22-rdf-syntax-ns#"
   xmlns:svg="http://www.w3.org/2000/svg"
   xmlns="http://www.w3.org/2000/svg"
   xmlns:sodipodi="http://sodipodi.sourceforge.net/DTD/sodipodi-0.dtd"
   xmlns:inkscape="http://www.inkscape.org/namespaces/inkscape"
   width="420pt"
   height="383pt"
   viewBox="0 0 420.1877 383.14265"
   version="1.1"
   id="svg301"
   sodipodi:docname="sidkom-prasidang-langkah-uji-antikanker.svg"
   inkscape:version="0.92.5 (2060ec1f9f, 2020-04-08)">
  <metadata
     id="metadata307">
    <rdf:RDF>
      <cc:Work
         rdf:about="">
        <dc:format>image/svg+xml</dc:format>
        <dc:type
           rdf:resource="http://purl.org/dc/dcmitype/StillImage" />
        <dc:title />
      </cc:Work>
    </rdf:RDF>
  </metadata>
  <defs
     id="defs305" />
  <sodipodi:namedview
     pagecolor="#ffffff"
     bordercolor="#666666"
     borderopacity="1"
     objecttolerance="10"
     gridtolerance="10"
     guidetolerance="10"
     inkscape:pageopacity="0"
     inkscape:pageshadow="2"
     inkscape:window-width="1920"
     inkscape:window-height="1048"
     id="namedview303"
     showgrid="false"
     inkscape:zoom="1.770235"
     inkscape:cx="280"
     inkscape:cy="255.33333"
     inkscape:window-x="0"
     inkscape:window-y="32"
     inkscape:window-maximized="1"
     inkscape:current-layer="g1261" />
  <g
     id="g1261"
     transform="translate(1.1209531,2.867204e-4)">
    <polygon
       transform="matrix(0.69302304,0,0,0.69302304,2.4217256,375.29145)"
       stroke="transparent"
       points="-4,-534.2 310.1414,-534.2 310.1414,4 -4,4 "
       id="polygon4"
       style="fill:#ffffff" />
    <g
       transform="matrix(0.69302304,0,0,0.69302304,2.4217256,375.29145)"
       id="node1"
       class="node">
      <title
         id="title6">a</title>
      <polygon
         points="124.221,-530.2 124.221,-494.2 183.324,-494.2 183.324,-530.2 "
         id="polygon8"
         style="fill:#ffd5d5;stroke:#ffd5d5" />
      <text
         x="153.77251"
         y="-508"
         font-size="14.00"
         id="text10"
         style="font-size:14px;font-family:Times, serif;text-anchor:middle;fill:#000000">Maggot</text>
    </g>
    <g
       transform="matrix(0.69302304,0,0,0.69302304,2.4217256,375.29145)"
       id="node2"
       class="node">
      <title
         id="title13">b</title>
      <polygon
         points="121.6689,-458.0019 121.6689,-416.7981 185.8761,-416.7981 185.8761,-458.0019 "
         id="polygon15"
         style="fill:#ffd5d5;stroke:#ffd5d5" />
      <text
         x="153.77251"
         y="-441.60001"
         font-size="14.00"
         id="text17"
         style="font-size:14px;font-family:Times, serif;text-anchor:middle;fill:#000000">Ekstaksi</text>
      <text
         x="153.77251"
         y="-424.79999"
         font-size="14.00"
         id="text19"
         style="font-size:14px;font-family:Times, serif;text-anchor:middle;fill:#000000">(1:1 b/v)</text>
    </g>
    <g
       transform="matrix(0.69302304,0,0,0.69302304,2.4217256,375.29145)"
       id="edge1"
       class="edge">
      <title
         id="title22">a-&gt;b</title>
      <path
         d="m 153.7725,-494.093 c 0,7.6847 0,16.8658 0,25.5785"
         id="path24"
         inkscape:connector-curvature="0"
         style="fill:none;stroke:#000000" />
      <polygon
         points="157.2726,-468.2515 153.7725,-458.2515 150.2726,-468.2515 "
         id="polygon26"
         style="fill:#000000;stroke:#000000" />
    </g>
    <g
       transform="matrix(0.69302304,0,0,0.69302304,2.4217256,375.29145)"
       id="node12"
       class="node">
      <title
         id="title29">hir3</title>
    </g>
    <g
       transform="matrix(0.69302304,0,0,0.69302304,2.4217256,375.29145)"
       id="edge2"
       class="edge">
      <title
         id="title32">b-&gt;hir3</title>
      <path
         d="m 153.7725,-416.564 c 0,13.9464 0,31.7437 0,43.0013"
         id="path34"
         inkscape:connector-curvature="0"
         style="fill:none;stroke:#000000" />
      <polygon
         points="157.2726,-373.405 153.7725,-363.4051 150.2726,-373.4051 "
         id="polygon36"
         style="fill:#000000;stroke:#000000" />
    </g>
    <g
       transform="matrix(0.69302304,0,0,0.69302304,2.4217256,375.29145)"
       id="node3"
       class="node">
      <title
         id="title39">c</title>
      <polygon
         points="42.7725,-380.6 42.7725,-344.6 96.7725,-344.6 96.7725,-380.6 "
         id="polygon41"
         style="fill:#800000;stroke:#800000" />
      <text
         x="69.772499"
         y="-358.39999"
         font-size="14.00"
         id="text43"
         style="font-size:14px;font-family:Times, serif;text-anchor:middle;fill:#ffffff">Etanol</text>
    </g>
    <g
       transform="matrix(0.69302304,0,0,0.69302304,2.4217256,375.29145)"
       id="node5"
       class="node">
      <title
         id="title46">e1</title>
      <polygon
         points="13.5093,-308.4019 13.5093,-267.1981 128.0357,-267.1981 128.0357,-308.4019 "
         id="polygon48"
         style="fill:#ffd5d5;stroke:#ffd5d5" />
      <text
         x="70.772499"
         y="-292"
         font-size="14.00"
         id="text50"
         style="font-size:14px;font-family:Times, serif;text-anchor:middle;fill:#000000">Sentrifugasi</text>
      <text
         x="70.772499"
         y="-275.20001"
         font-size="14.00"
         id="text52"
         style="font-size:14px;font-family:Times, serif;text-anchor:middle;fill:#000000">(1 min 5,000 × g)</text>
    </g>
    <g
       transform="matrix(0.69302304,0,0,0.69302304,2.4217256,375.29145)"
       id="edge3"
       class="edge">
      <title
         id="title55">c-&gt;e1</title>
      <path
         d="m 70.0146,-344.493 c 0.1027,7.6847 0.2255,16.8658 0.3419,25.5785"
         id="path57"
         inkscape:connector-curvature="0"
         style="fill:none;stroke:#000000" />
      <polygon
         points="73.8596,-318.6974 70.4937,-308.6515 66.8603,-318.6038 "
         id="polygon59"
         style="fill:#000000;stroke:#000000" />
    </g>
    <g
       transform="matrix(0.69302304,0,0,0.69302304,2.4217256,375.29145)"
       id="node16"
       class="node">
      <title
         id="title62">hir3i</title>
    </g>
    <g
       transform="matrix(0.69302304,0,0,0.69302304,2.4217256,375.29145)"
       id="edge12"
       class="edge">
      <title
         id="title65">c-&gt;hir3i</title>
      <path
         d="M 97.085,-362.6 H 210.2189"
         id="path67"
         inkscape:connector-curvature="0"
         style="fill:none;stroke:#000000"
         sodipodi:nodetypes="cc" />
    </g>
    <g
       transform="matrix(0.69302304,0,0,0.69302304,2.4217256,375.29145)"
       id="node4"
       class="node">
      <title
         id="title70">d</title>
      <polygon
         points="210.2921,-380.6 210.2921,-344.6 275.2529,-344.6 275.2529,-380.6 "
         id="polygon72"
         style="fill:#800000;stroke:#800000" />
      <text
         x="242.77251"
         y="-358.39999"
         font-size="14.00"
         id="text74"
         style="font-size:14px;font-family:Times, serif;text-anchor:middle;fill:#ffffff">Akuades</text>
    </g>
    <g
       transform="matrix(0.69302304,0,0,0.69302304,2.4217256,375.29145)"
       id="node6"
       class="node">
      <title
         id="title77">e2</title>
      <polygon
         points="184.5093,-308.4019 184.5093,-267.1981 299.0357,-267.1981 299.0357,-308.4019 "
         id="polygon79"
         style="fill:#ffd5d5;stroke:#ffd5d5" />
      <text
         x="241.77251"
         y="-292"
         font-size="14.00"
         id="text81"
         style="font-size:14px;font-family:Times, serif;text-anchor:middle;fill:#000000">Sentrifugasi</text>
      <text
         x="241.77251"
         y="-275.20001"
         font-size="14.00"
         id="text83"
         style="font-size:14px;font-family:Times, serif;text-anchor:middle;fill:#000000">(2 min 5,000 × g)</text>
    </g>
    <g
       transform="matrix(0.69302304,0,0,0.69302304,2.4217256,375.29145)"
       id="edge7"
       class="edge">
      <title
         id="title86">d-&gt;e2</title>
      <path
         d="m 242.5304,-344.493 c -0.1027,7.6847 -0.2255,16.8658 -0.3419,25.5785"
         id="path88"
         inkscape:connector-curvature="0"
         style="fill:none;stroke:#000000" />
      <polygon
         points="245.6847,-318.6038 242.0513,-308.6515 238.6854,-318.6974 "
         id="polygon90"
         style="fill:#000000;stroke:#000000" />
    </g>
    <g
       transform="matrix(0.69302304,0,0,0.69302304,2.4217256,375.29145)"
       id="node7"
       class="node">
      <title
         id="title93">f1</title>
      <polygon
         points="11.9126,-231 11.9126,-195 129.6324,-195 129.6324,-231 "
         id="polygon95"
         style="fill:#ffd5d5;stroke:#ffd5d5" />
      <text
         x="70.772499"
         y="-208.8"
         font-size="14.00"
         id="text97"
         style="font-size:14px;font-family:Times, serif;text-anchor:middle;fill:#000000">Fraksi larut etanol</text>
    </g>
    <g
       transform="matrix(0.69302304,0,0,0.69302304,2.4217256,375.29145)"
       id="edge4"
       class="edge">
      <title
         id="title100">e1-&gt;f1</title>
      <path
         d="m 70.7725,-266.964 c 0,7.9026 0,17.0417 0,25.5267"
         id="path102"
         inkscape:connector-curvature="0"
         style="fill:none;stroke:#000000" />
      <polygon
         points="74.2726,-241.1816 70.7725,-231.1816 67.2726,-241.1816 "
         id="polygon104"
         style="fill:#000000;stroke:#000000" />
    </g>
    <g
       transform="matrix(0.69302304,0,0,0.69302304,2.4217256,375.29145)"
       id="node8"
       class="node">
      <title
         id="title107">f2</title>
      <polygon
         points="177.5344,-231 177.5344,-195 306.0106,-195 306.0106,-231 "
         id="polygon109"
         style="fill:#ffd5d5;stroke:#ffd5d5" />
      <text
         x="241.77251"
         y="-208.8"
         font-size="14.00"
         id="text111"
         style="font-size:14px;font-family:Times, serif;text-anchor:middle;fill:#000000">Fraksi larut akuades</text>
    </g>
    <g
       transform="matrix(0.69302304,0,0,0.69302304,2.4217256,375.29145)"
       id="edge8"
       class="edge">
      <title
         id="title114">e2-&gt;f2</title>
      <path
         d="m 241.7725,-266.964 c 0,7.9026 0,17.0417 0,25.5267"
         id="path116"
         inkscape:connector-curvature="0"
         style="fill:none;stroke:#000000" />
      <polygon
         points="245.2726,-241.1816 241.7725,-231.1816 238.2726,-241.1816 "
         id="polygon118"
         style="fill:#000000;stroke:#000000" />
    </g>
    <g
       transform="matrix(0.69302304,0,0,0.69302304,2.4217256,375.29145)"
       id="node9"
       class="node">
      <title
         id="title121">g1</title>
      <polygon
         points="0.2268,-152 0.2268,-116 141.3182,-116 141.3182,-152 "
         id="polygon123"
         style="fill:#ffd5d5;stroke:#ffd5d5" />
      <text
         x="20.426399"
         y="-136.39999"
         font-size="14.00"
         id="text125"
         style="font-size:14px;font-family:Times, serif;text-anchor:start;fill:#000000">Pengeringan beku</text>
      <text
         x="8"
         y="-122.4"
         font-size="14.00"
         id="text127"
         style="font-size:14px;font-family:Times, serif;text-anchor:start;fill:#000000">(</text>
      <text
         x="12.6606"
         y="-122.4"
         font-style="italic"
         font-size="14.00"
         id="text129"
         style="font-style:italic;font-size:14px;font-family:Times, serif;text-anchor:start;fill:#000000">Freeze dryer</text>
      <text
         x="82.998001"
         y="-122.4"
         font-size="14.00"
         id="text131"
         style="font-size:14px;font-family:Times, serif;text-anchor:start;fill:#000000">; 24 jam)</text>
    </g>
    <g
       transform="matrix(0.69302304,0,0,0.69302304,2.4217256,375.29145)"
       id="edge5"
       class="edge">
      <title
         id="title134">f1-&gt;g1</title>
      <path
         d="m 70.7725,-194.6772 c 0,9.5719 0,21.4995 0,32.2401"
         id="path136"
         inkscape:connector-curvature="0"
         style="fill:none;stroke:#000000" />
      <polygon
         points="74.2726,-162.2234 70.7725,-152.2234 67.2726,-162.2234 "
         id="polygon138"
         style="fill:#000000;stroke:#000000" />
    </g>
    <g
       transform="matrix(0.69302304,0,0,0.69302304,2.4217256,375.29145)"
       id="node10"
       class="node">
      <title
         id="title141">g2</title>
      <polygon
         points="177.4248,-159 177.4248,-109 306.1202,-109 306.1202,-159 "
         id="polygon143"
         style="fill:#ffd5d5;stroke:#ffd5d5" />
      <text
         x="219.99899"
         y="-143.39999"
         font-size="14.00"
         id="text145"
         style="font-size:14px;font-family:Times, serif;text-anchor:start;fill:#000000">Refluks</text>
      <text
         x="185.59891"
         y="-129.39999"
         font-size="14.00"
         id="text147"
         style="font-size:14px;font-family:Times, serif;text-anchor:start;fill:#000000">(</text>
      <text
         x="190.25951"
         y="-129.39999"
         font-style="italic"
         font-size="14.00"
         id="text149"
         style="font-style:italic;font-size:14px;font-family:Times, serif;text-anchor:start;fill:#000000">Rotary Evaporator</text>
      <text
         x="294.05551"
         y="-129.39999"
         font-size="14.00"
         id="text151"
         style="font-size:14px;font-family:Times, serif;text-anchor:start;fill:#000000">;</text>
      <text
         x="216.114"
         y="-115.4"
         font-size="14.00"
         id="text153"
         style="font-size:14px;font-family:Times, serif;text-anchor:start;fill:#000000">6-8 jam)</text>
    </g>
    <g
       transform="matrix(0.69302304,0,0,0.69302304,2.4217256,375.29145)"
       id="edge9"
       class="edge">
      <title
         id="title156">f2-&gt;g2</title>
      <path
         d="m 241.7725,-194.6772 c 0,7.6006 0,16.6864 0,25.4839"
         id="path158"
         inkscape:connector-curvature="0"
         style="fill:none;stroke:#000000" />
      <polygon
         points="245.2726,-169.1046 241.7725,-159.1046 238.2726,-169.1047 "
         id="polygon160"
         style="fill:#000000;stroke:#000000" />
    </g>
    <g
       transform="matrix(0.69302304,0,0,0.69302304,2.4217256,375.29145)"
       id="node14"
       class="node">
      <title
         id="title163">hir7i</title>
    </g>
    <g
       transform="matrix(0.69302304,0,0,0.69302304,2.4217256,375.29145)"
       id="edge6"
       class="edge">
      <title
         id="title166">g1-&gt;hir7i</title>
      <path
         d="m 70.7725,-115.8806 c 0,10.532 0,23.4567 0,32.446"
         id="path168"
         inkscape:connector-curvature="0"
         style="fill:none;stroke:#000000" />
      <polygon
         points="74.2726,-83.1388 70.7725,-73.1389 67.2726,-83.1389 "
         id="polygon170"
         style="fill:#000000;stroke:#000000" />
    </g>
    <g
       transform="matrix(0.69302304,0,0,0.69302304,2.4217256,375.29145)"
       id="node15"
       class="node">
      <title
         id="title173">hir7e</title>
    </g>
    <g
       transform="matrix(0.69302304,0,0,0.69302304,2.4217256,375.29145)"
       id="edge10"
       class="edge">
      <title
         id="title176">g2-&gt;hir7e</title>
      <path
         d="m 241.7725,-108.9856 c 0,8.8459 0,18.3482 0,25.4374"
         id="path178"
         inkscape:connector-curvature="0"
         style="fill:none;stroke:#000000" />
      <polygon
         points="245.2726,-83.3693 241.7725,-73.3694 238.2726,-83.3694 "
         id="polygon180"
         style="fill:#000000;stroke:#000000" />
    </g>
    <g
       transform="matrix(0.69302304,0,0,0.69302304,6.9774893,375.29145)"
       id="node11"
       class="node">
      <title
         id="title183">h</title>
      <polygon
         points="195.2471,-36 98.2979,-36 98.2979,0 195.2471,0 "
         id="polygon185"
         style="fill:#800000;stroke:#800000" />
      <text
         x="146.77251"
         y="-13.8"
         font-size="14.00"
         id="text187"
         style="font-size:14px;font-family:Times, serif;text-anchor:middle;fill:#ffffff">Uji antikanker</text>
    </g>
    <g
       transform="matrix(0.69302304,0,0,0.69302304,2.4217256,375.29145)"
       id="node18"
       class="node">
      <title
         id="title190">hir3a</title>
    </g>
    <g
       transform="matrix(0.69302304,0,0,0.69302304,2.4217256,375.29145)"
       id="edge15"
       class="edge">
      <title
         id="title193">hir3-&gt;hir3a</title>
      <path
         d="m 154.3663,-362.6 c 5.9436,0 11.8873,0 17.831,0"
         id="path195"
         inkscape:connector-curvature="0"
         style="fill:none;stroke:#000000" />
    </g>
    <g
       transform="matrix(0.69302304,0,0,0.69302304,2.4217256,375.29145)"
       id="node13"
       class="node">
      <title
         id="title198">hir7</title>
    </g>
    <g
       transform="matrix(0.69302304,0,0,0.69302304,6.9774893,375.29145)"
       id="edge11"
       class="edge">
      <title
         id="title201">hir7-&gt;h</title>
      <path
         d="m 146.7725,-71.8879 c 0,2.7134 0,14.0349 0,25.605"
         id="path203"
         inkscape:connector-curvature="0"
         style="fill:none;stroke:#000000" />
      <polygon
         points="150.2726,-46.2614 146.7725,-36.2614 143.2726,-46.2614 "
         id="polygon205"
         style="fill:#000000;stroke:#000000" />
    </g>
    <g
       transform="matrix(0.69302304,0,0,0.69302304,2.4217256,375.29145)"
       id="node23"
       class="node">
      <title
         id="title208">hir7a</title>
    </g>
    <g
       transform="matrix(0.69302304,0,0,0.69302304,2.4217256,375.29145)"
       id="edge22"
       class="edge">
      <title
         id="title211">hir7-&gt;hir7a</title>
      <path
         d="m 147.3663,-72.5 c 5.9436,0 11.8873,0 17.831,0"
         id="path213"
         inkscape:connector-curvature="0"
         style="fill:none;stroke:#000000" />
    </g>
    <g
       transform="matrix(0.69302304,0,0,0.69302304,2.4217256,375.29145)"
       id="node20"
       class="node">
      <title
         id="title216">hir7ii</title>
    </g>
    <g
       transform="matrix(0.69302304,0,0,0.69302304,2.4217256,375.29145)"
       id="edge18"
       class="edge">
      <title
         id="title219">hir7i-&gt;hir7ii</title>
      <path
         d="m 71.3663,-72.5 c 5.9436,0 11.8873,0 17.831,0"
         id="path221"
         inkscape:connector-curvature="0"
         style="fill:none;stroke:#000000" />
    </g>
    <g
       transform="matrix(0.69302304,0,0,0.69302304,2.4217256,375.29145)"
       id="node17"
       class="node">
      <title
         id="title224">hir3ii</title>
    </g>
    <g
       transform="matrix(0.69302304,0,0,0.69302304,2.4217256,375.29145)"
       id="edge13"
       class="edge">
      <title
         id="title227">hir3i-&gt;hir3ii</title>
      <path
         d="m 116.3663,-362.6 c 5.9436,0 11.8873,0 17.831,0"
         id="path229"
         inkscape:connector-curvature="0"
         style="fill:none;stroke:#000000" />
    </g>
    <g
       transform="matrix(0.69302304,0,0,0.69302304,2.4217256,375.29145)"
       id="edge14"
       class="edge">
      <title
         id="title232">hir3ii-&gt;hir3</title>
      <path
         d="m 135.3663,-362.6 c 5.9436,0 11.8873,0 17.831,0"
         id="path234"
         inkscape:connector-curvature="0"
         style="fill:none;stroke:#000000" />
    </g>
    <g
       transform="matrix(0.69302304,0,0,0.69302304,2.4217256,375.29145)"
       id="node19"
       class="node">
      <title
         id="title237">hir3b</title>
    </g>
    <g
       transform="matrix(0.69302304,0,0,0.69302304,2.4217256,375.29145)"
       id="edge16"
       class="edge">
      <title
         id="title240">hir3a-&gt;hir3b</title>
      <path
         d="m 173.3663,-362.6 c 5.9436,0 11.8873,0 17.831,0"
         id="path242"
         inkscape:connector-curvature="0"
         style="fill:none;stroke:#000000" />
    </g>
    <g
       transform="matrix(0.69302304,0,0,0.69302304,2.4217256,375.29145)"
       id="edge17"
       class="edge">
      <title
         id="title245">hir3b-&gt;d</title>
      <path
         d="m 192.5694,-362.6 c 5.8832,0 11.7663,0 17.6495,0"
         id="path247"
         inkscape:connector-curvature="0"
         style="fill:none;stroke:#000000" />
    </g>
    <g
       transform="matrix(0.69302304,0,0,0.69302304,2.4217256,375.29145)"
       id="node21"
       class="node">
      <title
         id="title250">hir7iii</title>
    </g>
    <g
       transform="matrix(0.69302304,0,0,0.69302304,2.4217256,375.29145)"
       id="edge19"
       class="edge">
      <title
         id="title253">hir7ii-&gt;hir7iii</title>
      <path
         d="m 90.3663,-72.5 c 5.9436,0 11.8873,0 17.831,0"
         id="path255"
         inkscape:connector-curvature="0"
         style="fill:none;stroke:#000000" />
    </g>
    <g
       transform="matrix(0.69302304,0,0,0.69302304,2.4217256,375.29145)"
       id="node22"
       class="node">
      <title
         id="title258">hir7iv</title>
    </g>
    <g
       transform="matrix(0.69302304,0,0,0.69302304,2.4217256,375.29145)"
       id="edge20"
       class="edge">
      <title
         id="title261">hir7iii-&gt;hir7iv</title>
      <path
         d="m 71.3663,-72.5 h 169.831"
         id="path263"
         inkscape:connector-curvature="0"
         style="fill:none;stroke:#000000"
         sodipodi:nodetypes="cc" />
    </g>
    <g
       transform="matrix(0.69302304,0,0,0.69302304,2.4217256,375.29145)"
       id="edge21"
       class="edge">
      <title
         id="title266">hir7iv-&gt;hir7</title>
      <path
         d="m 128.3663,-72.5 c 5.9436,0 11.8873,0 17.831,0"
         id="path268"
         inkscape:connector-curvature="0"
         style="fill:none;stroke:#000000" />
    </g>
    <g
       transform="matrix(0.69302304,0,0,0.69302304,2.4217256,375.29145)"
       id="node24"
       class="node">
      <title
         id="title271">hir7b</title>
    </g>
    <g
       transform="matrix(0.69302304,0,0,0.69302304,2.4217256,375.29145)"
       id="edge23"
       class="edge">
      <title
         id="title274">hir7a-&gt;hir7b</title>
      <path
         d="m 166.3663,-72.5 c 5.9436,0 11.8873,0 17.831,0"
         id="path276"
         inkscape:connector-curvature="0"
         style="fill:none;stroke:#000000" />
    </g>
    <g
       transform="matrix(0.69302304,0,0,0.69302304,2.4217256,375.29145)"
       id="node25"
       class="node">
      <title
         id="title279">hir7c</title>
    </g>
    <g
       transform="matrix(0.69302304,0,0,0.69302304,2.4217256,375.29145)"
       id="edge24"
       class="edge">
      <title
         id="title282">hir7b-&gt;hir7c</title>
      <path
         d="m 185.3663,-72.5 c 5.9436,0 11.8873,0 17.831,0"
         id="path284"
         inkscape:connector-curvature="0"
         style="fill:none;stroke:#000000" />
    </g>
    <g
       transform="matrix(0.69302304,0,0,0.69302304,2.4217256,375.29145)"
       id="node26"
       class="node">
      <title
         id="title287">hir7d</title>
    </g>
    <g
       transform="matrix(0.69302304,0,0,0.69302304,2.4217256,375.29145)"
       id="edge25"
       class="edge">
      <title
         id="title290">hir7c-&gt;hir7d</title>
      <path
         d="m 204.3663,-72.5 c 5.9436,0 11.8873,0 17.831,0"
         id="path292"
         inkscape:connector-curvature="0"
         style="fill:none;stroke:#000000" />
    </g>
    <g
       transform="matrix(0.69302304,0,0,0.69302304,2.4217256,375.29145)"
       id="edge26"
       class="edge">
      <title
         id="title295">hir7d-&gt;hir7e</title>
      <path
         d="m 223.3663,-72.5 c 5.9436,0 11.8873,0 17.831,0"
         id="path297"
         inkscape:connector-curvature="0"
         style="fill:none;stroke:#000000" />
    </g>
    <g
       transform="matrix(1.0119406,0,0,1.0119406,21.022521,2.0460852)"
       id="g1164">
      <g
         id="g1133"
         transform="translate(-109.72152,-13.094338)">
        <g
           transform="matrix(0.68484557,0,0,0.68484557,328.08625,145.93781)"
           id="node11-3"
           class="node">
          <title
             id="title183-6">h</title>
          <polygon
             points="195.2471,0 195.2471,-36 98.2979,-36 98.2979,0 "
             id="polygon185-7"
             style="fill:#800000;stroke:#800000" />
          <text
             x="146.77251"
             y="-13.8"
             font-size="14.00"
             id="text187-5"
             style="font-size:14px;font-family:Times, serif;text-anchor:middle;fill:#ffffff">Uji antikanker</text>
        </g>
        <g
           transform="matrix(0.68484557,0,0,0.68484557,262.5346,328.83995)"
           id="node8-3-3"
           class="node">
          <title
             id="title107-6-5">f2</title>
          <polygon
             transform="matrix(1.4117086,0,0,1,-99.539828,0)"
             points="177.5344,-231 177.5344,-195 306.0106,-195 306.0106,-231 "
             id="polygon109-7-6"
             style="fill:#ffd5d5;stroke:#ffd5d5" />
          <text
             x="241.77251"
             y="-208.8"
             font-size="14.00"
             id="text111-5-2"
             style="font-size:14px;font-family:Times, serif;text-anchor:middle;fill:#000000">Uji sitotoksisitas well cell 96</text>
        </g>
        <g
           transform="matrix(0.68484557,0,0,0.68484557,262.5346,328.83995)"
           id="edge8-3-9"
           class="edge">
          <title
             id="title114-5-1">e2-&gt;f2</title>
          <path
             d="m 241.7725,-266.964 c 0,7.9026 0,17.0417 0,25.5267"
             id="path116-6-2"
             inkscape:connector-curvature="0"
             style="fill:none;stroke:#000000" />
          <polygon
             points="245.2726,-241.1816 241.7725,-231.1816 238.2726,-241.1816 "
             id="polygon118-2-7"
             style="fill:#000000;stroke:#000000" />
        </g>
        <g
           transform="matrix(0.68484557,0,0,0.68484557,261.91924,429.6544)"
           id="node8-9-0"
           class="node">
          <title
             id="title107-1-9">f2</title>
          <polygon
             transform="matrix(1.7102777,0,0,1.0488708,-173.20742,10.409484)"
             points="177.5344,-195 306.0106,-195 306.0106,-231 177.5344,-231 "
             id="polygon109-2-3"
             style="fill:#ffd5d5;stroke:#ffd5d5" />
          <text
             x="241.77251"
             y="-208.8"
             font-size="14.00"
             id="text111-7-6"
             style="font-size:14px;font-family:Times, serif;text-anchor:middle;fill:#000000">Regresi Linier Nilai Uji Sitotoksisitas</text>
        </g>
        <g
           transform="matrix(0.68484557,0,0,0.68484557,261.91924,378.06847)"
           id="edge8-0-0"
           class="edge">
          <title
             id="title114-9-6">e2-&gt;f2</title>
          <path
             d="m 241.7725,-266.964 c 0,7.9026 0,17.0417 0,25.5267"
             id="path116-3-2"
             inkscape:connector-curvature="0"
             style="fill:none;stroke:#000000" />
          <polygon
             points="245.2726,-241.1816 241.7725,-231.1816 238.2726,-241.1816 "
             id="polygon118-6-6"
             style="fill:#000000;stroke:#000000" />
        </g>
        <g
           transform="matrix(0.68484557,0,0,0.68484557,260.68853,478.88293)"
           id="node8-0-1"
           class="node">
          <title
             id="title107-62-8">f2</title>
          <polygon
             transform="matrix(0.74038847,0,0,1,62.766928,0)"
             points="306.0106,-231 177.5344,-231 177.5344,-195 306.0106,-195 "
             id="polygon109-6-7"
             style="fill:#ffd5d5;stroke:#ffd5d5" />
          <text
             x="241.77251"
             y="-208.8"
             font-size="14.00"
             id="text111-1-9"
             style="font-size:14px;font-family:Times, serif;text-anchor:middle;fill:#000000">Nilai IC50</text>
        </g>
        <g
           transform="matrix(0.68484557,0,0,0.68484557,260.68853,478.88293)"
           id="edge8-8-2"
           class="edge">
          <title
             id="title114-7-0">e2-&gt;f2</title>
          <path
             d="m 241.7725,-266.964 c 0,7.9026 0,17.0417 0,25.5267"
             id="path116-9-2"
             inkscape:connector-curvature="0"
             style="fill:none;stroke:#000000" />
          <polygon
             points="238.2726,-241.1816 245.2726,-241.1816 241.7725,-231.1816 "
             id="polygon118-20-3"
             style="fill:#000000;stroke:#000000" />
        </g>
        <g
           class="node"
           id="g1030"
           transform="matrix(0.68484557,0,0,0.68484557,261.91924,379.31245)">
          <title
             id="title1024">f2</title>
          <polygon
             style="fill:#ffd5d5;stroke:#ffd5d5"
             id="polygon1026"
             points="306.0106,-195 306.0106,-231 177.5344,-231 177.5344,-195 "
             transform="matrix(1.5369832,0,0,1,-129.82777,0)" />
          <text
             style="font-size:14px;font-family:Times, serif;text-anchor:middle;fill:#000000"
             id="text1028"
             font-size="14.00"
             y="-208.8"
             x="241.77251">Pembacaan dengan MTR450nm</text>
        </g>
        <g
           class="edge"
           id="g1038"
           transform="matrix(0.68484557,0,0,0.68484557,260.68853,428.54098)">
          <title
             id="title1032">e2-&gt;f2</title>
          <path
             style="fill:none;stroke:#000000"
             inkscape:connector-curvature="0"
             id="path1034"
             d="m 241.7725,-266.964 c 0,7.9026 0,17.0417 0,25.5267" />
          <polygon
             style="fill:#000000;stroke:#000000"
             id="polygon1036"
             points="238.2726,-241.1816 245.2726,-241.1816 241.7725,-231.1816 " />
        </g>
      </g>
    </g>
    <g
       transform="matrix(6.0138263,0,0,0.69302304,-858.22528,413.67238)"
       id="edge23-7"
       class="edge">
      <title
         id="title274-5">hir7a-&gt;hir7b</title>
      <path
         d="m 166.3663,-72.5 c 5.9436,0 11.8873,0 17.831,0"
         id="path276-9"
         inkscape:connector-curvature="0"
         style="fill:none;stroke:#000000" />
    </g>
    <g
       transform="matrix(3.4863364,0,0,0.69302304,-331.68193,173.78917)"
       id="edge23-7-2"
       class="edge">
      <title
         id="title274-5-2">hir7a-&gt;hir7b</title>
      <path
         d="m 166.3663,-72.5 c 5.9436,0 11.8873,0 17.831,0"
         id="path276-9-8"
         inkscape:connector-curvature="0"
         style="fill:none;stroke:#000000" />
    </g>
    <g
       transform="matrix(0,13.505553,-0.69302304,0,198.9429,-2123.5612)"
       id="edge23-7-9"
       class="edge">
      <title
         id="title274-5-7">hir7a-&gt;hir7b</title>
      <path
         d="m 166.3663,-72.5 c 5.9436,0 11.8873,0 17.831,0"
         id="path276-9-3"
         inkscape:connector-curvature="0"
         style="fill:none;stroke:#000000" />
    </g>
  </g>
</svg>
