<?xml version="1.0" encoding="UTF-8" standalone="no"?>
<svg
   xmlns:dc="http://purl.org/dc/elements/1.1/"
   xmlns:cc="http://creativecommons.org/ns#"
   xmlns:rdf="http://www.w3.org/1999/02/22-rdf-syntax-ns#"
   xmlns:svg="http://www.w3.org/2000/svg"
   xmlns="http://www.w3.org/2000/svg"
   xmlns:sodipodi="http://sodipodi.sourceforge.net/DTD/sodipodi-0.dtd"
   xmlns:inkscape="http://www.inkscape.org/namespaces/inkscape"
   width="950pt"
   height="370pt"
   viewBox="0 0 949.8142 370"
   version="1.1"
   id="svg614"
   sodipodi:docname="sidkom-prasidang-mekanisme-pam-invivo-2.svg"
   inkscape:version="0.92.5 (2060ec1f9f, 2020-04-08)">
  <metadata
     id="metadata620">
    <rdf:RDF>
      <cc:Work
         rdf:about="">
        <dc:format>image/svg+xml</dc:format>
        <dc:type
           rdf:resource="http://purl.org/dc/dcmitype/StillImage" />
        <dc:title></dc:title>
      </cc:Work>
    </rdf:RDF>
  </metadata>
  <defs
     id="defs618" />
  <sodipodi:namedview
     pagecolor="#ffffff"
     bordercolor="#666666"
     borderopacity="1"
     objecttolerance="10"
     gridtolerance="10"
     guidetolerance="10"
     inkscape:pageopacity="0"
     inkscape:pageshadow="2"
     inkscape:window-width="1920"
     inkscape:window-height="1048"
     id="namedview616"
     showgrid="false"
     inkscape:zoom="0.77045455"
     inkscape:cx="633.33333"
     inkscape:cy="586.66666"
     inkscape:window-x="0"
     inkscape:window-y="32"
     inkscape:window-maximized="1"
     inkscape:current-layer="svg614" />
  <g
     class="cluster"
     id="clust1"
     transform="translate(10.087774,370.51124)">
    <title
       id="title6">cluster_1</title>
  </g>
  <g
     class="cluster"
     id="clust2"
     transform="translate(10.087774,370.51124)">
    <title
       id="title9">cluster_5</title>
  </g>
  <g
     id="g2464"
     transform="translate(-571.5321,-596.81815)">
    <g
       transform="translate(-195.06078,960.31815)"
       id="node1"
       class="node">
      <title
         id="title12">a1</title>
      <path
         d="m 1542.5,-195 c 0,0 -65,0 -65,0 -6,0 -12,6 -12,12 0,0 0,12 0,12 0,6 6,12 12,12 0,0 65,0 65,0 6,0 12,-6 12,-12 0,0 0,-12 0,-12 0,-6 -6,-12 -12,-12"
         id="path14"
         inkscape:connector-curvature="0"
         style="fill:none;stroke:#000000" />
      <text
         x="1473.5"
         y="-174.3"
         font-weight="bold"
         font-size="14.00"
         id="text16"
         style="font-weight:bold;font-size:14px;font-family:Times, serif;text-anchor:start">bobot badan</text>
    </g>
    <g
       transform="translate(-195.06078,960.31815)"
       id="node4"
       class="node">
      <title
         id="title19">a4</title>
      <path
         d="m 1701,-195 c 0,0 -82,0 -82,0 -6,0 -12,6 -12,12 0,0 0,12 0,12 0,6 6,12 12,12 0,0 82,0 82,0 6,0 12,-6 12,-12 0,0 0,-12 0,-12 0,-6 -6,-12 -12,-12"
         id="path21"
         inkscape:connector-curvature="0"
         style="fill:none;stroke:#000000" />
      <text
         x="1615"
         y="-174.3"
         font-weight="bold"
         font-size="14.00"
         id="text23"
         style="font-weight:bold;font-size:14px;font-family:Times, serif;text-anchor:start">konversi pakan</text>
    </g>
    <g
       transform="translate(-195.06078,960.31815)"
       id="edge4"
       class="edge">
      <title
         id="title26">a1-&gt;a4</title>
      <path
         d="m 1554.6,-177 c 13.18,0 27.91,0 42.05,0"
         id="path28"
         inkscape:connector-curvature="0"
         style="fill:none;stroke:#ff0000" />
      <polygon
         points="1596.82,-180.5 1606.82,-177 1596.82,-173.5 "
         id="polygon30"
         style="fill:#ff0000;stroke:#ff0000" />
      <text
         x="1586.5"
         y="-180.8"
         font-size="14.00"
         id="text32"
         style="font-size:14px;font-family:Times, serif;text-anchor:middle;fill:#ff0000">-</text>
    </g>
    <g
       transform="translate(-195.06078,960.31815)"
       id="node2"
       class="node">
      <title
         id="title35">a2</title>
      <path
         d="m 1397,-249 c 0,0 -71,0 -71,0 -6,0 -12,6 -12,12 0,0 0,12 0,12 0,6 6,12 12,12 0,0 71,0 71,0 6,0 12,-6 12,-12 0,0 0,-12 0,-12 0,-6 -6,-12 -12,-12"
         id="path37"
         inkscape:connector-curvature="0"
         style="fill:none;stroke:#000000" />
      <text
         x="1322"
         y="-234.8"
         font-weight="bold"
         font-size="14.00"
         id="text39"
         style="font-weight:bold;font-size:14px;font-family:Times, serif;text-anchor:start">pertambahan</text>
      <text
         x="1325"
         y="-220.8"
         font-weight="bold"
         font-size="14.00"
         id="text41"
         style="font-weight:bold;font-size:14px;font-family:Times, serif;text-anchor:start">bobot badan</text>
    </g>
    <g
       transform="translate(-195.06078,960.31815)"
       id="edge1"
       class="edge">
      <title
         id="title44">a2-&gt;a1</title>
      <path
         d="m 1409.26,-213.77 c 14.7,5.42 31.04,11.45 46.18,17.03"
         id="path46"
         inkscape:connector-curvature="0"
         style="fill:none;stroke:#0000ff" />
      <polygon
         points="1457,-199.9 1465.18,-193.15 1454.58,-193.33 "
         id="polygon48"
         style="fill:#0000ff;stroke:#0000ff" />
      <text
         x="1431.5"
         y="-208.8"
         font-size="14.00"
         id="text50"
         style="font-size:14px;font-family:Times, serif;text-anchor:middle;fill:#0000ff">+</text>
    </g>
    <g
       transform="translate(-195.06078,960.31815)"
       id="node3"
       class="node">
      <title
         id="title53">a3</title>
      <path
         d="m 1554,-249 c 0,0 -88,0 -88,0 -6,0 -12,6 -12,12 0,0 0,12 0,12 0,6 6,12 12,12 0,0 88,0 88,0 6,0 12,-6 12,-12 0,0 0,-12 0,-12 0,-6 -6,-12 -12,-12"
         id="path55"
         inkscape:connector-curvature="0"
         style="fill:none;stroke:#000000" />
      <text
         x="1462"
         y="-228.3"
         font-weight="bold"
         font-size="14.00"
         id="text57"
         style="font-weight:bold;font-size:14px;font-family:Times, serif;text-anchor:start">konsumsi pakan</text>
    </g>
    <g
       transform="translate(-195.06078,960.31815)"
       id="edge2"
       class="edge">
      <title
         id="title60">a2-&gt;a3</title>
      <path
         d="m 1409.26,-231 c 11.01,0 22.94,0 34.6,0"
         id="path62"
         inkscape:connector-curvature="0"
         style="fill:none;stroke:#ff0000" />
      <polygon
         points="1444,-234.5 1454,-231 1444,-227.5 "
         id="polygon64"
         style="fill:#ff0000;stroke:#ff0000" />
      <text
         x="1431.5"
         y="-234.8"
         font-size="14.00"
         id="text66"
         style="font-size:14px;font-family:Times, serif;text-anchor:middle;fill:#ff0000">-</text>
    </g>
    <g
       transform="translate(-195.06078,960.31815)"
       id="edge3"
       class="edge">
      <title
         id="title69">a3-&gt;a4</title>
      <path
         d="m 1560.69,-212.87 c 12.52,4.57 26.07,9.51 39.01,14.23"
         id="path71"
         inkscape:connector-curvature="0"
         style="fill:none;stroke:#ff0000" />
      <polygon
         points="1601.24,-201.8 1609.44,-195.08 1598.84,-195.22 "
         id="polygon73"
         style="fill:#ff0000;stroke:#ff0000" />
      <text
         x="1586.5"
         y="-207.8"
         font-size="14.00"
         id="text75"
         style="font-size:14px;font-family:Times, serif;text-anchor:middle;fill:#ff0000">-</text>
    </g>
    <g
       transform="translate(-195.06078,960.31815)"
       id="node6"
       class="node">
      <title
         id="title87">b2</title>
      <path
         d="m 1114,-306 c 0,0 -67,0 -67,0 -6,0 -12,6 -12,12 0,0 0,12 0,12 0,6 6,12 12,12 0,0 67,0 67,0 6,0 12,-6 12,-12 0,0 0,-12 0,-12 0,-6 -6,-12 -12,-12"
         id="path89"
         inkscape:connector-curvature="0"
         style="fill:none;stroke:#000000" />
      <text
         x="1043"
         y="-291.79999"
         font-weight="bold"
         font-size="14.00"
         id="text91"
         style="font-weight:bold;font-size:14px;font-family:Times, serif;text-anchor:start">metabolisme</text>
      <text
         x="1062"
         y="-277.79999"
         font-weight="bold"
         font-size="14.00"
         id="text93"
         style="font-weight:bold;font-size:14px;font-family:Times, serif;text-anchor:start">energi</text>
    </g>
    <g
       transform="translate(-195.06078,960.31815)"
       id="edge5"
       class="edge">
      <title
         id="title96">b1-&gt;b2</title>
      <path
         d="m 845.92,-320.91 c 16.57,8.9 37.8,18.79 58.08,23.91 39.58,9.99 85.72,11.99 120.76,11.63"
         id="path98"
         inkscape:connector-curvature="0"
         style="fill:none;stroke:#0000ff" />
      <polygon
         points="1024.74,-288.87 1034.79,-285.54 1024.86,-281.87 "
         id="polygon100"
         style="fill:#0000ff;stroke:#0000ff" />
      <text
         x="947"
         y="-300.79999"
         font-size="14.00"
         id="text102"
         style="font-size:14px;font-family:Times, serif;text-anchor:middle;fill:#0000ff">+</text>
    </g>
    <g
       transform="translate(-195.06078,960.31815)"
       id="node11"
       class="node">
      <title
         id="title105">d2</title>
      <path
         d="m 975,-357 c 0,0 -56,0 -56,0 -6,0 -12,6 -12,12 0,0 0,12 0,12 0,6 6,12 12,12 0,0 56,0 56,0 6,0 12,-6 12,-12 0,0 0,-12 0,-12 0,-6 -6,-12 -12,-12"
         id="path107"
         inkscape:connector-curvature="0"
         style="fill:none;stroke:#000000" />
      <text
         x="915"
         y="-342.79999"
         font-weight="bold"
         font-size="14.00"
         id="text109"
         style="font-weight:bold;font-size:14px;font-family:Times, serif;text-anchor:start">trigliserida</text>
      <text
         x="928.5"
         y="-328.79999"
         font-weight="bold"
         font-size="14.00"
         id="text111"
         style="font-weight:bold;font-size:14px;font-family:Times, serif;text-anchor:start">serum</text>
    </g>
    <g
       transform="translate(-195.06078,960.31815)"
       id="edge38"
       class="edge">
      <title
         id="title114">b1-&gt;d2</title>
      <path
         d="m 859.32,-339 c 12.03,0 25.16,0 37.47,0"
         id="path116"
         inkscape:connector-curvature="0"
         style="fill:none;stroke:#0000ff" />
      <polygon
         points="896.9,-342.5 906.9,-339 896.9,-335.5 "
         id="polygon118"
         style="fill:#0000ff;stroke:#0000ff" />
      <text
         x="881.5"
         y="-342.79999"
         font-size="14.00"
         id="text120"
         style="font-size:14px;font-family:Times, serif;text-anchor:middle;fill:#0000ff">+</text>
    </g>
    <g
       transform="translate(-195.06078,960.31815)"
       id="edge39"
       class="edge">
      <title
         id="title123">b2-&gt;a2</title>
      <path
         d="m 1126.1,-292.58 c 38.66,-2.51 95.65,-2.68 142.9,11.58 19.74,5.96 40.03,16.51 56.47,26.39"
         id="path125"
         inkscape:connector-curvature="0"
         style="fill:none;stroke:#0000ff" />
      <polygon
         points="1327.52,-257.46 1334.18,-249.22 1323.83,-251.5 "
         id="polygon127"
         style="fill:#0000ff;stroke:#0000ff" />
      <text
         x="1220"
         y="-296.79999"
         font-size="14.00"
         id="text129"
         style="font-size:14px;font-family:Times, serif;text-anchor:middle;fill:#0000ff">+</text>
    </g>
    <g
       transform="translate(-195.06078,960.31815)"
       id="node12"
       class="node">
      <title
         id="title132">d3</title>
      <path
         d="m 1243,-272 c 0,0 -46,0 -46,0 -6,0 -12,6 -12,12 0,0 0,12 0,12 0,6 6,12 12,12 0,0 46,0 46,0 6,0 12,-6 12,-12 0,0 0,-12 0,-12 0,-6 -6,-12 -12,-12"
         id="path134"
         inkscape:connector-curvature="0"
         style="fill:none;stroke:#000000" />
      <text
         x="1193"
         y="-257.79999"
         font-weight="bold"
         font-size="14.00"
         id="text136"
         style="font-weight:bold;font-size:14px;font-family:Times, serif;text-anchor:start">kreatinin</text>
      <text
         x="1201.5"
         y="-243.8"
         font-weight="bold"
         font-size="14.00"
         id="text138"
         style="font-weight:bold;font-size:14px;font-family:Times, serif;text-anchor:start">serum</text>
    </g>
    <g
       transform="translate(-195.06078,960.31815)"
       id="edge36"
       class="edge">
      <title
         id="title141">b2-&gt;d3</title>
      <path
         d="m 1126.14,-276.96 c 15.57,3.85 33.02,8.16 48.56,12.01"
         id="path143"
         inkscape:connector-curvature="0"
         style="fill:none;stroke:#ff0000" />
      <polygon
         points="1175.73,-268.3 1184.6,-262.51 1174.05,-261.51 "
         id="polygon145"
         style="fill:#ff0000;stroke:#ff0000" />
      <text
         x="1148.5"
         y="-275.79999"
         font-size="14.00"
         id="text147"
         style="font-size:14px;font-family:Times, serif;text-anchor:middle;fill:#ff0000">-</text>
    </g>
    <g
       transform="translate(-195.06078,960.31815)"
       id="node22"
       class="node">
      <title
         id="title159">Penyerapan</title>
      <path
         d="m 978,-143 c 0,0 -62,0 -62,0 -6,0 -12,6 -12,12 0,0 0,12 0,12 0,6 6,12 12,12 0,0 62,0 62,0 6,0 12,-6 12,-12 0,0 0,-12 0,-12 0,-6 -6,-12 -12,-12"
         id="path161"
         inkscape:connector-curvature="0"
         style="fill:none;stroke:#000000" />
      <text
         x="912"
         y="-128.8"
         font-weight="bold"
         font-size="14.00"
         id="text163"
         style="font-weight:bold;font-size:14px;font-family:Times, serif;text-anchor:start">Penyerapan</text>
      <text
         x="920.5"
         y="-114.8"
         font-weight="bold"
         font-size="14.00"
         id="text165"
         style="font-weight:bold;font-size:14px;font-family:Times, serif;text-anchor:start">Nutrien  </text>
    </g>
    <g
       transform="translate(-195.06078,960.31815)"
       id="edge31"
       class="edge">
      <title
         id="title168">c1-&gt;Penyerapan</title>
      <path
         d="m 847.78,-212.75 c 3.93,2.73 7.77,5.67 11.22,8.75 21.82,19.48 20.65,33.54 42.6,54.28"
         id="path170"
         inkscape:connector-curvature="0"
         style="fill:none;stroke:#0000ff" />
      <polygon
         points="903.99,-152.28 909.2,-143.06 899.37,-147.01 "
         id="polygon172"
         style="fill:#0000ff;stroke:#0000ff" />
      <text
         x="881.5"
         y="-184.8"
         font-size="14.00"
         id="text174"
         style="font-size:14px;font-family:Times, serif;text-anchor:middle;fill:#0000ff">+</text>
    </g>
    <g
       transform="translate(-195.06078,960.31815)"
       id="edge32"
       class="edge">
      <title
         id="title184">c2-&gt;Penyerapan</title>
      <path
         d="m 849.38,-266.81 c 3.49,2.67 6.79,5.62 9.62,8.81 18.87,21.27 16.41,31.61 27,58 8.11,20.2 3.42,31.16 15.53,48.86"
         id="path186"
         inkscape:connector-curvature="0"
         style="fill:none;stroke:#0000ff" />
      <polygon
         points="904.42,-153.12 907.83,-143.09 898.91,-148.81 "
         id="polygon188"
         style="fill:#0000ff;stroke:#0000ff" />
      <text
         x="881.5"
         y="-229.8"
         font-size="14.00"
         id="text190"
         style="font-size:14px;font-family:Times, serif;text-anchor:middle;fill:#0000ff">+</text>
    </g>
    <g
       transform="translate(-195.06078,960.31815)"
       id="edge33"
       class="edge">
      <title
         id="title202">c3-&gt;Penyerapan</title>
      <path
         d="m 843.47,-158.92 c 10.24,6.03 22.12,12.37 33.53,16.92 5.43,2.17 11.22,4.11 17.04,5.85"
         id="path204"
         inkscape:connector-curvature="0"
         style="fill:none;stroke:#0000ff" />
      <polygon
         points="895.13,-139.48 903.82,-133.43 893.25,-132.74 "
         id="polygon206"
         style="fill:#0000ff;stroke:#0000ff" />
      <text
         x="881.5"
         y="-145.8"
         font-size="14.00"
         id="text208"
         style="font-size:14px;font-family:Times, serif;text-anchor:middle;fill:#0000ff">+</text>
    </g>
    <g
       transform="translate(-195.06078,960.31815)"
       id="node10"
       class="node">
      <title
         id="title211">d1</title>
      <path
         d="m 1257,-218 c 0,0 -74,0 -74,0 -6,0 -12,6 -12,12 0,0 0,26 0,26 0,6 6,12 12,12 0,0 74,0 74,0 6,0 12,-6 12,-12 0,0 0,-26 0,-26 0,-6 -6,-12 -12,-12"
         id="path213"
         inkscape:connector-curvature="0"
         style="fill:none;stroke:#000000" />
      <text
         x="1179"
         y="-203.8"
         font-weight="bold"
         font-size="14.00"
         id="text215"
         style="font-weight:bold;font-size:14px;font-family:Times, serif;text-anchor:start">rasio albumin</text>
      <text
         x="1183.5"
         y="-189.8"
         font-weight="bold"
         font-size="14.00"
         id="text217"
         style="font-weight:bold;font-size:14px;font-family:Times, serif;text-anchor:start">dan globulin</text>
      <text
         x="1201.5"
         y="-175.8"
         font-weight="bold"
         font-size="14.00"
         id="text219"
         style="font-weight:bold;font-size:14px;font-family:Times, serif;text-anchor:start">serum</text>
    </g>
    <g
       transform="translate(-195.06078,960.31815)"
       id="edge42"
       class="edge">
      <title
         id="title222">d1-&gt;a2</title>
      <path
         d="m 1269.01,-206.08 c 11.21,-3.05 23.26,-6.34 34.82,-9.48"
         id="path224"
         inkscape:connector-curvature="0"
         style="fill:none;stroke:#0000ff" />
      <polygon
         points="1303.25,-219.03 1313.82,-218.28 1305.09,-212.28 "
         id="polygon226"
         style="fill:#0000ff;stroke:#0000ff" />
      <text
         x="1291.5"
         y="-216.8"
         font-size="14.00"
         id="text228"
         style="font-size:14px;font-family:Times, serif;text-anchor:middle;fill:#0000ff">+</text>
    </g>
    <g
       transform="translate(-195.06078,960.31815)"
       id="edge41"
       class="edge">
      <title
         id="title231">d2-&gt;a2</title>
      <path
         d="m 987.2,-343.41 c 62.45,-5.38 187.13,-9.27 281.8,31.41 28.14,12.09 53.64,36.31 70.53,55.13"
         id="path233"
         inkscape:connector-curvature="0"
         style="fill:none;stroke:#0000ff" />
      <polygon
         points="1342.3,-259.03 1346.23,-249.19 1337.02,-254.43 "
         id="polygon235"
         style="fill:#0000ff;stroke:#0000ff" />
      <text
         x="1148.5"
         y="-345.79999"
         font-size="14.00"
         id="text237"
         style="font-size:14px;font-family:Times, serif;text-anchor:middle;fill:#0000ff">+</text>
    </g>
    <g
       transform="translate(-195.06078,960.31815)"
       id="edge40"
       class="edge">
      <title
         id="title240">d2-&gt;b2</title>
      <path
         d="m 987.1,-323.84 c 11.94,4.64 25.3,9.82 38.07,14.77"
         id="path242"
         inkscape:connector-curvature="0"
         style="fill:none;stroke:#0000ff" />
      <polygon
         points="1026.72,-312.22 1034.78,-305.34 1024.19,-305.7 "
         id="polygon244"
         style="fill:#0000ff;stroke:#0000ff" />
      <text
         x="1012.5"
         y="-318.79999"
         font-size="14.00"
         id="text246"
         style="font-size:14px;font-family:Times, serif;text-anchor:middle;fill:#0000ff">+</text>
    </g>
    <g
       transform="translate(-195.06078,960.31815)"
       id="edge43"
       class="edge">
      <title
         id="title249">d3-&gt;a2</title>
      <path
         d="m 1255.13,-248.37 c 14.62,2.41 32.11,5.29 48.6,8.01"
         id="path251"
         inkscape:connector-curvature="0"
         style="fill:none;stroke:#0000ff" />
      <polygon
         points="1304.53,-243.78 1313.83,-238.7 1303.39,-236.87 "
         id="polygon253"
         style="fill:#0000ff;stroke:#0000ff" />
      <text
         x="1291.5"
         y="-245.8"
         font-size="14.00"
         id="text255"
         style="font-size:14px;font-family:Times, serif;text-anchor:middle;fill:#0000ff">+</text>
    </g>
    <g
       transform="translate(-195.06078,960.31815)"
       id="node5"
       class="node">
      <title
         id="title78">b1</title>
      <path
         d="m 847,-357 c 0,0 -65,0 -65,0 -6,0 -12,6 -12,12 0,0 0,12 0,12 0,6 6,12 12,12 0,0 65,0 65,0 6,0 12,-6 12,-12 0,0 0,-12 0,-12 0,-6 -6,-12 -12,-12"
         id="path80"
         inkscape:connector-curvature="0"
         style="fill:none;stroke:#000000" />
      <text
         x="784"
         y="-342.79999"
         font-weight="bold"
         font-size="14.00"
         id="text82"
         style="font-weight:bold;font-size:14px;font-family:Times, serif;text-anchor:start">kecernaan</text>
      <text
         x="778"
         y="-328.79999"
         font-weight="bold"
         font-size="14.00"
         id="text84"
         style="font-weight:bold;font-size:14px;font-family:Times, serif;text-anchor:start">lemak kasar</text>
    </g>
    <g
       transform="translate(-195.06078,960.31815)"
       id="node7"
       class="node">
      <title
         id="title150">c1</title>
      <path
         d="m 839,-249 c 0,0 -49,0 -49,0 -6,0 -12,6 -12,12 0,0 0,12 0,12 0,6 6,12 12,12 0,0 49,0 49,0 6,0 12,-6 12,-12 0,0 0,-12 0,-12 0,-6 -6,-12 -12,-12"
         id="path152"
         inkscape:connector-curvature="0"
         style="fill:none;stroke:#000000" />
      <text
         x="786"
         y="-234.8"
         font-weight="bold"
         font-size="14.00"
         id="text154"
         style="font-weight:bold;font-size:14px;font-family:Times, serif;text-anchor:start">ketebalan</text>
      <text
         x="791.5"
         y="-220.8"
         font-weight="bold"
         font-size="14.00"
         id="text156"
         style="font-weight:bold;font-size:14px;font-family:Times, serif;text-anchor:start">mukosa</text>
    </g>
    <g
       transform="translate(-195.06078,960.31815)"
       id="node8"
       class="node">
      <title
         id="title177">c2</title>
      <path
         d="m 844.5,-303 c 0,0 -60,0 -60,0 -6,0 -12,6 -12,12 0,0 0,12 0,12 0,6 6,12 12,12 0,0 60,0 60,0 6,0 12,-6 12,-12 0,0 0,-12 0,-12 0,-6 -6,-12 -12,-12"
         id="path179"
         inkscape:connector-curvature="0"
         style="fill:none;stroke:#000000" />
      <text
         x="780.5"
         y="-282.29999"
         font-weight="bold"
         font-size="14.00"
         id="text181"
         style="font-weight:bold;font-size:14px;font-family:Times, serif;text-anchor:start">tinggi villus</text>
    </g>
    <g
       transform="translate(-195.06078,960.31815)"
       id="node9"
       class="node">
      <title
         id="title193">c3</title>
      <path
         d="m 843,-195 c 0,0 -57,0 -57,0 -6,0 -12,6 -12,12 0,0 0,12 0,12 0,6 6,12 12,12 0,0 57,0 57,0 6,0 12,-6 12,-12 0,0 0,-12 0,-12 0,-6 -6,-12 -12,-12"
         id="path195"
         inkscape:connector-curvature="0"
         style="fill:none;stroke:#000000" />
      <text
         x="782"
         y="-180.8"
         font-weight="bold"
         font-size="14.00"
         id="text197"
         style="font-weight:bold;font-size:14px;font-family:Times, serif;text-anchor:start">kedalaman</text>
      <text
         x="796"
         y="-166.8"
         font-weight="bold"
         font-size="14.00"
         id="text199"
         style="font-weight:bold;font-size:14px;font-family:Times, serif;text-anchor:start">kripta</text>
    </g>
    <g
       transform="translate(-195.06078,960.31815)"
       id="edge44"
       class="edge">
      <title
         id="title550">Penyerapan-&gt;a1</title>
      <path
         d="m 964.77,-106.68 c 23.28,23.34 67.86,60.68 114.73,60.68 0,0 0,0 283,0 61.65,0 109.25,-65.26 131.93,-103.66"
         id="path552"
         inkscape:connector-curvature="0"
         style="fill:none;stroke:#0000ff" />
      <polygon
         points="1491.65,-151.84 1499.65,-158.79 1497.72,-148.37 "
         id="polygon554"
         style="fill:#0000ff;stroke:#0000ff" />
      <text
         x="1220"
         y="-49.799999"
         font-size="14.00"
         id="text556"
         style="font-size:14px;font-family:Times, serif;text-anchor:middle;fill:#0000ff">+</text>
    </g>
    <g
       transform="translate(-195.06078,960.31815)"
       id="edge45"
       class="edge">
      <title
         id="title559">Penyerapan-&gt;a2</title>
      <path
         d="m 990.05,-122.22 c 63.09,2.6 184.85,1.47 278.95,-36.78 25.66,-10.43 50.06,-30.32 67.2,-46.56"
         id="path561"
         inkscape:connector-curvature="0"
         style="fill:none;stroke:#0000ff" />
      <polygon
         points="1333.94,-208.24 1343.55,-212.71 1338.83,-203.23 "
         id="polygon563"
         style="fill:#0000ff;stroke:#0000ff" />
      <text
         x="1148.5"
         y="-132.8"
         font-size="14.00"
         id="text565"
         style="font-size:14px;font-family:Times, serif;text-anchor:middle;fill:#0000ff">+</text>
    </g>
    <g
       transform="translate(-195.06078,960.31815)"
       id="edge46"
       class="edge">
      <title
         id="title568">Penyerapan-&gt;a3</title>
      <path
         d="m 990.16,-111.33 c 25.56,7.11 59,14.33 89.34,14.33 0,0 0,0 283,0 62.57,0 42.06,-68.64 91.5,-107 1.54,-1.2 3.15,-2.36 4.8,-3.49"
         id="path570"
         inkscape:connector-curvature="0"
         style="fill:none;stroke:#ff0000" />
      <polygon
         points="1457.02,-210.51 1467.35,-212.86 1460.74,-204.58 "
         id="polygon572"
         style="fill:#ff0000;stroke:#ff0000" />
      <text
         x="1220"
         y="-100.8"
         font-size="14.00"
         id="text574"
         style="font-size:14px;font-family:Times, serif;text-anchor:middle;fill:#ff0000">-</text>
    </g>
    <g
       transform="translate(-195.06078,960.31815)"
       id="edge47"
       class="edge">
      <title
         id="title577">Penyerapan-&gt;a4</title>
      <path
         d="M 956.51,-106.82 C 974.16,-72.16 1018.24,0 1079.5,0 c 0,0 0,0 431.5,0 76.82,0 121.6,-99.34 139.24,-149.18"
         id="path579"
         inkscape:connector-curvature="0"
         style="fill:none;stroke:#ff0000" />
      <polygon
         points="1646.95,-150.39 1653.5,-158.72 1653.58,-148.13 "
         id="polygon581"
         style="fill:#ff0000;stroke:#ff0000" />
      <text
         x="1291.5"
         y="-3.8"
         font-size="14.00"
         id="text583"
         style="font-size:14px;font-family:Times, serif;text-anchor:middle;fill:#ff0000">-</text>
    </g>
    <g
       transform="translate(-195.06078,960.31815)"
       id="edge34"
       class="edge">
      <title
         id="title586">Penyerapan-&gt;b1</title>
      <path
         d="m 907.22,-143.24 c -1.16,-1.19 -2.24,-2.44 -3.22,-3.76 -25.81,-34.9 -6.04,-54.27 -18,-96 -1.13,-3.96 -24.37,-65.84 -27,-69 -0.6,-0.72 -1.22,-1.42 -1.86,-2.11"
         id="path588"
         inkscape:connector-curvature="0"
         style="fill:none;stroke:#0000ff" />
      <polygon
         points="854.62,-311.67 849.58,-320.99 859.33,-316.85 "
         id="polygon590"
         style="fill:#0000ff;stroke:#0000ff" />
      <text
         x="881.5"
         y="-269.79999"
         font-size="14.00"
         id="text592"
         style="font-size:14px;font-family:Times, serif;text-anchor:middle;fill:#0000ff">+</text>
    </g>
    <g
       transform="translate(-195.06078,960.31815)"
       id="edge35"
       class="edge">
      <title
         id="title595">Penyerapan-&gt;b2</title>
      <path
         d="m 986.2,-143.07 c 1.36,-1.23 2.63,-2.54 3.8,-3.93 16.83,-20 5.35,-33.12 18,-56 12.11,-21.9 30.31,-43.44 45.32,-59.35"
         id="path597"
         inkscape:connector-curvature="0"
         style="fill:none;stroke:#0000ff" />
      <polygon
         points="1050.94,-264.92 1060.39,-269.69 1055.98,-260.06 "
         id="polygon599"
         style="fill:#0000ff;stroke:#0000ff" />
      <text
         x="1012.5"
         y="-218.8"
         font-size="14.00"
         id="text601"
         style="font-size:14px;font-family:Times, serif;text-anchor:middle;fill:#0000ff">+</text>
    </g>
    <g
       transform="translate(-195.06078,960.31815)"
       id="edge37"
       class="edge">
      <title
         id="title604">Penyerapan-&gt;d1</title>
      <path
         d="m 983.46,-143.11 c 9.91,-4.84 19.37,-9.2 24.54,-10.89 50.31,-16.48 109.78,-26.68 152.74,-32.49"
         id="path606"
         inkscape:connector-curvature="0"
         style="fill:none;stroke:#0000ff" />
      <polygon
         points="1160.37,-189.98 1170.74,-187.81 1161.29,-183.04 "
         id="polygon608"
         style="fill:#0000ff;stroke:#0000ff" />
      <text
         x="1080.5"
         y="-184.8"
         font-size="14.00"
         id="text610"
         style="font-size:14px;font-family:Times, serif;text-anchor:middle;fill:#0000ff">+</text>
    </g>
  </g>
</svg>
