<?xml version="1.0" encoding="UTF-8" standalone="no"?>
<!-- Created with Inkscape (http://www.inkscape.org/) -->

<svg
   xmlns:dc="http://purl.org/dc/elements/1.1/"
   xmlns:cc="http://creativecommons.org/ns#"
   xmlns:rdf="http://www.w3.org/1999/02/22-rdf-syntax-ns#"
   xmlns:svg="http://www.w3.org/2000/svg"
   xmlns="http://www.w3.org/2000/svg"
   xmlns:sodipodi="http://sodipodi.sourceforge.net/DTD/sodipodi-0.dtd"
   xmlns:inkscape="http://www.inkscape.org/namespaces/inkscape"
   width="21cm"
   height="10cm"
   viewBox="0 0 209.99999 100"
   version="1.1"
   id="svg8"
   inkscape:version="0.92.5 (2060ec1f9f, 2020-04-08)"
   sodipodi:docname="presentasi-sidkom-ruang-lingkup.svg"
   inkscape:export-filename="/home/sholikinshino/Desktop/Pelatihan/pelatihan-2020-metal/ch1_intro_and_build_data/Sholikin_2020__Metal.png"
   inkscape:export-xdpi="750.02698"
   inkscape:export-ydpi="750.02698">
  <defs
     id="defs2">
    <mask
       maskUnits="userSpaceOnUse"
       id="mask1359">
      <rect
         style="display:inline;opacity:1;fill:#ffffff;stroke:none;stroke-width:0.17597125"
         id="rect1361"
         width="150.11554"
         height="127.61427"
         x="15.330476"
         y="57.03001" />
    </mask>
  </defs>
  <sodipodi:namedview
     id="base"
     pagecolor="#ffffff"
     bordercolor="#666666"
     borderopacity="1.0"
     inkscape:pageopacity="0.0"
     inkscape:pageshadow="2"
     inkscape:zoom="1.7739683"
     inkscape:cx="396.85039"
     inkscape:cy="188.97638"
     inkscape:document-units="cm"
     inkscape:current-layer="layer1"
     showgrid="false"
     inkscape:window-width="1920"
     inkscape:window-height="1048"
     inkscape:window-x="0"
     inkscape:window-y="32"
     inkscape:window-maximized="1"
     units="cm"
     showguides="true"
     inkscape:guide-bbox="true">
    <sodipodi:guide
       position="264.37282,-114.06214"
       orientation="0,1"
       id="guide1521"
       inkscape:locked="false" />
  </sodipodi:namedview>
  <metadata
     id="metadata5">
    <rdf:RDF>
      <cc:Work
         rdf:about="">
        <dc:format>image/svg+xml</dc:format>
        <dc:type
           rdf:resource="http://purl.org/dc/dcmitype/StillImage" />
        <dc:title></dc:title>
      </cc:Work>
    </rdf:RDF>
  </metadata>
  <g
     inkscape:groupmode="layer"
     id="layer1"
     inkscape:label="ketergantungan"
     transform="translate(0,-110)">
    <g
       id="g1232"
       transform="matrix(0.96421909,0,0,0.96421909,9.0491633,107.0295)">
      <rect
         ry="0"
         y="4.781847"
         x="106.61771"
         height="25.009953"
         width="98.541679"
         id="rect1023-2-0"
         style="opacity:1;fill:#800000;stroke:none;stroke-width:0;stroke-miterlimit:4;stroke-dasharray:none" />
      <g
         id="text1575"
         style="font-style:normal;font-weight:normal;font-size:26.14921188px;line-height:1.25;font-family:sans-serif;letter-spacing:0px;word-spacing:0px;fill:#ffffff;fill-opacity:1;stroke:none;stroke-width:4.90297699"
         aria-label="In silico">
        <path
           inkscape:connector-curvature="0"
           id="path1228"
           style="font-style:italic;fill:#ffffff;stroke-width:4.90297699"
           d="m 110.12994,7.7589875 h 2.59194 l -3.71553,19.0628775 h -2.59194 z" />
        <path
           inkscape:connector-curvature="0"
           id="path1230"
           style="font-style:italic;fill:#ffffff;stroke-width:4.90297699"
           d="m 127.99261,18.190582 -1.67263,8.631283 h -2.36211 l 1.67263,-8.541906 q 0.11492,-0.600104 0.17876,-1.059758 0.0638,-0.459654 0.0638,-0.727785 0,-1.072527 -0.67671,-1.672631 -0.67672,-0.600104 -1.88969,-0.600104 -1.88969,0 -3.25589,1.264049 -1.36619,1.251281 -1.78754,3.409102 l -1.57049,7.929033 h -2.34934 l 2.77069,-14.30035 h 2.34935 l -0.47243,2.247198 q 0.98315,-1.238513 2.36212,-1.915226 1.37896,-0.676713 2.89837,-0.676713 1.88969,0 2.92391,1.021454 1.04699,1.021453 1.04699,2.872838 0,0.459654 -0.0638,0.983149 -0.0511,0.523495 -0.16599,1.136367 z" />
        <path
           inkscape:connector-curvature="0"
           id="path1232"
           style="font-style:italic;fill:#ffffff;stroke-width:4.90297699"
           d="m 151.3839,12.942864 -0.44688,2.221662 q -0.93208,-0.510727 -1.9663,-0.76609 -1.03422,-0.255364 -2.13229,-0.255364 -1.85138,0 -2.92391,0.638409 -1.05976,0.62564 -1.05976,1.710935 0,1.264048 2.47703,1.940761 0.19152,0.05107 0.2809,0.07661 l 0.75332,0.229828 q 2.34934,0.651176 3.1282,1.366194 0.79163,0.715017 0.79163,1.95353 0,2.272734 -1.81308,3.702769 -1.80031,1.430035 -4.72422,1.430035 -1.13637,0 -2.38765,-0.217059 -1.25128,-0.217059 -2.75793,-0.676713 l 0.45966,-2.425952 q 1.28958,0.663945 2.54086,1.008685 1.25128,0.344741 2.40042,0.344741 1.7237,0 2.79623,-0.740554 1.08529,-0.740554 1.08529,-1.876921 0,-1.225744 -2.83453,-1.979066 l -0.2426,-0.06384 -0.80439,-0.204291 q -1.78754,-0.472422 -2.61748,-1.238512 -0.82993,-0.778859 -0.82993,-1.979067 0,-2.285502 1.71094,-3.62616 1.7237,-1.340658 4.67315,-1.340658 1.1619,0 2.25996,0.191523 1.11084,0.191522 2.18336,0.574567 z" />
        <path
           inkscape:connector-curvature="0"
           id="path1234"
           style="font-style:italic;fill:#ffffff;stroke-width:4.90297699"
           d="m 156.721,6.9545928 h 2.34934 l -0.57457,2.9749836 h -2.34934 z m -1.07253,5.5669222 h 2.34934 l -2.79622,14.30035 h -2.34935 z" />
        <path
           inkscape:connector-curvature="0"
           id="path1236"
           style="font-style:italic;fill:#ffffff;stroke-width:4.90297699"
           d="m 163.98608,6.9545928 h 2.34935 l -3.86876,19.8672722 h -2.34934 z" />
        <path
           inkscape:connector-curvature="0"
           id="path1238"
           style="font-style:italic;fill:#ffffff;stroke-width:4.90297699"
           d="m 171.25117,6.9545928 h 2.34935 l -0.57457,2.9749836 h -2.34935 z m -1.07252,5.5669222 h 2.34934 l -2.79623,14.30035 h -2.34934 z" />
        <path
           inkscape:connector-curvature="0"
           id="path1240"
           style="font-style:italic;fill:#ffffff;stroke-width:4.90297699"
           d="m 187.74765,13.070546 -0.47243,2.323807 q -0.8427,-0.612872 -1.80031,-0.919308 -0.94484,-0.306436 -1.9663,-0.306436 -1.1236,0 -2.14505,0.395813 -1.00868,0.395813 -1.69817,1.123599 -1.09806,1.110831 -1.69816,2.604707 -0.60011,1.493875 -0.60011,3.089897 0,1.927993 0.95762,2.872838 0.97038,0.944845 2.93668,0.944845 0.97038,0 2.05567,-0.293668 1.09806,-0.293668 2.2855,-0.881004 l -0.44688,2.323807 q -1.02146,0.421349 -2.10675,0.62564 -1.07253,0.217059 -2.20889,0.217059 -2.84731,0 -4.37949,-1.417267 -1.53218,-1.430035 -1.53218,-4.073046 0,-2.221662 0.79163,-4.085814 0.80439,-1.876921 2.37488,-3.370797 1.07253,-1.021454 2.51533,-1.544949 1.4428,-0.523495 3.15374,-0.523495 0.99591,0 1.97906,0.229827 0.98315,0.217059 2.00461,0.663945 z" />
        <path
           inkscape:connector-curvature="0"
           id="path1242"
           style="font-style:italic;fill:#ffffff;stroke-width:4.90297699"
           d="m 194.7446,27.192142 q -2.51533,0 -3.98366,-1.544949 -1.45558,-1.557716 -1.45558,-4.239032 0,-1.557717 0.49796,-3.166506 0.51073,-1.621558 1.31512,-2.71962 1.26405,-1.710935 2.82177,-2.528098 1.55772,-0.817163 3.52401,-0.817163 2.43872,0 3.9326,1.519412 1.50664,1.519413 1.50664,3.970901 0,1.698167 -0.49795,3.383565 -0.49796,1.685399 -1.30236,2.79623 -1.25128,1.710934 -2.80899,2.528097 -1.55772,0.817163 -3.54956,0.817163 z m -3.00052,-5.86059 q 0,1.940762 0.8044,2.911143 0.81716,0.957613 2.46426,0.957613 2.36211,0 3.90706,-2.055676 1.55771,-2.068443 1.55771,-5.234949 0,-1.851385 -0.82993,-2.79623 -0.82993,-0.944844 -2.43872,-0.944844 -1.32789,0 -2.36211,0.62564 -1.03422,0.612872 -1.85138,1.876921 -0.60011,0.944845 -0.93208,2.157821 -0.31921,1.212976 -0.31921,2.502561 z" />
      </g>
      <rect
         ry="0"
         y="36.558212"
         x="106.61771"
         height="65.608337"
         width="98.541679"
         id="rect1023-2-0-6"
         style="opacity:1;fill:#ffd5d5;stroke:none;stroke-width:0;stroke-miterlimit:4;stroke-dasharray:none" />
      <g
         id="flowRoot1980"
         style="font-style:normal;font-weight:normal;font-size:5.33333349px;line-height:1.25;font-family:sans-serif;letter-spacing:0px;word-spacing:0px;fill:#550000;fill-opacity:1;stroke:none"
         transform="matrix(0.32932747,0,0,0.32932747,-27.747759,-10.284794)"
         aria-label="1. pca -karakter amp  2. meta-analisis -efek komprehensif -dosis optimal">
        <path
           inkscape:connector-curvature="0"
           id="path985"
           style="font-size:26.66666603px;fill:#550000"
           d="m 430.58073,176.89974 h 4.29687 v -14.83073 l -4.67448,0.9375 v -2.39583 l 4.64844,-0.9375 h 2.63021 v 17.22656 h 4.29688 v 2.21354 h -11.19792 z" />
        <path
           inkscape:connector-curvature="0"
           id="path987"
           style="font-size:26.66666603px;fill:#550000"
           d="m 447.09114,175.80599 h 2.7474 v 3.30729 h -2.7474 z" />
        <path
           inkscape:connector-curvature="0"
           id="path989"
           style="font-size:26.66666603px;fill:#550000"
           d="m 466.02344,176.92578 v 7.73438 h -2.40886 v -20.13021 h 2.40886 v 2.21354 q 0.7552,-1.30208 1.90104,-1.92708 1.15885,-0.63802 2.76041,-0.63802 2.65625,0 4.3099,2.10937 1.66667,2.10938 1.66667,5.54688 0,3.43749 -1.66667,5.54687 -1.65365,2.10937 -4.3099,2.10937 -1.60156,0 -2.76041,-0.625 -1.14584,-0.63802 -1.90104,-1.9401 z m 8.15104,-5.09114 q 0,-2.64323 -1.09375,-4.14063 -1.08073,-1.51042 -2.98177,-1.51042 -1.90104,0 -2.99479,1.51042 -1.08073,1.4974 -1.08073,4.14063 0,2.64322 1.08073,4.15364 1.09375,1.4974 2.99479,1.4974 1.90104,0 2.98177,-1.4974 1.09375,-1.51042 1.09375,-4.15364 z" />
        <path
           inkscape:connector-curvature="0"
           id="path991"
           style="font-size:26.66666603px;fill:#550000"
           d="m 491.1276,165.08984 v 2.23959 q -1.01562,-0.5599 -2.04427,-0.83334 -1.01562,-0.28645 -2.05729,-0.28645 -2.33073,0 -3.61979,1.48437 -1.28907,1.47135 -1.28907,4.14063 0,2.66927 1.28907,4.15364 1.28906,1.47135 3.61979,1.47135 1.04167,0 2.05729,-0.27343 1.02865,-0.28646 2.04427,-0.84636 v 2.21354 q -1.0026,0.46875 -2.08333,0.70313 -1.06771,0.23437 -2.27865,0.23437 -3.29427,0 -5.23437,-2.07031 -1.94011,-2.07031 -1.94011,-5.58593 0,-3.56771 1.95313,-5.61198 1.96614,-2.04427 5.3776,-2.04427 1.10677,0 2.16146,0.23437 1.05469,0.22135 2.04427,0.67708 z" />
        <path
           inkscape:connector-curvature="0"
           id="path993"
           style="font-size:26.66666603px;fill:#550000"
           d="m 501.92187,171.78255 q -2.90364,0 -4.02343,0.66406 -1.11979,0.66407 -1.11979,2.26563 0,1.27604 0.83333,2.03125 0.84635,0.74219 2.29167,0.74219 1.99218,0 3.1901,-1.40625 1.21094,-1.41927 1.21094,-3.76302 v -0.53386 z m 4.77865,-0.98958 v 8.32031 h -2.39583 v -2.21354 q -0.82032,1.32812 -2.04427,1.96614 -1.22396,0.625 -2.9948,0.625 -2.23958,0 -3.5677,-1.25 -1.31511,-1.26302 -1.31511,-3.37239 0,-2.46094 1.64063,-3.71094 1.65364,-1.25 4.92187,-1.25 h 3.35938 v -0.23437 q 0,-1.65365 -1.09375,-2.55209 -1.08073,-0.91145 -3.04688,-0.91145 -1.25,0 -2.43489,0.29947 -1.1849,0.29948 -2.27865,0.89844 v -2.21354 q 1.3151,-0.50781 2.55208,-0.75521 1.23698,-0.26041 2.40886,-0.26041 3.16406,0 4.72656,1.64062 1.5625,1.64063 1.5625,4.97396 z" />
        <path
           inkscape:connector-curvature="0"
           id="path995"
           style="font-size:26.66666603px;fill:#550000"
           d="m 428.57552,204.07421 h 7.01823 v 2.13542 h -7.01823 z" />
        <path
           inkscape:connector-curvature="0"
           id="path997"
           style="font-size:26.66666603px;fill:#550000"
           d="m 439.31771,192.18619 h 2.40885 v 11.96615 l 7.14844,-6.28906 h 3.0599 l -7.73438,6.82291 8.0599,7.76042 h -3.125 l -7.40886,-7.1224 v 7.1224 h -2.40885 z" />
        <path
           inkscape:connector-curvature="0"
           id="path999"
           style="font-size:26.66666603px;fill:#550000"
           d="m 461.01042,205.11588 q -2.90365,0 -4.02344,0.66406 -1.11979,0.66406 -1.11979,2.26563 0,1.27604 0.83333,2.03125 0.84635,0.74218 2.29167,0.74218 1.99218,0 3.1901,-1.40625 1.21094,-1.41927 1.21094,-3.76302 v -0.53385 z m 4.77864,-0.98958 v 8.32031 h -2.39583 v -2.21354 q -0.82031,1.32812 -2.04427,1.96614 -1.22396,0.625 -2.99479,0.625 -2.23959,0 -3.56771,-1.25 -1.31511,-1.26302 -1.31511,-3.37239 0,-2.46094 1.64063,-3.71094 1.65364,-1.25 4.92187,-1.25 h 3.35938 v -0.23438 q 0,-1.65364 -1.09375,-2.55208 -1.08073,-0.91146 -3.04688,-0.91146 -1.25,0 -2.43489,0.29948 -1.1849,0.29948 -2.27865,0.89844 v -2.21354 q 1.31511,-0.50781 2.55209,-0.75521 1.23697,-0.26042 2.40885,-0.26042 3.16406,0 4.72656,1.64063 1.5625,1.64062 1.5625,4.97396 z" />
        <path
           inkscape:connector-curvature="0"
           id="path1001"
           style="font-size:26.66666603px;fill:#550000"
           d="m 479.17448,200.10286 q -0.40365,-0.23438 -0.88542,-0.33854 -0.46875,-0.11719 -1.04166,-0.11719 -2.03125,0 -3.125,1.32813 -1.08073,1.3151 -1.08073,3.78906 v 7.68229 h -2.40886 v -14.58333 h 2.40886 v 2.26562 q 0.7552,-1.32812 1.96614,-1.96614 1.21094,-0.65105 2.94271,-0.65105 0.2474,0 0.54688,0.0391 0.29947,0.026 0.66406,0.0911 z" />
        <path
           inkscape:connector-curvature="0"
           id="path1003"
           style="font-size:26.66666603px;fill:#550000"
           d="m 488.3151,205.11588 q -2.90364,0 -4.02344,0.66406 -1.11979,0.66406 -1.11979,2.26563 0,1.27604 0.83334,2.03125 0.84635,0.74218 2.29166,0.74218 1.99219,0 3.19011,-1.40625 1.21093,-1.41927 1.21093,-3.76302 v -0.53385 z m 4.77865,-0.98958 v 8.32031 h -2.39584 v -2.21354 q -0.82031,1.32812 -2.04427,1.96614 -1.22396,0.625 -2.99479,0.625 -2.23958,0 -3.56771,-1.25 -1.3151,-1.26302 -1.3151,-3.37239 0,-2.46094 1.64062,-3.71094 1.65365,-1.25 4.92188,-1.25 h 3.35937 v -0.23438 q 0,-1.65364 -1.09375,-2.55208 -1.08073,-0.91146 -3.04687,-0.91146 -1.25,0 -2.4349,0.29948 -1.18489,0.29948 -2.27864,0.89844 v -2.21354 q 1.3151,-0.50781 2.55208,-0.75521 1.23698,-0.26042 2.40885,-0.26042 3.16407,0 4.72657,1.64063 1.5625,1.64062 1.5625,4.97396 z" />
        <path
           inkscape:connector-curvature="0"
           id="path1005"
           style="font-size:26.66666603px;fill:#550000"
           d="m 497.9375,192.18619 h 2.40885 v 11.96615 l 7.14844,-6.28906 h 3.0599 l -7.73438,6.82291 8.0599,7.76042 h -3.125 l -7.40886,-7.1224 v 7.1224 h -2.40885 z" />
        <path
           inkscape:connector-curvature="0"
           id="path1007"
           style="font-size:26.66666603px;fill:#550000"
           d="m 515.84114,193.72265 v 4.14063 h 4.9349 v 1.86198 h -4.9349 v 7.91666 q 0,1.78386 0.48177,2.29167 0.49479,0.50781 1.99219,0.50781 h 2.46094 v 2.00521 h -2.46094 q -2.77344,0 -3.82813,-1.02865 -1.05468,-1.04166 -1.05468,-3.77604 v -7.91666 h -1.75782 v -1.86198 h 1.75782 v -4.14063 z" />
        <path
           inkscape:connector-curvature="0"
           id="path1009"
           style="font-size:26.66666603px;fill:#550000"
           d="m 536.40103,204.55598 v 1.17188 h -11.01562 q 0.15625,2.47396 1.48437,3.77604 1.34115,1.28906 3.72396,1.28906 1.38021,0 2.66927,-0.33854 1.30209,-0.33854 2.57813,-1.01562 v 2.26562 q -1.28906,0.54688 -2.64323,0.83333 -1.35417,0.28646 -2.7474,0.28646 -3.48958,0 -5.53385,-2.03125 -2.03125,-2.03125 -2.03125,-5.49479 0,-3.58073 1.92708,-5.67708 1.94011,-2.10938 5.22136,-2.10938 2.9427,0 4.64843,1.90105 1.71875,1.88802 1.71875,5.14322 z m -2.39583,-0.70312 q -0.026,-1.96615 -1.10677,-3.13802 -1.06771,-1.17188 -2.83854,-1.17188 -2.00521,0 -3.21615,1.13282 -1.19791,1.13281 -1.38021,3.1901 z" />
        <path
           inkscape:connector-curvature="0"
           id="path1011"
           style="font-size:26.66666603px;fill:#550000"
           d="m 548.78385,200.10286 q -0.40365,-0.23438 -0.88542,-0.33854 -0.46875,-0.11719 -1.04167,-0.11719 -2.03125,0 -3.125,1.32813 -1.08073,1.3151 -1.08073,3.78906 v 7.68229 h -2.40885 v -14.58333 h 2.40885 v 2.26562 q 0.75521,-1.32812 1.96615,-1.96614 1.21094,-0.65105 2.94271,-0.65105 0.24739,0 0.54687,0.0391 0.29948,0.026 0.66407,0.0911 z" />
        <path
           inkscape:connector-curvature="0"
           id="path1013"
           style="font-size:26.66666603px;fill:#550000"
           d="m 566.40103,205.11588 q -2.90364,0 -4.02344,0.66406 -1.11979,0.66406 -1.11979,2.26563 0,1.27604 0.83334,2.03125 0.84635,0.74218 2.29166,0.74218 1.99219,0 3.19011,-1.40625 1.21093,-1.41927 1.21093,-3.76302 v -0.53385 z m 4.77865,-0.98958 v 8.32031 h -2.39584 v -2.21354 q -0.82031,1.32812 -2.04427,1.96614 -1.22396,0.625 -2.99479,0.625 -2.23958,0 -3.56771,-1.25 -1.3151,-1.26302 -1.3151,-3.37239 0,-2.46094 1.64062,-3.71094 1.65365,-1.25 4.92188,-1.25 h 3.35937 v -0.23438 q 0,-1.65364 -1.09375,-2.55208 -1.08073,-0.91146 -3.04687,-0.91146 -1.25,0 -2.4349,0.29948 -1.18489,0.29948 -2.27864,0.89844 v -2.21354 q 1.3151,-0.50781 2.55208,-0.75521 1.23698,-0.26042 2.40885,-0.26042 3.16407,0 4.72657,1.64063 1.5625,1.64062 1.5625,4.97396 z" />
        <path
           inkscape:connector-curvature="0"
           id="path1015"
           style="font-size:26.66666603px;fill:#550000"
           d="m 587.46875,200.66276 q 0.89844,-1.61459 2.14844,-2.38282 1.25,-0.76823 2.94271,-0.76823 2.27864,0 3.51562,1.60157 1.23698,1.58854 1.23698,4.53125 v 8.80208 h -2.40885 v -8.72396 q 0,-2.09635 -0.74219,-3.11198 -0.74219,-1.01562 -2.26563,-1.01562 -1.86198,0 -2.94271,1.23698 -1.08072,1.23698 -1.08072,3.37239 v 8.24219 h -2.40886 v -8.72396 q 0,-2.10937 -0.74219,-3.11198 -0.74218,-1.01562 -2.29166,-1.01562 -1.83594,0 -2.91667,1.25 -1.08073,1.23698 -1.08073,3.35937 v 8.24219 h -2.40885 v -14.58333 h 2.40885 v 2.26562 q 0.82031,-1.34114 1.96615,-1.97917 1.14583,-0.63802 2.72135,-0.63802 1.58854,0 2.69531,0.8073 1.1198,0.80729 1.65365,2.34375 z" />
        <path
           inkscape:connector-curvature="0"
           id="path1017"
           style="font-size:26.66666603px;fill:#550000"
           d="m 604.40885,210.25911 v 7.73437 H 602 v -20.1302 h 2.40885 v 2.21354 q 0.75521,-1.30209 1.90105,-1.92709 1.15885,-0.63802 2.76041,-0.63802 2.65625,0 4.3099,2.10938 1.66666,2.10937 1.66666,5.54687 0,3.4375 -1.66666,5.54688 -1.65365,2.10937 -4.3099,2.10937 -1.60156,0 -2.76041,-0.625 -1.14584,-0.63802 -1.90105,-1.9401 z m 8.15105,-5.09115 q 0,-2.64323 -1.09375,-4.14062 -1.08073,-1.51042 -2.98178,-1.51042 -1.90104,0 -2.99479,1.51042 -1.08073,1.49739 -1.08073,4.14062 0,2.64323 1.08073,4.15365 1.09375,1.49739 2.99479,1.49739 1.90105,0 2.98178,-1.49739 1.09375,-1.51042 1.09375,-4.15365 z" />
        <path
           inkscape:connector-curvature="0"
           id="path1019"
           style="font-size:26.66666603px;fill:#550000"
           d="m 432.39062,250.23307 h 9.17969 v 2.21354 h -12.34375 v -2.21354 q 1.4974,-1.54948 4.07552,-4.15365 2.59115,-2.61719 3.25521,-3.37239 1.26302,-1.41927 1.75781,-2.39584 0.50782,-0.98958 0.50782,-1.9401 0,-1.54948 -1.09375,-2.52604 -1.08073,-0.97657 -2.82552,-0.97657 -1.23698,0 -2.61719,0.42969 -1.36719,0.42969 -2.92969,1.30209 v -2.65625 q 1.58854,-0.63803 2.96875,-0.96355 1.38021,-0.32552 2.52604,-0.32552 3.02084,0 4.81771,1.51042 1.79688,1.51042 1.79688,4.03646 0,1.19791 -0.45573,2.27864 -0.44271,1.06771 -1.62761,2.52604 -0.32552,0.37761 -2.07031,2.1875 -1.74479,1.79688 -4.92188,5.03907 z" />
        <path
           inkscape:connector-curvature="0"
           id="path1021"
           style="font-size:26.66666603px;fill:#550000"
           d="m 447.09114,249.13932 h 2.7474 v 3.30729 h -2.7474 z" />
        <path
           inkscape:connector-curvature="0"
           id="path1023"
           style="font-size:26.66666603px;fill:#550000"
           d="m 475.05989,240.66276 q 0.89844,-1.61459 2.14844,-2.38282 1.25,-0.76823 2.94271,-0.76823 2.27865,0 3.51562,1.60157 1.23698,1.58854 1.23698,4.53125 v 8.80208 h -2.40885 v -8.72396 q 0,-2.09635 -0.74219,-3.11198 -0.74219,-1.01562 -2.26562,-1.01562 -1.86198,0 -2.94271,1.23698 -1.08073,1.23698 -1.08073,3.37239 v 8.24219 h -2.40885 v -8.72396 q 0,-2.10937 -0.74219,-3.11198 -0.74219,-1.01562 -2.29167,-1.01562 -1.83594,0 -2.91666,1.25 -1.08073,1.23698 -1.08073,3.35937 v 8.24219 h -2.40886 v -14.58333 h 2.40886 v 2.26562 q 0.82031,-1.34114 1.96614,-1.97917 1.14584,-0.63802 2.72136,-0.63802 1.58854,0 2.69531,0.8073 1.11979,0.80729 1.65364,2.34375 z" />
        <path
           inkscape:connector-curvature="0"
           id="path1025"
           style="font-size:26.66666603px;fill:#550000"
           d="m 502.15625,244.55598 v 1.17188 h -11.01563 q 0.15625,2.47396 1.48438,3.77604 1.34114,1.28906 3.72396,1.28906 1.38021,0 2.66927,-0.33854 1.30208,-0.33854 2.57812,-1.01562 v 2.26562 q -1.28906,0.54688 -2.64323,0.83333 -1.35416,0.28646 -2.74739,0.28646 -3.48959,0 -5.53386,-2.03125 -2.03125,-2.03125 -2.03125,-5.49479 0,-3.58073 1.92709,-5.67708 1.9401,-2.10938 5.22135,-2.10938 2.94271,0 4.64844,1.90105 1.71875,1.88802 1.71875,5.14322 z m -2.39583,-0.70312 q -0.026,-1.96615 -1.10678,-3.13802 -1.0677,-1.17188 -2.83854,-1.17188 -2.00521,0 -3.21614,1.13282 -1.19792,1.13281 -1.38021,3.1901 z" />
        <path
           inkscape:connector-curvature="0"
           id="path1027"
           style="font-size:26.66666603px;fill:#550000"
           d="m 508.45833,233.72265 v 4.14063 h 4.93489 v 1.86198 h -4.93489 v 7.91666 q 0,1.78386 0.48177,2.29167 0.49479,0.50781 1.99219,0.50781 h 2.46093 v 2.00521 h -2.46093 q -2.77344,0 -3.82813,-1.02865 -1.05469,-1.04166 -1.05469,-3.77604 v -7.91666 h -1.75781 v -1.86198 h 1.75781 v -4.14063 z" />
        <path
           inkscape:connector-curvature="0"
           id="path1029"
           style="font-size:26.66666603px;fill:#550000"
           d="m 523.17187,245.11588 q -2.90364,0 -4.02343,0.66406 -1.11979,0.66406 -1.11979,2.26563 0,1.27604 0.83333,2.03125 0.84635,0.74218 2.29167,0.74218 1.99218,0 3.1901,-1.40625 1.21094,-1.41927 1.21094,-3.76302 v -0.53385 z m 4.77865,-0.98958 v 8.32031 h -2.39583 v -2.21354 q -0.82032,1.32812 -2.04427,1.96614 -1.22396,0.625 -2.9948,0.625 -2.23958,0 -3.5677,-1.25 -1.31511,-1.26302 -1.31511,-3.37239 0,-2.46094 1.64063,-3.71094 1.65364,-1.25 4.92187,-1.25 h 3.35938 v -0.23438 q 0,-1.65364 -1.09375,-2.55208 -1.08073,-0.91146 -3.04688,-0.91146 -1.25,0 -2.43489,0.29948 -1.1849,0.29948 -2.27865,0.89844 v -2.21354 q 1.3151,-0.50781 2.55208,-0.75521 1.23698,-0.26042 2.40886,-0.26042 3.16406,0 4.72656,1.64063 1.5625,1.64062 1.5625,4.97396 z" />
        <path
           inkscape:connector-curvature="0"
           id="path1031"
           style="font-size:26.66666603px;fill:#550000"
           d="m 531.67447,244.07421 h 7.01823 v 2.13542 h -7.01823 z" />
        <path
           inkscape:connector-curvature="0"
           id="path1033"
           style="font-size:26.66666603px;fill:#550000"
           d="m 549.13541,245.11588 q -2.90364,0 -4.02343,0.66406 -1.1198,0.66406 -1.1198,2.26563 0,1.27604 0.83334,2.03125 0.84635,0.74218 2.29166,0.74218 1.99219,0 3.19011,-1.40625 1.21094,-1.41927 1.21094,-3.76302 v -0.53385 z m 4.77865,-0.98958 v 8.32031 h -2.39583 v -2.21354 q -0.82032,1.32812 -2.04427,1.96614 -1.22396,0.625 -2.9948,0.625 -2.23958,0 -3.5677,-1.25 -1.31511,-1.26302 -1.31511,-3.37239 0,-2.46094 1.64063,-3.71094 1.65364,-1.25 4.92187,-1.25 h 3.35938 v -0.23438 q 0,-1.65364 -1.09375,-2.55208 -1.08073,-0.91146 -3.04688,-0.91146 -1.25,0 -2.43489,0.29948 -1.1849,0.29948 -2.27865,0.89844 v -2.21354 q 1.3151,-0.50781 2.55208,-0.75521 1.23698,-0.26042 2.40886,-0.26042 3.16406,0 4.72656,1.64063 1.5625,1.64062 1.5625,4.97396 z" />
        <path
           inkscape:connector-curvature="0"
           id="path1035"
           style="font-size:26.66666603px;fill:#550000"
           d="m 570.97135,243.64453 v 8.80208 h -2.39583 v -8.72396 q 0,-2.07031 -0.80729,-3.09896 -0.80729,-1.02864 -2.42188,-1.02864 -1.9401,0 -3.05989,1.23698 -1.11979,1.23698 -1.11979,3.37239 v 8.24219 h -2.40886 v -14.58333 h 2.40886 v 2.26562 q 0.85937,-1.3151 2.01823,-1.96614 1.17187,-0.65105 2.69531,-0.65105 2.51302,0 3.80208,1.5625 1.28906,1.54948 1.28906,4.57032 z" />
        <path
           inkscape:connector-curvature="0"
           id="path1037"
           style="font-size:26.66666603px;fill:#550000"
           d="m 582.37759,245.11588 q -2.90364,0 -4.02343,0.66406 -1.1198,0.66406 -1.1198,2.26563 0,1.27604 0.83334,2.03125 0.84635,0.74218 2.29166,0.74218 1.99219,0 3.19011,-1.40625 1.21094,-1.41927 1.21094,-3.76302 v -0.53385 z m 4.77865,-0.98958 v 8.32031 h -2.39583 v -2.21354 q -0.82032,1.32812 -2.04427,1.96614 -1.22396,0.625 -2.9948,0.625 -2.23958,0 -3.5677,-1.25 -1.31511,-1.26302 -1.31511,-3.37239 0,-2.46094 1.64063,-3.71094 1.65364,-1.25 4.92187,-1.25 h 3.35938 v -0.23438 q 0,-1.65364 -1.09375,-2.55208 -1.08073,-0.91146 -3.04688,-0.91146 -1.25,0 -2.43489,0.29948 -1.1849,0.29948 -2.27865,0.89844 v -2.21354 q 1.3151,-0.50781 2.55208,-0.75521 1.23698,-0.26042 2.40886,-0.26042 3.16406,0 4.72656,1.64063 1.5625,1.64062 1.5625,4.97396 z" />
        <path
           inkscape:connector-curvature="0"
           id="path1039"
           style="font-size:26.66666603px;fill:#550000"
           d="m 592.09115,232.18619 h 2.39583 v 20.26042 h -2.39583 z" />
        <path
           inkscape:connector-curvature="0"
           id="path1041"
           style="font-size:26.66666603px;fill:#550000"
           d="m 599.49999,237.86328 h 2.39583 v 14.58333 h -2.39583 z m 0,-5.67709 h 2.39583 v 3.03386 h -2.39583 z" />
        <path
           inkscape:connector-curvature="0"
           id="path1043"
           style="font-size:26.66666603px;fill:#550000"
           d="m 616.20572,238.29296 v 2.26563 q -1.01562,-0.52083 -2.10937,-0.78125 -1.09375,-0.26042 -2.26563,-0.26042 -1.78385,0 -2.68229,0.54688 -0.88541,0.54687 -0.88541,1.64062 0,0.83334 0.63802,1.31511 0.63802,0.46875 2.5651,0.89843 l 0.82031,0.18229 q 2.55209,0.54688 3.61979,1.54948 1.08073,0.98959 1.08073,2.77344 0,2.03125 -1.61458,3.21615 -1.60156,1.18489 -4.41406,1.18489 -1.17188,0 -2.44792,-0.23437 -1.26302,-0.22136 -2.66927,-0.67709 v -2.47395 q 1.32813,0.6901 2.61719,1.04166 1.28906,0.33854 2.55208,0.33854 1.69271,0 2.60417,-0.57291 0.91146,-0.58594 0.91146,-1.64063 0,-0.97656 -0.66407,-1.49739 -0.65104,-0.52084 -2.8776,-1.00261 l -0.83333,-0.19531 q -2.22657,-0.46875 -3.21615,-1.43229 -0.98958,-0.97656 -0.98958,-2.66927 0,-2.05729 1.45833,-3.17708 1.45833,-1.1198 4.14063,-1.1198 1.32812,0 2.5,0.19532 1.17187,0.19531 2.16145,0.58593 z" />
        <path
           inkscape:connector-curvature="0"
           id="path1045"
           style="font-size:26.66666603px;fill:#550000"
           d="m 620.80208,237.86328 h 2.39584 v 14.58333 h -2.39584 z m 0,-5.67709 h 2.39584 v 3.03386 h -2.39584 z" />
        <path
           inkscape:connector-curvature="0"
           id="path1047"
           style="font-size:26.66666603px;fill:#550000"
           d="m 637.5078,238.29296 v 2.26563 q -1.01562,-0.52083 -2.10937,-0.78125 -1.09375,-0.26042 -2.26563,-0.26042 -1.78385,0 -2.68229,0.54688 -0.88542,0.54687 -0.88542,1.64062 0,0.83334 0.63802,1.31511 0.63803,0.46875 2.56511,0.89843 l 0.82031,0.18229 q 2.55208,0.54688 3.61979,1.54948 1.08073,0.98959 1.08073,2.77344 0,2.03125 -1.61458,3.21615 -1.60156,1.18489 -4.41406,1.18489 -1.17188,0 -2.44792,-0.23437 -1.26302,-0.22136 -2.66927,-0.67709 v -2.47395 q 1.32812,0.6901 2.61719,1.04166 1.28906,0.33854 2.55208,0.33854 1.69271,0 2.60417,-0.57291 0.91145,-0.58594 0.91145,-1.64063 0,-0.97656 -0.66406,-1.49739 -0.65104,-0.52084 -2.8776,-1.00261 l -0.83334,-0.19531 q -2.22656,-0.46875 -3.21614,-1.43229 -0.98958,-0.97656 -0.98958,-2.66927 0,-2.05729 1.45833,-3.17708 1.45833,-1.1198 4.14062,-1.1198 1.32813,0 2.5,0.19532 1.17188,0.19531 2.16146,0.58593 z" />
        <path
           inkscape:connector-curvature="0"
           id="path1049"
           style="font-size:26.66666603px;fill:#550000"
           d="m 428.57552,277.40754 h 7.01823 v 2.13542 h -7.01823 z" />
        <path
           inkscape:connector-curvature="0"
           id="path1051"
           style="font-size:26.66666603px;fill:#550000"
           d="m 451.88281,277.88931 v 1.17188 h -11.01562 q 0.15625,2.47396 1.48437,3.77604 1.34115,1.28906 3.72396,1.28906 1.38021,0 2.66927,-0.33854 1.30208,-0.33854 2.57813,-1.01563 v 2.26563 q -1.28907,0.54687 -2.64323,0.83333 -1.35417,0.28646 -2.7474,0.28646 -3.48958,0 -5.53385,-2.03125 -2.03125,-2.03125 -2.03125,-5.49479 0,-3.58073 1.92708,-5.67708 1.9401,-2.10938 5.22135,-2.10938 2.94271,0 4.64844,1.90104 1.71875,1.88802 1.71875,5.14323 z m -2.39583,-0.70312 q -0.026,-1.96615 -1.10677,-3.13802 -1.06771,-1.17188 -2.83854,-1.17188 -2.00521,0 -3.21615,1.13281 -1.19792,1.13282 -1.38021,3.19011 z" />
        <path
           inkscape:connector-curvature="0"
           id="path1053"
           style="font-size:26.66666603px;fill:#550000"
           d="m 463.19792,265.51952 v 1.99219 h -2.29167 q -1.28906,0 -1.79688,0.52083 -0.49479,0.52084 -0.49479,1.875 v 1.28906 h 3.94531 v 1.86198 h -3.94531 v 12.72136 h -2.40885 v -12.72136 h -2.29167 v -1.86198 h 2.29167 v -1.01562 q 0,-2.4349 1.13281,-3.54167 1.13281,-1.11979 3.59375,-1.11979 z" />
        <path
           inkscape:connector-curvature="0"
           id="path1055"
           style="font-size:26.66666603px;fill:#550000"
           d="m 477.67708,277.88931 v 1.17188 h -11.01562 q 0.15625,2.47396 1.48437,3.77604 1.34115,1.28906 3.72396,1.28906 1.38021,0 2.66927,-0.33854 1.30208,-0.33854 2.57812,-1.01563 v 2.26563 q -1.28906,0.54687 -2.64322,0.83333 -1.35417,0.28646 -2.7474,0.28646 -3.48958,0 -5.53385,-2.03125 -2.03125,-2.03125 -2.03125,-5.49479 0,-3.58073 1.92708,-5.67708 1.9401,-2.10938 5.22135,-2.10938 2.94271,0 4.64844,1.90104 1.71875,1.88802 1.71875,5.14323 z m -2.39583,-0.70312 q -0.026,-1.96615 -1.10677,-3.13802 -1.06771,-1.17188 -2.83855,-1.17188 -2.0052,0 -3.21614,1.13281 -1.19792,1.13282 -1.38021,3.19011 z" />
        <path
           inkscape:connector-curvature="0"
           id="path1057"
           style="font-size:26.66666603px;fill:#550000"
           d="m 481.51823,265.51952 h 2.40885 v 11.96615 l 7.14844,-6.28907 h 3.05989 l -7.73437,6.82292 8.05989,7.76042 h -3.125 l -7.40885,-7.1224 v 7.1224 h -2.40885 z" />
        <path
           inkscape:connector-curvature="0"
           id="path1059"
           style="font-size:26.66666603px;fill:#550000"
           d="m 505.4375,265.51952 h 2.40885 v 11.96615 l 7.14844,-6.28907 h 3.0599 l -7.73438,6.82292 8.0599,7.76042 h -3.125 l -7.40886,-7.1224 v 7.1224 h -2.40885 z" />
        <path
           inkscape:connector-curvature="0"
           id="path1061"
           style="font-size:26.66666603px;fill:#550000"
           d="m 525.67187,272.87629 q -1.92708,0 -3.04687,1.51042 -1.11979,1.49739 -1.11979,4.11458 0,2.61719 1.10677,4.12761 1.11979,1.49739 3.05989,1.49739 1.91407,0 3.03386,-1.51042 1.11979,-1.51041 1.11979,-4.11458 0,-2.59114 -1.11979,-4.10156 -1.11979,-1.52344 -3.03386,-1.52344 z m 0,-2.03125 q 3.125,0 4.90886,2.03125 1.78385,2.03125 1.78385,5.625 0,3.58073 -1.78385,5.625 -1.78386,2.03125 -4.90886,2.03125 -3.13802,0 -4.92187,-2.03125 -1.77083,-2.04427 -1.77083,-5.625 0,-3.59375 1.77083,-5.625 1.78385,-2.03125 4.92187,-2.03125 z" />
        <path
           inkscape:connector-curvature="0"
           id="path1063"
           style="font-size:26.66666603px;fill:#550000"
           d="m 547.6901,273.99608 q 0.89844,-1.61458 2.14844,-2.38281 1.25,-0.76823 2.94271,-0.76823 2.27864,0 3.51562,1.60156 1.23698,1.58855 1.23698,4.53125 v 8.80209 H 555.125 v -8.72396 q 0,-2.09636 -0.74219,-3.11198 -0.74219,-1.01563 -2.26563,-1.01563 -1.86197,0 -2.9427,1.23698 -1.08073,1.23698 -1.08073,3.3724 v 8.24219 h -2.40886 v -8.72396 q 0,-2.10938 -0.74218,-3.11198 -0.74219,-1.01563 -2.29167,-1.01563 -1.83594,0 -2.91667,1.25 -1.08073,1.23698 -1.08073,3.35938 v 8.24219 h -2.40885 V 271.1966 h 2.40885 v 2.26563 q 0.82032,-1.34115 1.96615,-1.97917 1.14583,-0.63802 2.72135,-0.63802 1.58854,0 2.69532,0.80729 1.11979,0.80729 1.65364,2.34375 z" />
        <path
           inkscape:connector-curvature="0"
           id="path1065"
           style="font-size:26.66666603px;fill:#550000"
           d="m 564.63021,283.59244 v 7.73437 h -2.40885 V 271.1966 h 2.40885 v 2.21355 q 0.75521,-1.30209 1.90104,-1.92709 1.15886,-0.63802 2.76042,-0.63802 2.65625,0 4.3099,2.10938 1.66666,2.10937 1.66666,5.54687 0,3.4375 -1.66666,5.54688 -1.65365,2.10937 -4.3099,2.10937 -1.60156,0 -2.76042,-0.625 -1.14583,-0.63802 -1.90104,-1.9401 z m 8.15104,-5.09115 q 0,-2.64323 -1.09375,-4.14062 -1.08072,-1.51042 -2.98177,-1.51042 -1.90104,0 -2.99479,1.51042 -1.08073,1.49739 -1.08073,4.14062 0,2.64323 1.08073,4.15365 1.09375,1.49739 2.99479,1.49739 1.90105,0 2.98177,-1.49739 1.09375,-1.51042 1.09375,-4.15365 z" />
        <path
           inkscape:connector-curvature="0"
           id="path1067"
           style="font-size:26.66666603px;fill:#550000"
           d="m 587.6901,273.43619 q -0.40364,-0.23438 -0.88541,-0.33854 -0.46875,-0.11719 -1.04167,-0.11719 -2.03125,0 -3.125,1.32812 -1.08073,1.31511 -1.08073,3.78907 v 7.68229 h -2.40885 V 271.1966 h 2.40885 v 2.26563 q 0.75521,-1.32813 1.96615,-1.96615 1.21093,-0.65104 2.94271,-0.65104 0.24739,0 0.54687,0.0391 0.29948,0.026 0.66406,0.0912 z" />
        <path
           inkscape:connector-curvature="0"
           id="path1069"
           style="font-size:26.66666603px;fill:#550000"
           d="m 602.09114,277.88931 v 1.17188 h -11.01563 q 0.15625,2.47396 1.48438,3.77604 1.34114,1.28906 3.72395,1.28906 1.38021,0 2.66927,-0.33854 1.30209,-0.33854 2.57813,-1.01563 v 2.26563 q -1.28906,0.54687 -2.64323,0.83333 -1.35417,0.28646 -2.7474,0.28646 -3.48958,0 -5.53385,-2.03125 -2.03125,-2.03125 -2.03125,-5.49479 0,-3.58073 1.92708,-5.67708 1.94011,-2.10938 5.22136,-2.10938 2.94271,0 4.64844,1.90104 1.71875,1.88802 1.71875,5.14323 z m -2.39584,-0.70312 q -0.026,-1.96615 -1.10677,-3.13802 -1.06771,-1.17188 -2.83854,-1.17188 -2.00521,0 -3.21615,1.13281 -1.19791,1.13282 -1.3802,3.19011 z" />
        <path
           inkscape:connector-curvature="0"
           id="path1071"
           style="font-size:26.66666603px;fill:#550000"
           d="m 618.14582,276.97785 v 8.80209 h -2.39583 v -8.72396 q 0,-2.07031 -0.80729,-3.09896 -0.80729,-1.02865 -2.42188,-1.02865 -1.9401,0 -3.05989,1.23698 -1.11979,1.23698 -1.11979,3.3724 v 8.24219 h -2.40886 v -20.26042 h 2.40886 v 7.94271 q 0.85937,-1.3151 2.01822,-1.96615 1.17188,-0.65104 2.69532,-0.65104 2.51302,0 3.80208,1.5625 1.28906,1.54948 1.28906,4.57031 z" />
        <path
           inkscape:connector-curvature="0"
           id="path1073"
           style="font-size:26.66666603px;fill:#550000"
           d="m 635.39843,277.88931 v 1.17188 h -11.01562 q 0.15625,2.47396 1.48437,3.77604 1.34115,1.28906 3.72396,1.28906 1.38021,0 2.66927,-0.33854 1.30208,-0.33854 2.57813,-1.01563 v 2.26563 q -1.28907,0.54687 -2.64323,0.83333 -1.35417,0.28646 -2.7474,0.28646 -3.48958,0 -5.53385,-2.03125 -2.03125,-2.03125 -2.03125,-5.49479 0,-3.58073 1.92708,-5.67708 1.9401,-2.10938 5.22135,-2.10938 2.94271,0 4.64844,1.90104 1.71875,1.88802 1.71875,5.14323 z m -2.39583,-0.70312 q -0.026,-1.96615 -1.10677,-3.13802 -1.06771,-1.17188 -2.83854,-1.17188 -2.00521,0 -3.21615,1.13281 -1.19792,1.13282 -1.38021,3.19011 z" />
        <path
           inkscape:connector-curvature="0"
           id="path1075"
           style="font-size:26.66666603px;fill:#550000"
           d="m 651.45312,276.97785 v 8.80209 h -2.39583 v -8.72396 q 0,-2.07031 -0.8073,-3.09896 -0.80729,-1.02865 -2.42187,-1.02865 -1.9401,0 -3.0599,1.23698 -1.11979,1.23698 -1.11979,3.3724 v 8.24219 h -2.40885 V 271.1966 h 2.40885 v 2.26563 q 0.85938,-1.3151 2.01823,-1.96615 1.17188,-0.65104 2.69531,-0.65104 2.51302,0 3.80209,1.5625 1.28906,1.54948 1.28906,4.57031 z" />
        <path
           inkscape:connector-curvature="0"
           id="path1077"
           style="font-size:26.66666603px;fill:#550000"
           d="m 665.52865,271.62629 v 2.26563 q -1.01563,-0.52084 -2.10938,-0.78125 -1.09375,-0.26042 -2.26562,-0.26042 -1.78386,0 -2.6823,0.54687 -0.88541,0.54688 -0.88541,1.64063 0,0.83333 0.63802,1.3151 0.63802,0.46875 2.5651,0.89844 l 0.82031,0.18229 q 2.55209,0.54688 3.6198,1.54948 1.08073,0.98959 1.08073,2.77344 0,2.03125 -1.61459,3.21615 -1.60156,1.18489 -4.41406,1.18489 -1.17188,0 -2.44792,-0.23437 -1.26302,-0.22136 -2.66927,-0.67709 v -2.47396 q 1.32813,0.69011 2.61719,1.04167 1.28906,0.33854 2.55208,0.33854 1.69271,0 2.60417,-0.57291 0.91146,-0.58594 0.91146,-1.64063 0,-0.97656 -0.66406,-1.49739 -0.65105,-0.52084 -2.87761,-1.00261 l -0.83333,-0.19531 q -2.22656,-0.46875 -3.21615,-1.43229 -0.98958,-0.97657 -0.98958,-2.66927 0,-2.0573 1.45833,-3.17709 1.45834,-1.11979 4.14063,-1.11979 1.32812,0 2.5,0.19531 1.17187,0.19532 2.16146,0.58594 z" />
        <path
           inkscape:connector-curvature="0"
           id="path1079"
           style="font-size:26.66666603px;fill:#550000"
           d="m 670.12499,271.1966 h 2.39583 v 14.58334 h -2.39583 z m 0,-5.67708 h 2.39583 v 3.03386 h -2.39583 z" />
        <path
           inkscape:connector-curvature="0"
           id="path1081"
           style="font-size:26.66666603px;fill:#550000"
           d="m 684.91666,265.51952 v 1.99219 h -2.29167 q -1.28906,0 -1.79687,0.52083 -0.49479,0.52084 -0.49479,1.875 v 1.28906 h 3.94531 v 1.86198 h -3.94531 v 12.72136 h -2.40886 v -12.72136 h -2.29166 v -1.86198 h 2.29166 v -1.01562 q 0,-2.4349 1.13282,-3.54167 1.13281,-1.11979 3.59375,-1.11979 z" />
        <path
           inkscape:connector-curvature="0"
           id="path1083"
           style="font-size:26.66666603px;fill:#550000"
           d="m 428.57552,310.74089 h 7.01823 v 2.13541 h -7.01823 z" />
        <path
           inkscape:connector-curvature="0"
           id="path1085"
           style="font-size:26.66666603px;fill:#550000"
           d="m 449.00521,306.74349 v -7.89063 h 2.39583 v 20.26042 h -2.39583 v -2.1875 q -0.75521,1.30208 -1.91406,1.9401 -1.14584,0.625 -2.76042,0.625 -2.64323,0 -4.3099,-2.10937 -1.65364,-2.10938 -1.65364,-5.54687 0,-3.4375 1.65364,-5.54688 1.66667,-2.10937 4.3099,-2.10937 1.61458,0 2.76042,0.63802 1.15885,0.625 1.91406,1.92708 z m -8.16406,5.09115 q 0,2.64322 1.08072,4.15364 1.09375,1.4974 2.9948,1.4974 1.90104,0 2.99479,-1.4974 1.09375,-1.51042 1.09375,-4.15364 0,-2.64323 -1.09375,-4.14063 -1.09375,-1.51042 -2.99479,-1.51042 -1.90105,0 -2.9948,1.51042 -1.08072,1.4974 -1.08072,4.14063 z" />
        <path
           inkscape:connector-curvature="0"
           id="path1087"
           style="font-size:26.66666603px;fill:#550000"
           d="m 461.98698,306.20964 q -1.92709,0 -3.04688,1.51041 -1.11979,1.4974 -1.11979,4.11459 0,2.61718 1.10677,4.1276 1.11979,1.49739 3.0599,1.49739 1.91406,0 3.03385,-1.51041 1.11979,-1.51042 1.11979,-4.11458 0,-2.59115 -1.11979,-4.10157 -1.11979,-1.52343 -3.03385,-1.52343 z m 0,-2.03125 q 3.125,0 4.90885,2.03125 1.78385,2.03125 1.78385,5.625 0,3.58072 -1.78385,5.62499 -1.78385,2.03125 -4.90885,2.03125 -3.13802,0 -4.92188,-2.03125 -1.77083,-2.04427 -1.77083,-5.62499 0,-3.59375 1.77083,-5.625 1.78386,-2.03125 4.92188,-2.03125 z" />
        <path
           inkscape:connector-curvature="0"
           id="path1089"
           style="font-size:26.66666603px;fill:#550000"
           d="m 481.94792,304.95964 v 2.26562 q -1.01563,-0.52083 -2.10938,-0.78125 -1.09375,-0.26042 -2.26562,-0.26042 -1.78386,0 -2.6823,0.54688 -0.88541,0.54687 -0.88541,1.64062 0,0.83334 0.63802,1.31511 0.63802,0.46875 2.5651,0.89844 l 0.82031,0.18229 q 2.55209,0.54687 3.6198,1.54948 1.08073,0.98958 1.08073,2.77343 0,2.03125 -1.61459,3.21615 -1.60156,1.18489 -4.41406,1.18489 -1.17188,0 -2.44792,-0.23437 -1.26302,-0.22135 -2.66927,-0.67708 v -2.47396 q 1.32813,0.6901 2.61719,1.04166 1.28906,0.33855 2.55208,0.33855 1.69271,0 2.60417,-0.57292 0.91146,-0.58594 0.91146,-1.64063 0,-0.97656 -0.66406,-1.49739 -0.65105,-0.52083 -2.87761,-1.0026 l -0.83333,-0.19532 q -2.22656,-0.46875 -3.21615,-1.43229 -0.98958,-0.97656 -0.98958,-2.66927 0,-2.05729 1.45833,-3.17708 1.45834,-1.11979 4.14063,-1.11979 1.32812,0 2.5,0.19531 1.17187,0.19531 2.16146,0.58594 z" />
        <path
           inkscape:connector-curvature="0"
           id="path1091"
           style="font-size:26.66666603px;fill:#550000"
           d="m 486.54427,304.52995 h 2.39583 v 14.58333 h -2.39583 z m 0,-5.67709 h 2.39583 v 3.03386 h -2.39583 z" />
        <path
           inkscape:connector-curvature="0"
           id="path1093"
           style="font-size:26.66666603px;fill:#550000"
           d="m 503.25,304.95964 v 2.26562 q -1.01563,-0.52083 -2.10938,-0.78125 -1.09375,-0.26042 -2.26562,-0.26042 -1.78386,0 -2.68229,0.54688 -0.88542,0.54687 -0.88542,1.64062 0,0.83334 0.63802,1.31511 0.63802,0.46875 2.5651,0.89844 l 0.82032,0.18229 q 2.55208,0.54687 3.61979,1.54948 1.08073,0.98958 1.08073,2.77343 0,2.03125 -1.61459,3.21615 -1.60156,1.18489 -4.41406,1.18489 -1.17187,0 -2.44792,-0.23437 -1.26302,-0.22135 -2.66927,-0.67708 v -2.47396 q 1.32813,0.6901 2.61719,1.04166 1.28906,0.33855 2.55208,0.33855 1.69271,0 2.60417,-0.57292 0.91146,-0.58594 0.91146,-1.64063 0,-0.97656 -0.66406,-1.49739 -0.65104,-0.52083 -2.87761,-1.0026 l -0.83333,-0.19532 q -2.22656,-0.46875 -3.21615,-1.43229 -0.98958,-0.97656 -0.98958,-2.66927 0,-2.05729 1.45833,-3.17708 1.45834,-1.11979 4.14063,-1.11979 1.32812,0 2.5,0.19531 1.17187,0.19531 2.16146,0.58594 z" />
        <path
           inkscape:connector-curvature="0"
           id="path1095"
           style="font-size:26.66666603px;fill:#550000"
           d="m 521.97395,306.20964 q -1.92708,0 -3.04687,1.51041 -1.11979,1.4974 -1.11979,4.11459 0,2.61718 1.10677,4.1276 1.11979,1.49739 3.05989,1.49739 1.91407,0 3.03386,-1.51041 1.11979,-1.51042 1.11979,-4.11458 0,-2.59115 -1.11979,-4.10157 -1.11979,-1.52343 -3.03386,-1.52343 z m 0,-2.03125 q 3.125,0 4.90886,2.03125 1.78385,2.03125 1.78385,5.625 0,3.58072 -1.78385,5.62499 -1.78386,2.03125 -4.90886,2.03125 -3.13802,0 -4.92187,-2.03125 -1.77084,-2.04427 -1.77084,-5.62499 0,-3.59375 1.77084,-5.625 1.78385,-2.03125 4.92187,-2.03125 z" />
        <path
           inkscape:connector-curvature="0"
           id="path1097"
           style="font-size:26.66666603px;fill:#550000"
           d="m 534.95572,316.92578 v 7.73438 h -2.40885 v -20.13021 h 2.40885 v 2.21354 q 0.75521,-1.30208 1.90104,-1.92708 1.15886,-0.63802 2.76042,-0.63802 2.65625,0 4.3099,2.10937 1.66666,2.10938 1.66666,5.54688 0,3.43749 -1.66666,5.54687 -1.65365,2.10937 -4.3099,2.10937 -1.60156,0 -2.76042,-0.625 -1.14583,-0.63802 -1.90104,-1.9401 z m 8.15104,-5.09114 q 0,-2.64323 -1.09375,-4.14063 -1.08073,-1.51042 -2.98177,-1.51042 -1.90104,0 -2.99479,1.51042 -1.08073,1.4974 -1.08073,4.14063 0,2.64322 1.08073,4.15364 1.09375,1.4974 2.99479,1.4974 1.90104,0 2.98177,-1.4974 1.09375,-1.51042 1.09375,-4.15364 z" />
        <path
           inkscape:connector-curvature="0"
           id="path1099"
           style="font-size:26.66666603px;fill:#550000"
           d="m 551.93489,300.38932 v 4.14063 h 4.9349 v 1.86198 h -4.9349 v 7.91666 q 0,1.78386 0.48177,2.29167 0.49479,0.50781 1.99219,0.50781 h 2.46094 v 2.00521 h -2.46094 q -2.77344,0 -3.82813,-1.02865 -1.05468,-1.04166 -1.05468,-3.77604 v -7.91666 h -1.75782 v -1.86198 h 1.75782 v -4.14063 z" />
        <path
           inkscape:connector-curvature="0"
           id="path1101"
           style="font-size:26.66666603px;fill:#550000"
           d="m 560.02083,304.52995 h 2.39584 v 14.58333 h -2.39584 z m 0,-5.67709 h 2.39584 v 3.03386 h -2.39584 z" />
        <path
           inkscape:connector-curvature="0"
           id="path1103"
           style="font-size:26.66666603px;fill:#550000"
           d="m 578.78384,307.32943 q 0.89844,-1.61459 2.14844,-2.38282 1.25,-0.76822 2.94271,-0.76822 2.27865,0 3.51562,1.60156 1.23698,1.58854 1.23698,4.53125 v 8.80208 h -2.40885 v -8.72396 q 0,-2.09635 -0.74219,-3.11198 -0.74219,-1.01562 -2.26562,-1.01562 -1.86198,0 -2.94271,1.23698 -1.08073,1.23698 -1.08073,3.37239 v 8.24219 h -2.40885 v -8.72396 q 0,-2.10937 -0.74219,-3.11198 -0.74219,-1.01562 -2.29167,-1.01562 -1.83594,0 -2.91667,1.25 -1.08072,1.23698 -1.08072,3.35937 v 8.24219 h -2.40886 v -14.58333 h 2.40886 v 2.26562 q 0.82031,-1.34114 1.96614,-1.97916 1.14583,-0.63802 2.72136,-0.63802 1.58854,0 2.69531,0.80729 1.11979,0.80729 1.65364,2.34375 z" />
        <path
           inkscape:connector-curvature="0"
           id="path1105"
           style="font-size:26.66666603px;fill:#550000"
           d="m 600.03384,311.78255 q -2.90364,0 -4.02343,0.66406 -1.1198,0.66407 -1.1198,2.26563 0,1.27604 0.83334,2.03125 0.84635,0.74219 2.29166,0.74219 1.99219,0 3.19011,-1.40625 1.21094,-1.41927 1.21094,-3.76302 v -0.53386 z m 4.77865,-0.98958 v 8.32031 h -2.39583 v -2.21354 q -0.82032,1.32812 -2.04427,1.96614 -1.22396,0.625 -2.9948,0.625 -2.23958,0 -3.5677,-1.25 -1.31511,-1.26302 -1.31511,-3.37239 0,-2.46094 1.64063,-3.71094 1.65364,-1.25 4.92187,-1.25 h 3.35938 v -0.23437 q 0,-1.65365 -1.09375,-2.55209 -1.08073,-0.91145 -3.04688,-0.91145 -1.25,0 -2.43489,0.29947 -1.1849,0.29948 -2.27865,0.89844 v -2.21354 q 1.3151,-0.50781 2.55208,-0.75521 1.23698,-0.26041 2.40886,-0.26041 3.16406,0 4.72656,1.64062 1.5625,1.64063 1.5625,4.97396 z" />
        <path
           inkscape:connector-curvature="0"
           id="path1107"
           style="font-size:26.66666603px;fill:#550000"
           d="m 609.7474,298.85286 h 2.39583 v 20.26042 h -2.39583 z" />
      </g>
    </g>
    <g
       id="g1156"
       transform="matrix(0.9528154,0,0,0.9528154,-0.22325919,107.35271)">
      <rect
         ry="0"
         y="4.8411975"
         x="5.0314641"
         height="26.388716"
         width="98.541679"
         id="rect1023-2-0-9"
         style="opacity:1;fill:#800000;stroke:none;stroke-width:0;stroke-miterlimit:4;stroke-dasharray:none" />
      <g
         transform="translate(2.5553096,-103.37389)"
         id="text1575-7"
         style="font-style:normal;font-weight:normal;font-size:26.14921188px;line-height:1.25;font-family:sans-serif;letter-spacing:0px;word-spacing:0px;fill:#ffffff;fill-opacity:1;stroke:none;stroke-width:4.90297699"
         aria-label="In vitro">
        <path
           inkscape:connector-curvature="0"
           id="path1213"
           style="font-style:italic;fill:#ffffff;stroke-width:4.90297699"
           d="M 8.8756344,113.16957 H 11.467573 L 7.7520354,132.23245 H 5.1600969 Z" />
        <path
           inkscape:connector-curvature="0"
           id="path1215"
           style="font-style:italic;fill:#ffffff;stroke-width:4.90297699"
           d="m 26.738304,123.60117 -1.67263,8.63128 h -2.362112 l 1.672631,-8.5419 q 0.114913,-0.60011 0.178754,-1.05976 0.06384,-0.45966 0.06384,-0.72779 0,-1.07252 -0.676713,-1.67263 -0.676713,-0.6001 -1.889689,-0.6001 -1.889689,0 -3.255884,1.26405 -1.366194,1.25128 -1.787543,3.4091 l -1.570485,7.92903 H 13.08913 l 2.770693,-14.30035 h 2.349344 l -0.472423,2.2472 q 0.983149,-1.23851 2.362112,-1.91523 1.378962,-0.67671 2.898374,-0.67671 1.889689,0 2.923911,1.02146 1.04699,1.02145 1.04699,2.87283 0,0.45966 -0.06384,0.98315 -0.05107,0.5235 -0.165986,1.13637 z" />
        <path
           inkscape:connector-curvature="0"
           id="path1217"
           style="font-style:italic;fill:#ffffff;stroke-width:4.90297699"
           d="m 38.931906,117.9321 h 2.489793 l 2.09398,12.1553 6.843739,-12.1553 h 2.489793 l -8.133324,14.30035 h -3.166506 z" />
        <path
           inkscape:connector-curvature="0"
           id="path1219"
           style="font-style:italic;fill:#ffffff;stroke-width:4.90297699"
           d="m 57.31807,112.36518 h 2.349343 l -0.574567,2.97498 h -2.349344 z m -1.072526,5.56692 h 2.349343 l -2.796229,14.30035 h -2.349343 z" />
        <path
           inkscape:connector-curvature="0"
           id="path1221"
           style="font-style:italic;fill:#ffffff;stroke-width:4.90297699"
           d="m 70.852332,117.9321 -0.357508,1.82585 h -4.685919 l -1.519412,7.76305 q -0.07661,0.43412 -0.114913,0.72778 -0.03831,0.29367 -0.03831,0.45966 0,0.81716 0.485191,1.18744 0.497958,0.37027 1.583253,0.37027 h 2.374879 l -0.395813,1.9663 h -2.247198 q -2.09398,0 -3.128202,-0.81716 -1.021453,-0.81716 -1.021453,-2.47703 0,-0.29366 0.0383,-0.6384 0.03831,-0.35751 0.114914,-0.77886 l 1.519412,-7.76305 h -1.991834 l 0.370277,-1.82585 h 1.95353 l 0.791626,-4.06028 h 2.349343 l -0.778858,4.06028 z" />
        <path
           inkscape:connector-curvature="0"
           id="path1223"
           style="font-style:italic;fill:#ffffff;stroke-width:4.90297699"
           d="m 81.705275,120.10269 q -0.357509,-0.19152 -0.817163,-0.29367 -0.459654,-0.10214 -0.983149,-0.10214 -1.876921,0 -3.28142,1.43003 -1.404499,1.41727 -1.864153,3.80492 l -1.442803,7.29062 h -2.349343 l 2.796229,-14.30035 h 2.349343 l -0.446886,2.22166 q 0.932077,-1.23851 2.221662,-1.90245 1.302353,-0.66395 2.770693,-0.66395 0.383045,0 0.753322,0.0511 0.370277,0.0383 0.740554,0.14045 z" />
        <path
           inkscape:connector-curvature="0"
           id="path1225"
           style="font-style:italic;fill:#ffffff;stroke-width:4.90297699"
           d="m 87.438185,132.60273 q -2.51533,0 -3.983669,-1.54495 -1.455571,-1.55772 -1.455571,-4.23903 0,-1.55772 0.497958,-3.16651 0.510727,-1.62156 1.315122,-2.71962 1.264048,-1.71093 2.821765,-2.5281 1.557717,-0.81716 3.524015,-0.81716 2.438721,0 3.932596,1.51941 1.506644,1.51942 1.506644,3.9709 0,1.69817 -0.497958,3.38357 -0.497959,1.6854 -1.302354,2.79623 -1.25128,1.71093 -2.808997,2.5281 -1.557717,0.81716 -3.549551,0.81716 z m -3.00052,-5.86059 q 0,1.94076 0.804395,2.91114 0.817163,0.95761 2.464256,0.95761 2.362112,0 3.90706,-2.05567 1.557717,-2.06844 1.557717,-5.23495 0,-1.85138 -0.829931,-2.79623 -0.829931,-0.94484 -2.43872,-0.94484 -1.32789,0 -2.362112,0.62564 -1.034221,0.61287 -1.851384,1.87692 -0.600104,0.94484 -0.932077,2.15782 -0.319204,1.21297 -0.319204,2.50256 z" />
      </g>
      <rect
         ry="0"
         y="36.063"
         x="5.0314412"
         height="66.987106"
         width="98.541679"
         id="rect1023-2-0-1"
         style="opacity:1;fill:#ffd5d5;stroke:none;stroke-width:0;stroke-miterlimit:4;stroke-dasharray:none" />
      <g
         id="flowRoot1980-0"
         style="font-style:normal;font-weight:normal;font-size:5.33333349px;line-height:1.25;font-family:sans-serif;letter-spacing:0px;word-spacing:0px;fill:#550000;fill-opacity:1;stroke:none"
         transform="matrix(0.32932747,0,0,0.32932747,-132.69042,-10.754219)"
         aria-label="1. CLP1 -cDNA -protein IVT HeLa  2. antikanker -MOLT4 dan K562 ">
        <path
           inkscape:connector-curvature="0"
           id="path1110"
           style="font-size:26.66666603px;fill:#550000"
           d="m 430.58073,176.89974 h 4.29687 v -14.83073 l -4.67448,0.9375 v -2.39583 l 4.64844,-0.9375 h 2.63021 v 17.22656 h 4.29688 v 2.21354 h -11.19792 z" />
        <path
           inkscape:connector-curvature="0"
           id="path1112"
           style="font-size:26.66666603px;fill:#550000"
           d="m 447.09114,175.80599 h 2.7474 v 3.30729 h -2.7474 z" />
        <path
           inkscape:connector-curvature="0"
           id="path1114"
           style="font-size:26.66666603px;fill:#550000"
           d="m 478.36719,161.17057 v 2.77344 q -1.32813,-1.23698 -2.83855,-1.84896 -1.49739,-0.61198 -3.1901,-0.61198 -3.33333,0 -5.10417,2.04427 -1.77083,2.03125 -1.77083,5.88542 0,3.84115 1.77083,5.88542 1.77084,2.03125 5.10417,2.03125 1.69271,0 3.1901,-0.61198 1.51042,-0.61198 2.83855,-1.84896 v 2.74739 q -1.38021,0.9375 -2.92969,1.40625 -1.53646,0.46875 -3.25521,0.46875 -4.41406,0 -6.95312,-2.69531 -2.53907,-2.70833 -2.53907,-7.38281 0,-4.6875 2.53907,-7.38281 2.53906,-2.70834 6.95312,-2.70834 1.74479,0 3.28125,0.46875 1.54948,0.45573 2.90365,1.38021 z" />
        <path
           inkscape:connector-curvature="0"
           id="path1116"
           style="font-size:26.66666603px;fill:#550000"
           d="m 482.42969,159.67318 h 2.63021 v 17.22656 h 9.46614 v 2.21354 h -12.09635 z" />
        <path
           inkscape:connector-curvature="0"
           id="path1118"
           style="font-size:26.66666603px;fill:#550000"
           d="m 499.91666,161.83464 v 7.30468 h 3.30729 q 1.83594,0 2.83854,-0.95052 1.00261,-0.95052 1.00261,-2.70833 0,-1.74479 -1.00261,-2.69531 -1.0026,-0.95052 -2.83854,-0.95052 z m -2.63021,-2.16146 h 5.9375 q 3.26823,0 4.9349,1.48437 1.67969,1.47136 1.67969,4.32292 0,2.8776 -1.67969,4.34896 -1.66667,1.47135 -4.9349,1.47135 h -3.30729 v 7.8125 h -2.63021 z" />
        <path
           inkscape:connector-curvature="0"
           id="path1120"
           style="font-size:26.66666603px;fill:#550000"
           d="m 514.05729,176.89974 h 4.29688 v -14.83073 l -4.67448,0.9375 v -2.39583 l 4.64843,-0.9375 h 2.63021 v 17.22656 h 4.29688 v 2.21354 h -11.19792 z" />
        <path
           inkscape:connector-curvature="0"
           id="path1122"
           style="font-size:26.66666603px;fill:#550000"
           d="m 428.57552,204.07421 h 7.01823 v 2.13542 h -7.01823 z" />
        <path
           inkscape:connector-curvature="0"
           id="path1124"
           style="font-size:26.66666603px;fill:#550000"
           d="m 449.90365,198.42317 v 2.23959 q -1.01563,-0.5599 -2.04428,-0.83334 -1.01562,-0.28646 -2.05729,-0.28646 -2.33073,0 -3.61979,1.48438 -1.28906,1.47135 -1.28906,4.14062 0,2.66927 1.28906,4.15365 1.28906,1.47135 3.61979,1.47135 1.04167,0 2.05729,-0.27343 1.02865,-0.28646 2.04428,-0.84636 v 2.21354 q -1.00261,0.46875 -2.08334,0.70313 -1.06771,0.23437 -2.27864,0.23437 -3.29427,0 -5.23438,-2.07031 -1.9401,-2.07031 -1.9401,-5.58594 0,-3.5677 1.95312,-5.61198 1.96615,-2.04427 5.37761,-2.04427 1.10677,0 2.16145,0.23438 1.05469,0.22135 2.04428,0.67708 z" />
        <path
           inkscape:connector-curvature="0"
           id="path1126"
           style="font-size:26.66666603px;fill:#550000"
           d="m 456.80469,195.16796 v 15.11719 h 3.17708 q 4.02344,0 5.88542,-1.82292 1.875,-1.82291 1.875,-5.7552 0,-3.90625 -1.875,-5.71615 -1.86198,-1.82292 -5.88542,-1.82292 z m -2.63021,-2.16145 h 5.40364 q 5.65105,0 8.29427,2.35677 2.64323,2.34375 2.64323,7.34375 0,5.02604 -2.65625,7.38281 -2.65625,2.35677 -8.28125,2.35677 h -5.40364 z" />
        <path
           inkscape:connector-curvature="0"
           id="path1128"
           style="font-size:26.66666603px;fill:#550000"
           d="M 474.70833,193.00651 H 478.25 l 8.61979,16.26302 v -16.26302 h 2.55208 v 19.4401 h -3.54166 l -8.61979,-16.26302 v 16.26302 h -2.55209 z" />
        <path
           inkscape:connector-curvature="0"
           id="path1130"
           style="font-size:26.66666603px;fill:#550000"
           d="m 501.15365,195.59765 -3.56771,9.67448 h 7.14843 z m -1.48438,-2.59114 h 2.98177 l 7.40886,19.4401 h -2.73438 l -1.77083,-4.98698 h -8.76302 l -1.77084,4.98698 h -2.77343 z" />
        <path
           inkscape:connector-curvature="0"
           id="path1132"
           style="font-size:26.66666603px;fill:#550000"
           d="m 428.57552,237.40754 h 7.01823 v 2.13542 h -7.01823 z" />
        <path
           inkscape:connector-curvature="0"
           id="path1134"
           style="font-size:26.66666603px;fill:#550000"
           d="m 441.72656,243.59244 v 7.73437 h -2.40885 V 231.1966 h 2.40885 v 2.21355 q 0.75521,-1.30209 1.90104,-1.92709 1.15886,-0.63802 2.76042,-0.63802 2.65625,0 4.3099,2.10938 1.66666,2.10937 1.66666,5.54687 0,3.4375 -1.66666,5.54688 -1.65365,2.10937 -4.3099,2.10937 -1.60156,0 -2.76042,-0.625 -1.14583,-0.63802 -1.90104,-1.9401 z m 8.15104,-5.09115 q 0,-2.64323 -1.09375,-4.14062 -1.08073,-1.51042 -2.98177,-1.51042 -1.90104,0 -2.99479,1.51042 -1.08073,1.49739 -1.08073,4.14062 0,2.64323 1.08073,4.15365 1.09375,1.49739 2.99479,1.49739 1.90104,0 2.98177,-1.49739 1.09375,-1.51042 1.09375,-4.15365 z" />
        <path
           inkscape:connector-curvature="0"
           id="path1136"
           style="font-size:26.66666603px;fill:#550000"
           d="m 464.78646,233.43619 q -0.40365,-0.23438 -0.88542,-0.33854 -0.46875,-0.11719 -1.04167,-0.11719 -2.03125,0 -3.125,1.32812 -1.08073,1.31511 -1.08073,3.78907 v 7.68229 h -2.40885 V 231.1966 h 2.40885 v 2.26563 q 0.75521,-1.32813 1.96615,-1.96615 1.21094,-0.65104 2.94271,-0.65104 0.24739,0 0.54687,0.0391 0.29948,0.026 0.66406,0.0911 z" />
        <path
           inkscape:connector-curvature="0"
           id="path1138"
           style="font-size:26.66666603px;fill:#550000"
           d="m 472.36458,232.87629 q -1.92708,0 -3.04687,1.51042 -1.11979,1.49739 -1.11979,4.11458 0,2.61719 1.10677,4.12761 1.11979,1.49739 3.05989,1.49739 1.91406,0 3.03386,-1.51042 1.11979,-1.51041 1.11979,-4.11458 0,-2.59114 -1.11979,-4.10156 -1.1198,-1.52344 -3.03386,-1.52344 z m 0,-2.03125 q 3.125,0 4.90886,2.03125 1.78385,2.03125 1.78385,5.625 0,3.58073 -1.78385,5.625 -1.78386,2.03125 -4.90886,2.03125 -3.13802,0 -4.92187,-2.03125 -1.77084,-2.04427 -1.77084,-5.625 0,-3.59375 1.77084,-5.625 1.78385,-2.03125 4.92187,-2.03125 z" />
        <path
           inkscape:connector-curvature="0"
           id="path1140"
           style="font-size:26.66666603px;fill:#550000"
           d="m 485.39843,227.05598 v 4.14062 h 4.9349 v 1.86198 h -4.9349 v 7.91667 q 0,1.78385 0.48177,2.29167 0.4948,0.50781 1.99219,0.50781 h 2.46094 v 2.00521 h -2.46094 q -2.77344,0 -3.82812,-1.02865 -1.05469,-1.04167 -1.05469,-3.77604 v -7.91667 h -1.75781 v -1.86198 h 1.75781 v -4.14062 z" />
        <path
           inkscape:connector-curvature="0"
           id="path1142"
           style="font-size:26.66666603px;fill:#550000"
           d="m 505.95833,237.88931 v 1.17188 h -11.01562 q 0.15625,2.47396 1.48437,3.77604 1.34115,1.28906 3.72396,1.28906 1.38021,0 2.66927,-0.33854 1.30208,-0.33854 2.57812,-1.01563 v 2.26563 q -1.28906,0.54687 -2.64322,0.83333 -1.35417,0.28646 -2.7474,0.28646 -3.48958,0 -5.53385,-2.03125 -2.03125,-2.03125 -2.03125,-5.49479 0,-3.58073 1.92708,-5.67708 1.9401,-2.10938 5.22135,-2.10938 2.94271,0 4.64844,1.90104 1.71875,1.88802 1.71875,5.14323 z m -2.39583,-0.70312 q -0.026,-1.96615 -1.10677,-3.13802 -1.06771,-1.17188 -2.83855,-1.17188 -2.0052,0 -3.21614,1.13281 -1.19792,1.13282 -1.38021,3.19011 z" />
        <path
           inkscape:connector-curvature="0"
           id="path1144"
           style="font-size:26.66666603px;fill:#550000"
           d="m 509.89062,231.1966 h 2.39584 v 14.58334 h -2.39584 z m 0,-5.67708 h 2.39584 v 3.03386 h -2.39584 z" />
        <path
           inkscape:connector-curvature="0"
           id="path1146"
           style="font-size:26.66666603px;fill:#550000"
           d="m 529.42187,236.97785 v 8.80209 h -2.39583 v -8.72396 q 0,-2.07031 -0.8073,-3.09896 -0.80729,-1.02865 -2.42187,-1.02865 -1.9401,0 -3.0599,1.23698 -1.11979,1.23698 -1.11979,3.3724 v 8.24219 h -2.40885 V 231.1966 h 2.40885 v 2.26563 q 0.85938,-1.3151 2.01823,-1.96615 1.17188,-0.65104 2.69531,-0.65104 2.51302,0 3.80209,1.5625 1.28906,1.54948 1.28906,4.57031 z" />
        <path
           inkscape:connector-curvature="0"
           id="path1148"
           style="font-size:26.66666603px;fill:#550000"
           d="m 542.78124,226.33983 h 2.63021 v 19.44011 h -2.63021 z" />
        <path
           inkscape:connector-curvature="0"
           id="path1150"
           style="font-size:26.66666603px;fill:#550000"
           d="m 555.65885,245.77994 -7.42188,-19.44011 h 2.7474 l 6.15885,16.36719 6.17188,-16.36719 h 2.73437 l -7.40885,19.44011 z" />
        <path
           inkscape:connector-curvature="0"
           id="path1152"
           style="font-size:26.66666603px;fill:#550000"
           d="m 566.1927,226.33983 h 16.44532 v 2.21355 h -6.90105 v 17.22656 h -2.64323 v -17.22656 h -6.90104 z" />
        <path
           inkscape:connector-curvature="0"
           id="path1154"
           style="font-size:26.66666603px;fill:#550000"
           d="m 593.65364,226.33983 h 2.63021 v 7.96875 h 9.55729 v -7.96875 h 2.63021 v 19.44011 h -2.63021 v -9.25782 h -9.55729 v 9.25782 h -2.63021 z" />
        <path
           inkscape:connector-curvature="0"
           id="path1156"
           style="font-size:26.66666603px;fill:#550000"
           d="m 626.07551,237.88931 v 1.17188 h -11.01562 q 0.15625,2.47396 1.48437,3.77604 1.34115,1.28906 3.72396,1.28906 1.38021,0 2.66927,-0.33854 1.30208,-0.33854 2.57812,-1.01563 v 2.26563 q -1.28906,0.54687 -2.64322,0.83333 -1.35417,0.28646 -2.7474,0.28646 -3.48958,0 -5.53385,-2.03125 -2.03125,-2.03125 -2.03125,-5.49479 0,-3.58073 1.92708,-5.67708 1.9401,-2.10938 5.22135,-2.10938 2.94271,0 4.64844,1.90104 1.71875,1.88802 1.71875,5.14323 z m -2.39583,-0.70312 q -0.026,-1.96615 -1.10677,-3.13802 -1.06771,-1.17188 -2.83855,-1.17188 -2.0052,0 -3.21614,1.13281 -1.19792,1.13282 -1.38021,3.19011 z" />
        <path
           inkscape:connector-curvature="0"
           id="path1158"
           style="font-size:26.66666603px;fill:#550000"
           d="m 630.11197,226.33983 h 2.63021 v 17.22657 h 9.46614 v 2.21354 h -12.09635 z" />
        <path
           inkscape:connector-curvature="0"
           id="path1160"
           style="font-size:26.66666603px;fill:#550000"
           d="m 651.49219,238.44921 q -2.90365,0 -4.02344,0.66406 -1.11979,0.66406 -1.11979,2.26563 0,1.27604 0.83333,2.03125 0.84636,0.74218 2.29167,0.74218 1.99219,0 3.1901,-1.40625 1.21094,-1.41927 1.21094,-3.76302 v -0.53385 z m 4.77864,-0.98959 v 8.32032 H 653.875 v -2.21354 q -0.82031,1.32812 -2.04427,1.96614 -1.22396,0.625 -2.99479,0.625 -2.23959,0 -3.56771,-1.25 -1.31511,-1.26302 -1.31511,-3.37239 0,-2.46094 1.64063,-3.71094 1.65365,-1.25 4.92187,-1.25 h 3.35938 v -0.23438 q 0,-1.65364 -1.09375,-2.55208 -1.08073,-0.91146 -3.04688,-0.91146 -1.25,0 -2.43489,0.29948 -1.1849,0.29948 -2.27865,0.89844 v -2.21354 q 1.31511,-0.50782 2.55209,-0.75521 1.23698,-0.26042 2.40885,-0.26042 3.16406,0 4.72656,1.64063 1.5625,1.64062 1.5625,4.97395 z" />
        <path
           inkscape:connector-curvature="0"
           id="path1162"
           style="font-size:26.66666603px;fill:#550000"
           d="m 432.39062,283.5664 h 9.17969 v 2.21354 h -12.34375 v -2.21354 q 1.4974,-1.54948 4.07552,-4.15365 2.59115,-2.61719 3.25521,-3.3724 1.26302,-1.41927 1.75781,-2.39583 0.50782,-0.98958 0.50782,-1.9401 0,-1.54948 -1.09375,-2.52604 -1.08073,-0.97657 -2.82552,-0.97657 -1.23698,0 -2.61719,0.42969 -1.36719,0.42969 -2.92969,1.30208 v -2.65625 q 1.58854,-0.63802 2.96875,-0.96354 1.38021,-0.32552 2.52604,-0.32552 3.02084,0 4.81771,1.51042 1.79688,1.51041 1.79688,4.03646 0,1.19791 -0.45573,2.27864 -0.44271,1.06771 -1.62761,2.52604 -0.32552,0.37761 -2.07031,2.1875 -1.74479,1.79688 -4.92188,5.03907 z" />
        <path
           inkscape:connector-curvature="0"
           id="path1164"
           style="font-size:26.66666603px;fill:#550000"
           d="m 447.09114,282.47265 h 2.7474 v 3.30729 h -2.7474 z" />
        <path
           inkscape:connector-curvature="0"
           id="path1166"
           style="font-size:26.66666603px;fill:#550000"
           d="m 470.33333,278.44921 q -2.90364,0 -4.02344,0.66406 -1.11979,0.66406 -1.11979,2.26563 0,1.27604 0.83334,2.03125 0.84635,0.74218 2.29166,0.74218 1.99219,0 3.19011,-1.40625 1.21093,-1.41927 1.21093,-3.76302 v -0.53385 z m 4.77865,-0.98959 v 8.32032 h -2.39584 v -2.21354 q -0.82031,1.32812 -2.04427,1.96614 -1.22395,0.625 -2.99479,0.625 -2.23958,0 -3.56771,-1.25 -1.3151,-1.26302 -1.3151,-3.37239 0,-2.46094 1.64062,-3.71094 1.65365,-1.25 4.92188,-1.25 h 3.35937 v -0.23438 q 0,-1.65364 -1.09375,-2.55208 -1.08072,-0.91146 -3.04687,-0.91146 -1.25,0 -2.4349,0.29948 -1.18489,0.29948 -2.27864,0.89844 v -2.21354 q 1.3151,-0.50782 2.55208,-0.75521 1.23698,-0.26042 2.40886,-0.26042 3.16406,0 4.72656,1.64063 1.5625,1.64062 1.5625,4.97395 z" />
        <path
           inkscape:connector-curvature="0"
           id="path1168"
           style="font-size:26.66666603px;fill:#550000"
           d="m 492.16927,276.97785 v 8.80209 h -2.39584 v -8.72396 q 0,-2.07031 -0.80729,-3.09896 -0.80729,-1.02865 -2.42187,-1.02865 -1.94011,0 -3.0599,1.23698 -1.11979,1.23698 -1.11979,3.3724 v 8.24219 h -2.40885 V 271.1966 h 2.40885 v 2.26563 q 0.85938,-1.3151 2.01823,-1.96615 1.17187,-0.65104 2.69531,-0.65104 2.51302,0 3.80209,1.5625 1.28906,1.54948 1.28906,4.57031 z" />
        <path
           inkscape:connector-curvature="0"
           id="path1170"
           style="font-size:26.66666603px;fill:#550000"
           d="m 499.3177,267.05598 v 4.14062 h 4.9349 v 1.86198 h -4.9349 v 7.91667 q 0,1.78385 0.48177,2.29167 0.4948,0.50781 1.99219,0.50781 h 2.46094 v 2.00521 h -2.46094 q -2.77344,0 -3.82812,-1.02865 -1.05469,-1.04167 -1.05469,-3.77604 v -7.91667 h -1.75781 v -1.86198 h 1.75781 v -4.14062 z" />
        <path
           inkscape:connector-curvature="0"
           id="path1172"
           style="font-size:26.66666603px;fill:#550000"
           d="m 507.40365,271.1966 h 2.39583 v 14.58334 h -2.39583 z m 0,-5.67708 h 2.39583 v 3.03386 h -2.39583 z" />
        <path
           inkscape:connector-curvature="0"
           id="path1174"
           style="font-size:26.66666603px;fill:#550000"
           d="m 514.72135,265.51952 h 2.40886 v 11.96615 l 7.14843,-6.28907 h 3.0599 l -7.73438,6.82292 8.0599,7.76042 h -3.125 l -7.40885,-7.1224 v 7.1224 h -2.40886 z" />
        <path
           inkscape:connector-curvature="0"
           id="path1176"
           style="font-size:26.66666603px;fill:#550000"
           d="m 536.41405,278.44921 q -2.90364,0 -4.02343,0.66406 -1.11979,0.66406 -1.11979,2.26563 0,1.27604 0.83333,2.03125 0.84635,0.74218 2.29167,0.74218 1.99218,0 3.1901,-1.40625 1.21094,-1.41927 1.21094,-3.76302 v -0.53385 z m 4.77865,-0.98959 v 8.32032 h -2.39583 v -2.21354 q -0.82032,1.32812 -2.04427,1.96614 -1.22396,0.625 -2.9948,0.625 -2.23958,0 -3.5677,-1.25 -1.31511,-1.26302 -1.31511,-3.37239 0,-2.46094 1.64063,-3.71094 1.65364,-1.25 4.92187,-1.25 h 3.35938 v -0.23438 q 0,-1.65364 -1.09375,-2.55208 -1.08073,-0.91146 -3.04688,-0.91146 -1.25,0 -2.43489,0.29948 -1.1849,0.29948 -2.27865,0.89844 v -2.21354 q 1.3151,-0.50782 2.55208,-0.75521 1.23698,-0.26042 2.40886,-0.26042 3.16406,0 4.72656,1.64063 1.5625,1.64062 1.5625,4.97395 z" />
        <path
           inkscape:connector-curvature="0"
           id="path1178"
           style="font-size:26.66666603px;fill:#550000"
           d="m 558.24999,276.97785 v 8.80209 h -2.39583 v -8.72396 q 0,-2.07031 -0.80729,-3.09896 -0.80729,-1.02865 -2.42188,-1.02865 -1.9401,0 -3.05989,1.23698 -1.11979,1.23698 -1.11979,3.3724 v 8.24219 h -2.40886 V 271.1966 h 2.40886 v 2.26563 q 0.85937,-1.3151 2.01823,-1.96615 1.17187,-0.65104 2.69531,-0.65104 2.51302,0 3.80208,1.5625 1.28906,1.54948 1.28906,4.57031 z" />
        <path
           inkscape:connector-curvature="0"
           id="path1180"
           style="font-size:26.66666603px;fill:#550000"
           d="m 562.9375,265.51952 h 2.40885 v 11.96615 l 7.14844,-6.28907 h 3.0599 l -7.73438,6.82292 8.0599,7.76042 h -3.125 l -7.40886,-7.1224 v 7.1224 h -2.40885 z" />
        <path
           inkscape:connector-curvature="0"
           id="path1182"
           style="font-size:26.66666603px;fill:#550000"
           d="m 589.99479,277.88931 v 1.17188 h -11.01562 q 0.15625,2.47396 1.48437,3.77604 1.34115,1.28906 3.72396,1.28906 1.38021,0 2.66927,-0.33854 1.30208,-0.33854 2.57813,-1.01563 v 2.26563 q -1.28907,0.54687 -2.64323,0.83333 -1.35417,0.28646 -2.7474,0.28646 -3.48958,0 -5.53385,-2.03125 -2.03125,-2.03125 -2.03125,-5.49479 0,-3.58073 1.92708,-5.67708 1.9401,-2.10938 5.22135,-2.10938 2.94271,0 4.64844,1.90104 1.71875,1.88802 1.71875,5.14323 z m -2.39583,-0.70312 q -0.026,-1.96615 -1.10677,-3.13802 -1.06771,-1.17188 -2.83854,-1.17188 -2.00521,0 -3.21615,1.13281 -1.19792,1.13282 -1.38021,3.19011 z" />
        <path
           inkscape:connector-curvature="0"
           id="path1184"
           style="font-size:26.66666603px;fill:#550000"
           d="m 602.3776,273.43619 q -0.40364,-0.23438 -0.88541,-0.33854 -0.46875,-0.11719 -1.04167,-0.11719 -2.03125,0 -3.125,1.32812 -1.08073,1.31511 -1.08073,3.78907 v 7.68229 h -2.40885 V 271.1966 h 2.40885 v 2.26563 q 0.75521,-1.32813 1.96615,-1.96615 1.21093,-0.65104 2.94271,-0.65104 0.24739,0 0.54687,0.0391 0.29948,0.026 0.66406,0.0912 z" />
        <path
           inkscape:connector-curvature="0"
           id="path1186"
           style="font-size:26.66666603px;fill:#550000"
           d="m 428.57552,310.74089 h 7.01823 v 2.13541 h -7.01823 z" />
        <path
           inkscape:connector-curvature="0"
           id="path1188"
           style="font-size:26.66666603px;fill:#550000"
           d="m 439.51302,299.67318 h 3.91927 l 4.96094,13.22916 4.98698,-13.22916 h 3.91927 v 19.4401 h -2.56511 v -17.07031 l -5.01302,13.33333 h -2.64323 l -5.01302,-13.33333 v 17.07031 h -2.55208 z" />
        <path
           inkscape:connector-curvature="0"
           id="path1190"
           style="font-size:26.66666603px;fill:#550000"
           d="m 470.41146,301.45703 q -2.86459,0 -4.55729,2.13542 -1.67969,2.13541 -1.67969,5.82031 0,3.67187 1.67969,5.80729 1.6927,2.13542 4.55729,2.13542 2.86458,0 4.53125,-2.13542 1.67968,-2.13542 1.67968,-5.80729 0,-3.6849 -1.67968,-5.82031 -1.66667,-2.13542 -4.53125,-2.13542 z m 0,-2.13542 q 4.08854,0 6.53645,2.7474 2.44792,2.73438 2.44792,7.34375 0,4.59635 -2.44792,7.34375 -2.44791,2.73437 -6.53645,2.73437 -4.10157,0 -6.5625,-2.73437 -2.44792,-2.73438 -2.44792,-7.34375 0,-4.60937 2.44792,-7.34375 2.46093,-2.7474 6.5625,-2.7474 z" />
        <path
           inkscape:connector-curvature="0"
           id="path1192"
           style="font-size:26.66666603px;fill:#550000"
           d="m 483.51041,299.67318 h 2.63021 v 17.22656 h 9.46615 v 2.21354 h -12.09636 z" />
        <path
           inkscape:connector-curvature="0"
           id="path1194"
           style="font-size:26.66666603px;fill:#550000"
           d="m 492,299.67318 h 16.44531 v 2.21354 h -6.90104 v 17.22656 h -2.64323 V 301.88672 H 492 Z" />
        <path
           inkscape:connector-curvature="0"
           id="path1196"
           style="font-size:26.66666603px;fill:#550000"
           d="m 518.44531,301.96484 -6.64062,10.37761 h 6.64062 z m -0.6901,-2.29166 h 3.30729 v 12.66927 h 2.77344 v 2.1875 h -2.77344 v 4.58333 h -2.61719 v -4.58333 h -8.77604 v -2.53906 z" />
        <path
           inkscape:connector-curvature="0"
           id="path1198"
           style="font-size:26.66666603px;fill:#550000"
           d="m 545.91927,306.74349 v -7.89063 h 2.39583 v 20.26042 h -2.39583 v -2.1875 q -0.75521,1.30208 -1.91407,1.9401 -1.14583,0.625 -2.76041,0.625 -2.64323,0 -4.3099,-2.10937 -1.65365,-2.10938 -1.65365,-5.54687 0,-3.4375 1.65365,-5.54688 1.66667,-2.10937 4.3099,-2.10937 1.61458,0 2.76041,0.63802 1.15886,0.625 1.91407,1.92708 z m -8.16407,5.09115 q 0,2.64322 1.08073,4.15364 1.09375,1.4974 2.99479,1.4974 1.90105,0 2.9948,-1.4974 1.09375,-1.51042 1.09375,-4.15364 0,-2.64323 -1.09375,-4.14063 -1.09375,-1.51042 -2.9948,-1.51042 -1.90104,0 -2.99479,1.51042 -1.08073,1.4974 -1.08073,4.14063 z" />
        <path
           inkscape:connector-curvature="0"
           id="path1200"
           style="font-size:26.66666603px;fill:#550000"
           d="m 559.8776,311.78255 q -2.90364,0 -4.02344,0.66406 -1.11979,0.66407 -1.11979,2.26563 0,1.27604 0.83334,2.03125 0.84635,0.74219 2.29166,0.74219 1.99219,0 3.19011,-1.40625 1.21093,-1.41927 1.21093,-3.76302 v -0.53386 z m 4.77865,-0.98958 v 8.32031 h -2.39584 v -2.21354 q -0.82031,1.32812 -2.04427,1.96614 -1.22396,0.625 -2.99479,0.625 -2.23958,0 -3.56771,-1.25 -1.3151,-1.26302 -1.3151,-3.37239 0,-2.46094 1.64062,-3.71094 1.65365,-1.25 4.92188,-1.25 h 3.35937 v -0.23437 q 0,-1.65365 -1.09375,-2.55209 -1.08073,-0.91145 -3.04687,-0.91145 -1.25,0 -2.4349,0.29947 -1.18489,0.29948 -2.27864,0.89844 v -2.21354 q 1.3151,-0.50781 2.55208,-0.75521 1.23698,-0.26041 2.40885,-0.26041 3.16407,0 4.72657,1.64062 1.5625,1.64063 1.5625,4.97396 z" />
        <path
           inkscape:connector-curvature="0"
           id="path1202"
           style="font-size:26.66666603px;fill:#550000"
           d="m 581.71354,310.3112 v 8.80208 h -2.39583 v -8.72396 q 0,-2.07031 -0.80729,-3.09896 -0.8073,-1.02864 -2.42188,-1.02864 -1.9401,0 -3.05989,1.23698 -1.1198,1.23698 -1.1198,3.37239 v 8.24219 H 569.5 v -14.58333 h 2.40885 v 2.26562 q 0.85938,-1.3151 2.01823,-1.96614 1.17188,-0.65104 2.69532,-0.65104 2.51302,0 3.80208,1.5625 1.28906,1.54947 1.28906,4.57031 z" />
        <path
           inkscape:connector-curvature="0"
           id="path1204"
           style="font-size:26.66666603px;fill:#550000"
           d="m 595.07291,299.67318 h 2.6302 v 8.21614 l 8.72396,-8.21614 h 3.38542 l -9.64844,9.0625 10.33854,10.3776 h -3.46354 l -9.33594,-9.36198 v 9.36198 h -2.6302 z" />
        <path
           inkscape:connector-curvature="0"
           id="path1206"
           style="font-size:26.66666603px;fill:#550000"
           d="m 612.82031,299.67318 h 10.32552 v 2.21354 h -7.91667 v 4.76562 q 0.57292,-0.19531 1.14583,-0.28645 0.57292,-0.10417 1.14584,-0.10417 3.25521,0 5.15625,1.78385 1.90104,1.78386 1.90104,4.83073 0,3.13802 -1.95313,4.88281 -1.95312,1.73177 -5.50781,1.73177 -1.22396,0 -2.5,-0.20833 -1.26302,-0.20833 -2.61719,-0.625 v -2.64323 q 1.17188,0.63802 2.42188,0.95052 1.25,0.3125 2.64323,0.3125 2.2526,0 3.56771,-1.18489 1.3151,-1.1849 1.3151,-3.21615 0,-2.03125 -1.3151,-3.21614 -1.31511,-1.1849 -3.56771,-1.1849 -1.05469,0 -2.10938,0.23438 -1.04166,0.23437 -2.13541,0.72916 z" />
        <path
           inkscape:connector-curvature="0"
           id="path1208"
           style="font-size:26.66666603px;fill:#550000"
           d="m 635.71093,308.34505 q -1.77084,0 -2.8125,1.21094 -1.02865,1.21094 -1.02865,3.32031 0,2.09636 1.02865,3.32031 1.04166,1.21094 2.8125,1.21094 1.77083,0 2.79948,-1.21094 1.04166,-1.22395 1.04166,-3.32031 0,-2.10937 -1.04166,-3.32031 -1.02865,-1.21094 -2.79948,-1.21094 z m 5.22135,-8.24219 v 2.39584 q -0.98958,-0.46875 -2.00521,-0.71615 -1.0026,-0.24739 -1.99218,-0.24739 -2.60417,0 -3.98438,1.75781 -1.36719,1.75781 -1.5625,5.3125 0.76823,-1.13281 1.92708,-1.73177 1.15886,-0.61198 2.55209,-0.61198 2.92968,0 4.62239,1.78385 1.70573,1.77084 1.70573,4.83073 0,2.99479 -1.77083,4.80469 -1.77083,1.80989 -4.71354,1.80989 -3.3724,0 -5.15625,-2.57812 -1.78386,-2.59115 -1.78386,-7.5 0,-4.60937 2.1875,-7.34375 2.1875,-2.7474 5.8724,-2.7474 0.98958,0 1.99219,0.19532 1.01562,0.19531 2.10937,0.58593 z" />
        <path
           inkscape:connector-curvature="0"
           id="path1210"
           style="font-size:26.66666603px;fill:#550000"
           d="m 648.99217,316.89974 h 9.17969 v 2.21354 h -12.34375 v -2.21354 q 1.4974,-1.54948 4.07552,-4.15365 2.59115,-2.61718 3.25521,-3.37239 1.26302,-1.41927 1.75781,-2.39584 0.50781,-0.98958 0.50781,-1.9401 0,-1.54948 -1.09375,-2.52604 -1.08073,-0.97656 -2.82552,-0.97656 -1.23698,0 -2.61718,0.42968 -1.36719,0.42969 -2.92969,1.30209 v -2.65625 q 1.58854,-0.63802 2.96875,-0.96354 1.38021,-0.32553 2.52604,-0.32553 3.02083,0 4.81771,1.51042 1.79687,1.51042 1.79687,4.03646 0,1.19792 -0.45573,2.27865 -0.4427,1.0677 -1.6276,2.52604 -0.32552,0.3776 -2.07031,2.1875 -1.74479,1.79687 -4.92188,5.03906 z" />
      </g>
    </g>
  </g>
</svg>
