<?xml version="1.0" encoding="UTF-8" standalone="no"?>
<!-- Created with Inkscape (http://www.inkscape.org/) -->

<svg
   xmlns:dc="http://purl.org/dc/elements/1.1/"
   xmlns:cc="http://creativecommons.org/ns#"
   xmlns:rdf="http://www.w3.org/1999/02/22-rdf-syntax-ns#"
   xmlns:svg="http://www.w3.org/2000/svg"
   xmlns="http://www.w3.org/2000/svg"
   xmlns:sodipodi="http://sodipodi.sourceforge.net/DTD/sodipodi-0.dtd"
   xmlns:inkscape="http://www.inkscape.org/namespaces/inkscape"
   width="21cm"
   height="21cm"
   viewBox="0 0 209.99999 210"
   version="1.1"
   id="svg8"
   inkscape:version="0.92.5 (2060ec1f9f, 2020-04-08)"
   sodipodi:docname="presentasi-sidkom-4.svg"
   inkscape:export-filename="/home/sholikinshino/Desktop/Pelatihan/pelatihan-2020-metal/ch1_intro_and_build_data/Sholikin_2020__Metal.png"
   inkscape:export-xdpi="750.02698"
   inkscape:export-ydpi="750.02698">
  <defs
     id="defs2">
    <mask
       maskUnits="userSpaceOnUse"
       id="mask1359">
      <rect
         style="display:inline;opacity:1;fill:#ffffff;stroke:none;stroke-width:0.17597125"
         id="rect1361"
         width="150.11554"
         height="127.61427"
         x="15.330476"
         y="57.03001" />
    </mask>
  </defs>
  <sodipodi:namedview
     id="base"
     pagecolor="#ffffff"
     bordercolor="#666666"
     borderopacity="1.0"
     inkscape:pageopacity="0.0"
     inkscape:pageshadow="2"
     inkscape:zoom="1.094871"
     inkscape:cx="222.542"
     inkscape:cy="393.66006"
     inkscape:document-units="cm"
     inkscape:current-layer="layer1"
     showgrid="false"
     inkscape:window-width="1920"
     inkscape:window-height="1048"
     inkscape:window-x="0"
     inkscape:window-y="32"
     inkscape:window-maximized="1"
     units="cm"
     showguides="true"
     inkscape:guide-bbox="true">
    <sodipodi:guide
       position="264.37282,-114.06214"
       orientation="0,1"
       id="guide1521"
       inkscape:locked="false" />
  </sodipodi:namedview>
  <metadata
     id="metadata5">
    <rdf:RDF>
      <cc:Work
         rdf:about="">
        <dc:format>image/svg+xml</dc:format>
        <dc:type
           rdf:resource="http://purl.org/dc/dcmitype/StillImage" />
        <dc:title />
      </cc:Work>
    </rdf:RDF>
  </metadata>
  <g
     inkscape:groupmode="layer"
     id="layer1"
     inkscape:label="ketergantungan">
    <path
       style="opacity:1;fill:#ffd5d5;stroke:none;stroke-width:0;stroke-miterlimit:4;stroke-dasharray:none"
       d="m 102.31458,8.6060266 h 99.07939 V 107.38936 h -99.07939 z"
       id="rect1131" />
    <path
       style="opacity:1;fill:#800000;stroke:none;stroke-width:0;stroke-miterlimit:4;stroke-dasharray:none"
       d="M 8.6060286,102.61063 H 201.39396 v 4.77873 H 8.6060286 Z"
       id="rect1023-2-2" />
    <path
       transform="rotate(90)"
       style="opacity:1;fill:#800000;stroke:none;stroke-width:0;stroke-miterlimit:4;stroke-dasharray:none"
       d="M 8.6060276,-107.38937 H 201.39396 v 4.77873 H 8.6060276 Z"
       id="rect1023-2-2-3" />
    <g
       aria-label="KU(x)"
       style="font-style:normal;font-weight:normal;font-size:11.81815052px;line-height:1.25;font-family:sans-serif;letter-spacing:0px;word-spacing:0px;fill:#800000;fill-opacity:1;stroke:none;stroke-width:2.21590304"
       id="text1111">
      <path
         d="m 171.37935,110.57463 h 1.16566 v 3.64124 l 3.86629,-3.64124 h 1.50035 l -4.276,4.01633 4.58184,4.59915 h -1.53497 l -4.13751,-4.14905 v 4.14905 h -1.16566 z"
         style="fill:#800000;stroke-width:2.21590304"
         id="path1273" />
      <path
         d="m 178.67914,110.57463 h 1.17143 v 5.23392 q 0,1.38494 0.50204,1.99662 0.50204,0.60591 1.6273,0.60591 1.11949,0 1.62154,-0.60591 0.50204,-0.61168 0.50204,-1.99662 v -5.23392 h 1.17142 v 5.37818 q 0,1.68501 -0.83673,2.54483 -0.83096,0.85982 -2.45827,0.85982 -1.63307,0 -2.46981,-0.85982 -0.83096,-0.85982 -0.83096,-2.54483 z"
         style="fill:#800000;stroke-width:2.21590304"
         id="path1275" />
      <path
         d="m 189.9664,110.22263 q -0.77326,1.32723 -1.14835,2.62561 -0.37509,1.29838 -0.37509,2.63139 0,1.333 0.37509,2.64292 0.38086,1.30415 1.14835,2.62562 h -0.9233 q -0.86558,-1.35609 -1.29838,-2.66601 -0.42702,-1.30992 -0.42702,-2.60253 0,-1.28684 0.42702,-2.591 0.42703,-1.30415 1.29838,-2.666 z"
         style="fill:#800000;stroke-width:2.21590304"
         id="path1277" />
      <path
         d="m 197.39891,112.72706 -2.33709,3.14497 2.45827,3.31808 h -1.25222 l -1.88121,-2.53906 -1.88121,2.53906 h -1.25221 l 2.5102,-3.38156 -2.29669,-3.08149 h 1.25222 l 1.71386,2.30246 1.71386,-2.30246 z"
         style="fill:#800000;stroke-width:2.21590304"
         id="path1279" />
      <path
         d="m 198.85309,110.22263 h 0.9233 q 0.86558,1.36185 1.29261,2.666 0.43279,1.30416 0.43279,2.591 0,1.29261 -0.43279,2.60253 -0.42703,1.30992 -1.29261,2.66601 h -0.9233 q 0.76749,-1.32147 1.14258,-2.62562 0.38086,-1.30992 0.38086,-2.64292 0,-1.33301 -0.38086,-2.63139 -0.37509,-1.29838 -1.14258,-2.62561 z"
         style="fill:#800000;stroke-width:2.21590304"
         id="path1281" />
    </g>
    <g
       aria-label="KU(y)"
       style="font-style:normal;font-weight:normal;font-size:11.81815052px;line-height:1.25;font-family:sans-serif;letter-spacing:0px;word-spacing:0px;fill:#800000;fill-opacity:1;stroke:none;stroke-width:2.21590304"
       id="text1111-6">
      <path
         d="m 68.79379,10.313618 h 1.165658 v 3.641237 l 3.866289,-3.641237 h 1.500351 l -4.276,4.016325 4.581841,4.599153 h -1.534974 l -4.137507,-4.149048 v 4.149048 H 68.79379 Z"
         style="fill:#800000;stroke-width:2.21590304"
         id="path1284" />
      <path
         d="m 76.093576,10.313618 h 1.171428 v 5.233918 q 0,1.384939 0.502041,1.996621 0.50204,0.605911 1.627303,0.605911 1.119493,0 1.621534,-0.605911 0.50204,-0.611682 0.50204,-1.996621 V 10.313618 H 82.68935 V 15.6918 q 0,1.68501 -0.836734,2.544826 -0.830964,0.859817 -2.458268,0.859817 -1.633074,0 -2.469808,-0.859817 Q 76.093576,17.37681 76.093576,15.6918 Z"
         style="fill:#800000;stroke-width:2.21590304"
         id="path1286" />
      <path
         d="m 87.380834,9.9616129 q -0.773258,1.3272341 -1.148346,2.6256141 -0.375088,1.298381 -0.375088,2.631385 0,1.333005 0.375088,2.642927 0.380858,1.304151 1.148346,2.625614 h -0.923293 q -0.865587,-1.356086 -1.298381,-2.666008 -0.427023,-1.309922 -0.427023,-2.602533 0,-1.286839 0.427023,-2.590991 0.427023,-1.304151 1.298381,-2.6660081 z"
         style="fill:#800000;stroke-width:2.21590304"
         id="path1288" />
      <path
         d="m 92.130023,19.529237 q -0.450106,1.154116 -0.877129,1.506121 -0.427023,0.352006 -1.142575,0.352006 h -0.848275 v -0.88867 h 0.623222 q 0.438565,0 0.680929,-0.207741 0.242364,-0.207741 0.536664,-0.980998 l 0.190429,-0.484729 -2.614073,-6.359181 h 1.125263 l 2.019704,5.055029 2.019703,-5.055029 h 1.125264 z"
         style="fill:#800000;stroke-width:2.21590304"
         id="path1290" />
      <path
         d="m 96.267529,9.9616129 h 0.923293 q 0.865587,1.3618571 1.29261,2.6660081 0.432794,1.304152 0.432794,2.590991 0,1.292611 -0.432794,2.602533 -0.427023,1.309922 -1.29261,2.666008 h -0.923293 q 0.767487,-1.321463 1.142575,-2.625614 0.380858,-1.309922 0.380858,-2.642927 0,-1.333004 -0.380858,-2.631385 -0.375088,-1.29838 -1.142575,-2.6256141 z"
         style="fill:#800000;stroke-width:2.21590304"
         id="path1292" />
    </g>
    <path
       style="opacity:1;fill:#800000;stroke:none;stroke-width:0;stroke-miterlimit:4;stroke-dasharray:none"
       d="m 123.97008,50.989635 a 1.9332565,1.9332565 0 0 1 -1.93326,1.933257 1.9332565,1.9332565 0 0 1 -1.93326,-1.933257 1.9332565,1.9332565 0 0 1 1.93326,-1.933256 1.9332565,1.9332565 0 0 1 1.93326,1.933256 z"
       id="path1133" />
    <path
       style="opacity:1;fill:#800000;stroke:none;stroke-width:0;stroke-miterlimit:4;stroke-dasharray:none"
       d="m 168.67663,100.52934 a 1.9332565,1.9332565 0 0 1 -1.93325,1.93326 1.9332565,1.9332565 0 0 1 -1.93326,-1.93326 1.9332565,1.9332565 0 0 1 1.93326,-1.933254 1.9332565,1.9332565 0 0 1 1.93325,1.933254 z"
       id="path1133-5" />
    <path
       style="opacity:1;fill:#800000;stroke:none;stroke-width:0;stroke-miterlimit:4;stroke-dasharray:none"
       d="m 132.42807,72.013802 a 1.9332565,1.9332565 0 0 1 -1.93326,1.933256 1.9332565,1.9332565 0 0 1 -1.93325,-1.933256 1.9332565,1.9332565 0 0 1 1.93325,-1.933257 1.9332565,1.9332565 0 0 1 1.93326,1.933257 z"
       id="path1133-3" />
    <path
       style="opacity:1;fill:#800000;stroke:none;stroke-width:0;stroke-miterlimit:4;stroke-dasharray:none"
       d="m 163.36018,52.681236 a 1.9332565,1.9332565 0 0 1 -1.93325,1.933257 1.9332565,1.9332565 0 0 1 -1.93326,-1.933257 1.9332565,1.9332565 0 0 1 1.93326,-1.933256 1.9332565,1.9332565 0 0 1 1.93325,1.933256 z"
       id="path1133-56" />
    <path
       style="opacity:1;fill:#800000;stroke:none;stroke-width:0;stroke-miterlimit:4;stroke-dasharray:none"
       d="m 180.51784,30.207129 a 1.9332565,1.9332565 0 0 1 -1.93326,1.933256 1.9332565,1.9332565 0 0 1 -1.93326,-1.933256 1.9332565,1.9332565 0 0 1 1.93326,-1.933257 1.9332565,1.9332565 0 0 1 1.93326,1.933257 z"
       id="path1133-2" />
    <path
       style="opacity:1;fill:#800000;stroke:none;stroke-width:0;stroke-miterlimit:4;stroke-dasharray:none"
       d="m 152.0023,73.222084 a 1.9332565,1.9332565 0 0 1 -1.93325,1.933257 1.9332565,1.9332565 0 0 1 -1.93326,-1.933257 1.9332565,1.9332565 0 0 1 1.93326,-1.933256 1.9332565,1.9332565 0 0 1 1.93325,1.933256 z"
       id="path1133-9" />
    <path
       style="opacity:1;fill:#800000;stroke:none;stroke-width:0;stroke-miterlimit:4;stroke-dasharray:none"
       d="m 144.02762,77.813568 a 1.9332565,1.9332565 0 0 1 -1.93326,1.933257 1.9332565,1.9332565 0 0 1 -1.93326,-1.933257 1.9332565,1.9332565 0 0 1 1.93326,-1.933256 1.9332565,1.9332565 0 0 1 1.93326,1.933256 z"
       id="path1133-1" />
    <path
       style="opacity:1;fill:#800000;stroke:none;stroke-width:0;stroke-miterlimit:4;stroke-dasharray:none"
       d="m 133.87802,21.024158 a 1.9332565,1.9332565 0 0 1 -1.93326,1.933257 1.9332565,1.9332565 0 0 1 -1.93325,-1.933257 1.9332565,1.9332565 0 0 1 1.93325,-1.933256 1.9332565,1.9332565 0 0 1 1.93326,1.933256 z"
       id="path1133-27" />
    <path
       style="opacity:1;fill:#800000;stroke:none;stroke-width:0;stroke-miterlimit:4;stroke-dasharray:none"
       d="m 178.34292,69.83889 a 1.9332565,1.9332565 0 0 1 -1.93325,1.933257 1.9332565,1.9332565 0 0 1 -1.93326,-1.933257 1.9332565,1.9332565 0 0 1 1.93326,-1.933256 1.9332565,1.9332565 0 0 1 1.93325,1.933256 z"
       id="path1133-0" />
    <path
       style="opacity:1;fill:#800000;stroke:none;stroke-width:0;stroke-miterlimit:4;stroke-dasharray:none"
       d="m 189.94246,79.746826 a 1.9332565,1.9332565 0 0 1 -1.93326,1.933257 1.9332565,1.9332565 0 0 1 -1.93326,-1.933257 1.9332565,1.9332565 0 0 1 1.93326,-1.933256 1.9332565,1.9332565 0 0 1 1.93326,1.933256 z"
       id="path1133-93" />
    <path
       style="opacity:1;fill:#800000;stroke:none;stroke-width:0;stroke-miterlimit:4;stroke-dasharray:none"
       d="m 145.71922,45.431522 a 1.9332565,1.9332565 0 0 1 -1.93326,1.933257 1.9332565,1.9332565 0 0 1 -1.93325,-1.933257 1.9332565,1.9332565 0 0 1 1.93325,-1.933256 1.9332565,1.9332565 0 0 1 1.93326,1.933256 z"
       id="path1133-6" />
    <path
       style="opacity:1;fill:#800000;stroke:none;stroke-width:0;stroke-miterlimit:4;stroke-dasharray:none"
       d="m 164.32681,16.674332 a 1.9332565,1.9332565 0 0 1 -1.93326,1.933256 1.9332565,1.9332565 0 0 1 -1.93325,-1.933256 1.9332565,1.9332565 0 0 1 1.93325,-1.933257 1.9332565,1.9332565 0 0 1 1.93326,1.933257 z"
       id="path1133-06" />
    <path
       style="opacity:1;fill:#800000;stroke:none;stroke-width:0;stroke-miterlimit:4;stroke-dasharray:none"
       d="m 193.80897,54.372837 a 1.9332565,1.9332565 0 0 1 -1.93325,1.933257 1.9332565,1.9332565 0 0 1 -1.93326,-1.933257 1.9332565,1.9332565 0 0 1 1.93326,-1.933256 1.9332565,1.9332565 0 0 1 1.93325,1.933256 z"
       id="path1133-26" />
    <path
       style="opacity:1;fill:#800000;stroke:none;stroke-width:0;stroke-miterlimit:4;stroke-dasharray:none"
       d="m 123.48675,99.079391 a 1.9332565,1.9332565 0 0 1 -1.93325,1.933259 1.9332565,1.9332565 0 0 1 -1.93326,-1.933259 1.9332565,1.9332565 0 0 1 1.93326,-1.933256 1.9332565,1.9332565 0 0 1 1.93325,1.933256 z"
       id="path1133-18" />
    <path
       style="opacity:1;fill:#800000;stroke:none;stroke-width:0;stroke-miterlimit:4;stroke-dasharray:none"
       d="m 114.06214,83.371681 a 1.9332565,1.9332565 0 0 1 -1.93326,1.933257 1.9332565,1.9332565 0 0 1 -1.93325,-1.933257 1.9332565,1.9332565 0 0 1 1.93325,-1.933256 1.9332565,1.9332565 0 0 1 1.93326,1.933256 z"
       id="path1133-7" />
    <path
       style="opacity:1;fill:#800000;stroke:none;stroke-width:0;stroke-miterlimit:4;stroke-dasharray:none"
       d="m 143.30264,94.729568 a 1.9332565,1.9332565 0 0 1 -1.93326,1.933257 1.9332565,1.9332565 0 0 1 -1.93325,-1.933257 1.9332565,1.9332565 0 0 1 1.93325,-1.933256 1.9332565,1.9332565 0 0 1 1.93326,1.933256 z"
       id="path1133-92" />
    <path
       style="opacity:1;fill:#800000;stroke:none;stroke-width:0;stroke-miterlimit:4;stroke-dasharray:none"
       d="m 171.81817,88.204826 a 1.9332565,1.9332565 0 0 1 -1.93325,1.933257 1.9332565,1.9332565 0 0 1 -1.93326,-1.933257 1.9332565,1.9332565 0 0 1 1.93326,-1.933256 1.9332565,1.9332565 0 0 1 1.93325,1.933256 z"
       id="path1133-02" />
    <path
       style="opacity:1;fill:#800000;stroke:none;stroke-width:0;stroke-miterlimit:4;stroke-dasharray:none"
       d="m 193.80897,96.421165 a 1.9332565,1.9332565 0 0 1 -1.93325,1.933257 1.9332565,1.9332565 0 0 1 -1.93326,-1.933257 1.9332565,1.9332565 0 0 1 1.93326,-1.933256 1.9332565,1.9332565 0 0 1 1.93325,1.933256 z"
       id="path1133-37" />
    <path
       style="opacity:1;fill:#800000;stroke:none;stroke-width:0;stroke-miterlimit:4;stroke-dasharray:none"
       d="m 119.86191,60.414261 a 1.9332565,1.9332565 0 0 1 -1.93326,1.933256 1.9332565,1.9332565 0 0 1 -1.93326,-1.933256 1.9332565,1.9332565 0 0 1 1.93326,-1.933257 1.9332565,1.9332565 0 0 1 1.93326,1.933257 z"
       id="path1133-59" />
    <path
       style="opacity:1;fill:#800000;stroke:none;stroke-width:0;stroke-miterlimit:4;stroke-dasharray:none"
       d="m 109.95397,25.13233 a 1.9332565,1.9332565 0 0 1 -1.93326,1.933256 1.9332565,1.9332565 0 0 1 -1.93325,-1.933256 1.9332565,1.9332565 0 0 1 1.93325,-1.933257 1.9332565,1.9332565 0 0 1 1.93326,1.933257 z"
       id="path1133-22" />
    <path
       style="opacity:1;fill:#800000;stroke:none;stroke-width:0;stroke-miterlimit:4;stroke-dasharray:none"
       d="m 128.80321,32.865356 a 1.9332565,1.9332565 0 0 1 -1.93325,1.933257 1.9332565,1.9332565 0 0 1 -1.93326,-1.933257 1.9332565,1.9332565 0 0 1 1.93326,-1.933256 1.9332565,1.9332565 0 0 1 1.93325,1.933256 z"
       id="path1133-8" />
    <path
       style="opacity:1;fill:#800000;stroke:none;stroke-width:0;stroke-miterlimit:4;stroke-dasharray:none"
       d="m 149.82739,32.140385 a 1.9332565,1.9332565 0 0 1 -1.93326,1.933256 1.9332565,1.9332565 0 0 1 -1.93325,-1.933256 1.9332565,1.9332565 0 0 1 1.93325,-1.933257 1.9332565,1.9332565 0 0 1 1.93326,1.933257 z"
       id="path1133-97" />
  </g>
</svg>
