<?xml version="1.0" encoding="UTF-8" standalone="no"?>
<!DOCTYPE svg PUBLIC "-//W3C//DTD SVG 1.1//EN"
 "http://www.w3.org/Graphics/SVG/1.1/DTD/svg11.dtd">
<!-- Generated by graphviz version 2.43.0 (0)
 -->
<!-- Title: G Pages: 1 -->
<svg width="330pt" height="266pt"
 viewBox="0.00 0.00 329.50 266.00" xmlns="http://www.w3.org/2000/svg" xmlns:xlink="http://www.w3.org/1999/xlink">
<g id="graph0" class="graph" transform="scale(1 1) rotate(0) translate(4 262)">
<title>G</title>
<polygon fill="white" stroke="transparent" points="-4,4 -4,-262 325.5,-262 325.5,4 -4,4"/>
<!-- a0 -->
<g id="node1" class="node">
<title>a0</title>
<polygon fill="#800000" stroke="#800000" points="102.5,-258 43.5,-258 43.5,-222 102.5,-222 102.5,-258"/>
<text text-anchor="middle" x="73" y="-236.3" font-family="Times,serif" font-size="14.00" fill="white">Maggot</text>
</g>
<!-- a1 -->
<g id="node2" class="node">
<title>a1</title>
<polygon fill="#ffd5d5" stroke="#ffd5d5" points="146,-186 0,-186 0,-148 146,-148 146,-186"/>
<text text-anchor="middle" x="73" y="-170.8" font-family="Times,serif" font-size="14.00">Kuantitas</text>
<text text-anchor="middle" x="73" y="-155.8" font-family="Times,serif" font-size="14.00">(&lt; 10 mg dari jaringan)</text>
</g>
<!-- a0&#45;&gt;a1 -->
<g id="edge1" class="edge">
<title>a0&#45;&gt;a1</title>
<path fill="none" stroke="black" d="M73,-221.81C73,-214.11 73,-204.82 73,-196.15"/>
<polygon fill="black" stroke="black" points="76.5,-196.02 73,-186.02 69.5,-196.02 76.5,-196.02"/>
</g>
<!-- a2 -->
<g id="node3" class="node">
<title>a2</title>
<polygon fill="#ffd5d5" stroke="#ffd5d5" points="115,-112 31,-112 31,-74 115,-74 115,-112"/>
<text text-anchor="middle" x="73" y="-96.8" font-family="Times,serif" font-size="14.00">Resuspensi</text>
<text text-anchor="middle" x="73" y="-81.8" font-family="Times,serif" font-size="14.00">(buffer lisis)</text>
</g>
<!-- a1&#45;&gt;a2 -->
<g id="edge2" class="edge">
<title>a1&#45;&gt;a2</title>
<path fill="none" stroke="black" d="M73,-147.83C73,-140.13 73,-130.97 73,-122.42"/>
<polygon fill="black" stroke="black" points="76.5,-122.41 73,-112.41 69.5,-122.41 76.5,-122.41"/>
</g>
<!-- a3 -->
<g id="node4" class="node">
<title>a3</title>
<polygon fill="#ffd5d5" stroke="#ffd5d5" points="146,-38 0,-38 0,0 146,0 146,-38"/>
<text text-anchor="middle" x="73" y="-22.8" font-family="Times,serif" font-size="14.00">Pengikatan RNA</text>
<text text-anchor="middle" x="73" y="-7.8" font-family="Times,serif" font-size="14.00">(1 menit; ≥ 10,000 × g)</text>
</g>
<!-- a2&#45;&gt;a3 -->
<g id="edge3" class="edge">
<title>a2&#45;&gt;a3</title>
<path fill="none" stroke="black" d="M73,-73.83C73,-66.13 73,-56.97 73,-48.42"/>
<polygon fill="black" stroke="black" points="76.5,-48.41 73,-38.41 69.5,-48.41 76.5,-48.41"/>
</g>
<!-- b3 -->
<g id="node5" class="node">
<title>b3</title>
<polygon fill="#ffd5d5" stroke="#ffd5d5" points="321.5,-38 164.5,-38 164.5,0 321.5,0 321.5,-38"/>
<text text-anchor="middle" x="243" y="-22.8" font-family="Times,serif" font-size="14.00">Eliminasi protein</text>
<text text-anchor="middle" x="243" y="-7.8" font-family="Times,serif" font-size="14.00">(0.5 menit; ≥ 10,000 × g)</text>
</g>
<!-- a3&#45;&gt;b3 -->
<g id="edge7" class="edge">
<title>a3&#45;&gt;b3</title>
<path fill="none" stroke="black" d="M146.05,-19C148.7,-19 151.35,-19 154,-19"/>
<polygon fill="black" stroke="black" points="154.23,-22.5 164.23,-19 154.23,-15.5 154.23,-22.5"/>
</g>
<!-- b2 -->
<g id="node6" class="node">
<title>b2</title>
<polygon fill="#ffd5d5" stroke="#ffd5d5" points="321.5,-112 164.5,-112 164.5,-74 321.5,-74 321.5,-112"/>
<text text-anchor="middle" x="243" y="-96.8" font-family="Times,serif" font-size="14.00">Desalinasi</text>
<text text-anchor="middle" x="243" y="-81.8" font-family="Times,serif" font-size="14.00">(0.5 menit; ≥ 10,000 × g)</text>
</g>
<!-- b3&#45;&gt;b2 -->
<g id="edge4" class="edge">
<title>b3&#45;&gt;b2</title>
<path fill="none" stroke="black" d="M243,-38.41C243,-46.06 243,-55.11 243,-63.57"/>
<polygon fill="black" stroke="black" points="239.5,-63.83 243,-73.83 246.5,-63.83 239.5,-63.83"/>
</g>
<!-- b1 -->
<g id="node7" class="node">
<title>b1</title>
<polygon fill="#ffd5d5" stroke="#ffd5d5" points="316,-186 170,-186 170,-148 316,-148 316,-186"/>
<text text-anchor="middle" x="243" y="-170.8" font-family="Times,serif" font-size="14.00">Elusi RNA</text>
<text text-anchor="middle" x="243" y="-155.8" font-family="Times,serif" font-size="14.00">(1 menit; ≥ 10,000 × g)</text>
</g>
<!-- b2&#45;&gt;b1 -->
<g id="edge5" class="edge">
<title>b2&#45;&gt;b1</title>
<path fill="none" stroke="black" d="M243,-112.41C243,-120.06 243,-129.11 243,-137.57"/>
<polygon fill="black" stroke="black" points="239.5,-137.83 243,-147.83 246.5,-137.83 239.5,-137.83"/>
</g>
<!-- b0 -->
<g id="node8" class="node">
<title>b0</title>
<polygon fill="#800000" stroke="#800000" points="270,-258 216,-258 216,-222 270,-222 270,-258"/>
<text text-anchor="middle" x="243" y="-236.3" font-family="Times,serif" font-size="14.00" fill="white">RNA</text>
</g>
<!-- b1&#45;&gt;b0 -->
<g id="edge6" class="edge">
<title>b1&#45;&gt;b0</title>
<path fill="none" stroke="black" d="M243,-186.02C243,-193.83 243,-203.15 243,-211.78"/>
<polygon fill="black" stroke="black" points="239.5,-211.81 243,-221.81 246.5,-211.81 239.5,-211.81"/>
</g>
</g>
</svg>
