<?xml version="1.0" encoding="UTF-8" standalone="no"?>
<!-- Created with Inkscape (http://www.inkscape.org/) -->

<svg
   xmlns:dc="http://purl.org/dc/elements/1.1/"
   xmlns:cc="http://creativecommons.org/ns#"
   xmlns:rdf="http://www.w3.org/1999/02/22-rdf-syntax-ns#"
   xmlns:svg="http://www.w3.org/2000/svg"
   xmlns="http://www.w3.org/2000/svg"
   xmlns:sodipodi="http://sodipodi.sourceforge.net/DTD/sodipodi-0.dtd"
   xmlns:inkscape="http://www.inkscape.org/namespaces/inkscape"
   width="21cm"
   height="21cm"
   viewBox="0 0 209.99999 210"
   version="1.1"
   id="svg8"
   inkscape:version="0.92.5 (2060ec1f9f, 2020-04-08)"
   sodipodi:docname="presentasi-metal-3.svg"
   inkscape:export-filename="/home/sholikinshino/Desktop/Pelatihan/pelatihan-2020-metal/ch1_intro_and_build_data/Sholikin_2020__Metal.png"
   inkscape:export-xdpi="750.02698"
   inkscape:export-ydpi="750.02698">
  <defs
     id="defs2">
    <mask
       maskUnits="userSpaceOnUse"
       id="mask1359">
      <rect
         style="display:inline;opacity:1;fill:#ffffff;stroke:none;stroke-width:0.17597125"
         id="rect1361"
         width="150.11554"
         height="127.61427"
         x="15.330476"
         y="57.03001" />
    </mask>
  </defs>
  <sodipodi:namedview
     id="base"
     pagecolor="#ffffff"
     bordercolor="#666666"
     borderopacity="1.0"
     inkscape:pageopacity="0.0"
     inkscape:pageshadow="2"
     inkscape:zoom="1.094871"
     inkscape:cx="-171.70972"
     inkscape:cy="396.85041"
     inkscape:document-units="cm"
     inkscape:current-layer="layer3"
     showgrid="false"
     inkscape:window-width="1920"
     inkscape:window-height="1048"
     inkscape:window-x="0"
     inkscape:window-y="32"
     inkscape:window-maximized="1"
     units="cm" />
  <metadata
     id="metadata5">
    <rdf:RDF>
      <cc:Work
         rdf:about="">
        <dc:format>image/svg+xml</dc:format>
        <dc:type
           rdf:resource="http://purl.org/dc/dcmitype/StillImage" />
        <dc:title />
      </cc:Work>
    </rdf:RDF>
  </metadata>
  <g
     inkscape:groupmode="layer"
     id="layer3"
     inkscape:label="Author"
     style="display:inline">
    <text
       xml:space="preserve"
       style="font-style:normal;font-weight:normal;font-size:7.77241039px;line-height:1.25;font-family:sans-serif;letter-spacing:0px;word-spacing:0px;display:inline;opacity:1;fill:#800000;fill-opacity:1;stroke:none;stroke-width:0.19431026"
       x="152.53464"
       y="205.68997"
       id="text1593"><tspan
         sodipodi:role="line"
         id="tspan1591"
         x="152.53464"
         y="205.68997"
         style="fill:#800000;stroke-width:0.19431026">Sholikin 2020</tspan></text>
  </g>
  <g
     inkscape:groupmode="layer"
     id="layer2"
     inkscape:label="Topik"
     transform="translate(0,-87)"
     style="display:inline">
    <g
       id="g1259"
       transform="translate(0,0.89251701)">
      <rect
         transform="rotate(70.874193)"
         y="-87.178932"
         x="233.00833"
         height="85.500641"
         width="10.125075"
         id="rect1185-3-3"
         style="display:inline;opacity:1;fill:#2b0000;stroke:none;stroke-width:0.99067247" />
      <g
         transform="matrix(3.4794252,0,0,3.4794252,-245.58573,-305.89738)"
         id="g948-3-7"
         style="display:inline;opacity:1">
        <path
           sodipodi:nodetypes="cccccc"
           style="fill:none;stroke:none;stroke-width:0.16940407"
           d="m 99.777954,168.97538 c -13.440466,5.64658 -23.436407,-3.41115 -23.715875,-13.61935 0.0034,-7.38201 4.476298,-13.19659 8.77574,-16.40455 -7.378283,2.03755 -12.256581,8.74995 -12.25716,16.40441 -3.1e-5,9.39979 7.620019,17.01985 17.019816,17.01982 3.670396,-0.006 7.240383,-1.19914 10.177479,-3.40033 z"
           id="path886-7-3-7-67-5"
           inkscape:connector-curvature="0" />
        <g
           transform="matrix(-0.55595933,0.31757134,-0.31757134,-0.55595933,183.04771,199.93941)"
           id="g960-5-3">
          <circle
             transform="rotate(146.45797)"
             r="26.582277"
             cy="-161.55928"
             cx="-3.4417033"
             id="path886-75-9-0-35-5"
             style="fill:#f4d7d7;stroke:none;stroke-width:3.25999999;stroke-miterlimit:4;stroke-dasharray:none" />
          <path
             inkscape:connector-curvature="0"
             id="path886-7-3-1-9-62-6"
             d="m 107.8829,153.87554 c -20.991957,8.8191 -36.604093,-5.32769 -37.040579,-21.27134 0.0052,-11.52957 6.991295,-20.61106 13.706367,-25.6214 -11.523753,3.18234 -19.142911,13.66609 -19.143814,25.62118 -4.9e-5,14.68104 11.901306,26.58241 26.582357,26.58236 5.732597,-0.01 10.207149,-0.56515 15.895669,-5.3108 z"
             style="fill:#e9afaf;stroke:none;stroke-width:0.26458332"
             sodipodi:nodetypes="cccccc" />
        </g>
        <text
           xml:space="preserve"
           style="font-style:normal;font-weight:normal;font-size:8.62893105px;line-height:1.25;font-family:sans-serif;letter-spacing:0px;word-spacing:0px;fill:#800000;fill-opacity:1;stroke:none;stroke-width:0.21572326"
           x="88.741928"
           y="158.32878"
           id="text943-5-3-9-2"><tspan
             id="tspan861-27-9"
             sodipodi:role="line"
             x="88.741928"
             y="158.32878"
             style="font-style:normal;font-variant:normal;font-weight:normal;font-stretch:normal;font-family:sans-serif;-inkscape-font-specification:sans-serif;text-align:center;text-anchor:middle;fill:#800000;stroke-width:0.21572326">TOPIK</tspan></text>
      </g>
      <g
         transform="matrix(1.3195075,0,0,1.3195075,45.563861,20.079557)"
         id="g948-0-3-8-1"
         style="display:inline;opacity:1">
        <path
           sodipodi:nodetypes="cccccc"
           style="fill:none;stroke:none;stroke-width:0.26458332"
           d="m 107.8829,153.87554 c -20.991957,8.8191 -36.604093,-5.32769 -37.040579,-21.27134 0.0052,-11.52957 6.991295,-20.61106 13.706367,-25.6214 -11.523753,3.18234 -19.142911,13.66609 -19.143814,25.62118 -4.9e-5,14.68104 11.901306,26.58241 26.582357,26.58236 5.732597,-0.01 11.308369,-1.87286 15.895669,-5.3108 z"
           id="path886-7-3-7-6-7-7-2"
           inkscape:connector-curvature="0" />
        <g
           transform="rotate(137.94696,92.058893,132.75022)"
           id="g960-2-5-9-70">
          <circle
             transform="rotate(-150)"
             r="26.582277"
             cy="-69.041718"
             cx="-145.98666"
             id="path886-75-9-0-6-9-2-9"
             style="fill:#aa0000;stroke:none;stroke-width:3.25999999;stroke-miterlimit:4;stroke-dasharray:none" />
          <path
             inkscape:connector-curvature="0"
             id="path886-7-3-1-9-1-2-0-36"
             d="M 75.581375,153.46012 C 61.62966,135.466 71.253692,116.72437 86.541104,112.17624 c 11.138056,-2.97905 21.718236,1.41854 28.295846,6.60803 -6.05648,-10.30744 -18.154984,-14.95359 -29.702948,-11.86026 -14.180808,3.79969 -22.596352,18.37581 -18.796568,32.55661 1.493365,5.53467 3.187698,9.71307 9.243941,13.9795 z"
             style="fill:#800000;stroke:none;stroke-width:0.26458332"
             sodipodi:nodetypes="cccccc" />
        </g>
        <text
           xml:space="preserve"
           style="font-style:normal;font-weight:normal;font-size:12.71215916px;line-height:1.25;font-family:sans-serif;letter-spacing:0px;word-spacing:0px;fill:#ffffff;fill-opacity:1;stroke:none;stroke-width:0.31780398"
           x="90.631554"
           y="128.65102"
           id="text943-5-3-8-2-2-0"><tspan
             id="tspan1015-7-3-6"
             sodipodi:role="line"
             x="90.631554"
             y="128.65102"
             style="font-style:normal;font-variant:normal;font-weight:bold;font-stretch:normal;font-family:sans-serif;-inkscape-font-specification:'sans-serif Bold';text-align:center;text-anchor:middle;fill:#ffffff;stroke-width:0.31780398"><tspan
   id="tspan1284-2"
   style="font-style:normal;font-variant:normal;font-weight:normal;font-stretch:normal;font-family:sans-serif;-inkscape-font-specification:sans-serif">NGE</tspan>-</tspan><tspan
             id="tspan1282-6"
             sodipodi:role="line"
             x="90.631554"
             y="144.54121"
             style="font-style:normal;font-variant:normal;font-weight:bold;font-stretch:normal;font-family:sans-serif;-inkscape-font-specification:'sans-serif Bold';text-align:center;text-anchor:middle;fill:#ffffff;stroke-width:0.31780398">TREN</tspan></text>
      </g>
      <g
         style="display:inline;opacity:1"
         transform="matrix(0.87982471,0,0,0.87982471,36.339257,31.834277)"
         id="g948-9-3-1-61-1">
        <path
           sodipodi:nodetypes="cccccc"
           style="fill:none;stroke:none;stroke-width:0.26458332"
           d="m 107.8829,153.87554 c -20.991957,8.8191 -36.604093,-5.32769 -37.040579,-21.27134 0.0052,-11.52957 6.991295,-20.61106 13.706367,-25.6214 -11.523753,3.18234 -19.142911,13.66609 -19.143814,25.62118 -4.9e-5,14.68104 11.901306,26.58241 26.582357,26.58236 5.732597,-0.01 11.308369,-1.87286 15.895669,-5.3108 z"
           id="path886-7-3-7-2-6-0-0-87"
           inkscape:connector-curvature="0" />
        <g
           transform="rotate(-71.500344,92.210639,132.3955)"
           id="g960-0-1-6-6-9">
          <circle
             transform="rotate(-105)"
             r="26.582277"
             cy="54.352333"
             cx="-151.91292"
             id="path886-75-9-0-2-2-3-3-2"
             style="fill:#f4d7d7;stroke:none;stroke-width:3.25999999;stroke-miterlimit:4;stroke-dasharray:none" />
          <path
             inkscape:connector-curvature="0"
             id="path886-7-3-1-9-3-9-2-2-0"
             d="m 65.65474,135.74439 c 2.858414,-22.58912 22.915961,-29.03623 36.94181,-21.44241 9.9823,5.76929 14.35405,16.36017 15.3356,24.68076 3.00589,-11.57103 -2.26373,-23.41129 -12.61669,-29.38962 -12.714125,-7.34056 -28.971691,-2.98437 -36.312174,9.72982 -2.857638,4.96957 -4.61414,9.12222 -3.348546,16.42145 z"
             style="fill:#e9afaf;stroke:none;stroke-width:0.26458332"
             sodipodi:nodetypes="cccccc" />
        </g>
        <text
           xml:space="preserve"
           style="font-style:normal;font-weight:normal;font-size:10.48901653px;line-height:1.25;font-family:sans-serif;letter-spacing:0px;word-spacing:0px;fill:#800000;fill-opacity:1;stroke:none;stroke-width:0.26222542"
           x="91.443039"
           y="135.10516"
           id="text943-5-3-7-3-06-06-23"><tspan
             id="tspan1019-9-5-1-7"
             sodipodi:role="line"
             x="91.443039"
             y="135.10516"
             style="font-style:normal;font-variant:normal;font-weight:bold;font-stretch:normal;font-family:sans-serif;-inkscape-font-specification:'sans-serif Bold';text-align:center;text-anchor:middle;fill:#800000;stroke-width:0.26222542">Review</tspan></text>
      </g>
      <g
         transform="matrix(0.5630356,0,0,0.5630356,59.05783,30.523431)"
         id="g948-0-3-8-3-5"
         style="display:inline;opacity:1">
        <path
           sodipodi:nodetypes="cccccc"
           style="fill:none;stroke:none;stroke-width:0.26458332"
           d="m 107.8829,153.87554 c -20.991957,8.8191 -36.604093,-5.32769 -37.040579,-21.27134 0.0052,-11.52957 6.991295,-20.61106 13.706367,-25.6214 -11.523753,3.18234 -19.142911,13.66609 -19.143814,25.62118 -4.9e-5,14.68104 11.901306,26.58241 26.582357,26.58236 5.732597,-0.01 11.308369,-1.87286 15.895669,-5.3108 z"
           id="path886-7-3-7-6-7-7-6-9"
           inkscape:connector-curvature="0" />
        <g
           transform="rotate(-8.2273469,67.774879,118.0898)"
           id="g960-2-5-9-7-2">
          <circle
             transform="rotate(-150)"
             r="26.582277"
             cy="-69.041718"
             cx="-145.98666"
             id="path886-75-9-0-6-9-2-5-2"
             style="fill:#aa0000;stroke:none;stroke-width:3.25999999;stroke-miterlimit:4;stroke-dasharray:none" />
          <path
             inkscape:connector-curvature="0"
             id="path886-7-3-1-9-1-2-0-3-8"
             d="M 75.581375,153.46012 C 61.62966,135.466 71.253692,116.72437 86.541104,112.17624 c 11.138056,-2.97905 21.718236,1.41854 28.295846,6.60803 -6.05648,-10.30744 -18.154984,-14.95359 -29.702948,-11.86026 -14.180808,3.79969 -22.596352,18.37581 -18.796568,32.55661 1.493365,5.53467 3.187698,9.71307 9.243941,13.9795 z"
             style="fill:#800000;stroke:none;stroke-width:0.26458332"
             sodipodi:nodetypes="cccccc" />
        </g>
        <text
           xml:space="preserve"
           style="font-style:normal;font-weight:normal;font-size:11.11926937px;line-height:1.25;font-family:sans-serif;letter-spacing:0px;word-spacing:0px;fill:#ffffff;fill-opacity:1;stroke:none;stroke-width:0.27798173"
           x="90.56855"
           y="129.04146"
           id="text943-5-3-8-2-2-5-9"><tspan
             id="tspan1282-9-7"
             sodipodi:role="line"
             x="90.56855"
             y="129.04146"
             style="font-style:normal;font-variant:normal;font-weight:bold;font-stretch:normal;font-family:sans-serif;-inkscape-font-specification:'sans-serif Bold';text-align:center;text-anchor:middle;fill:#ffffff;stroke-width:0.27798173">Artikel</tspan><tspan
             id="tspan1176-3"
             sodipodi:role="line"
             x="90.56855"
             y="142.94055"
             style="font-style:normal;font-variant:normal;font-weight:bold;font-stretch:normal;font-family:sans-serif;-inkscape-font-specification:'sans-serif Bold';text-align:center;text-anchor:middle;fill:#ffffff;stroke-width:0.27798173">1</tspan></text>
      </g>
      <g
         transform="matrix(0.5630356,0,0,0.5630356,90.652703,36.538652)"
         id="g948-0-3-8-3-1-61"
         style="display:inline;opacity:1">
        <path
           sodipodi:nodetypes="cccccc"
           style="fill:none;stroke:none;stroke-width:0.26458332"
           d="m 107.8829,153.87554 c -20.991957,8.8191 -36.604093,-5.32769 -37.040579,-21.27134 0.0052,-11.52957 6.991295,-20.61106 13.706367,-25.6214 -11.523753,3.18234 -19.142911,13.66609 -19.143814,25.62118 -4.9e-5,14.68104 11.901306,26.58241 26.582357,26.58236 5.732597,-0.01 11.308369,-1.87286 15.895669,-5.3108 z"
           id="path886-7-3-7-6-7-7-6-2-29"
           inkscape:connector-curvature="0" />
        <g
           transform="rotate(67.000001,95.632249,132.19585)"
           id="g960-2-5-9-7-7-3">
          <circle
             transform="rotate(-150)"
             r="26.582277"
             cy="-69.041718"
             cx="-145.98666"
             id="path886-75-9-0-6-9-2-5-0-19"
             style="fill:#aa0000;stroke:none;stroke-width:3.25999999;stroke-miterlimit:4;stroke-dasharray:none" />
          <path
             inkscape:connector-curvature="0"
             id="path886-7-3-1-9-1-2-0-3-9-4"
             d="M 75.581375,153.46012 C 61.62966,135.466 71.253692,116.72437 86.541104,112.17624 c 11.138056,-2.97905 21.718236,1.41854 28.295846,6.60803 -6.05648,-10.30744 -18.154984,-14.95359 -29.702948,-11.86026 -14.180808,3.79969 -22.596352,18.37581 -18.796568,32.55661 1.493365,5.53467 3.187698,9.71307 9.243941,13.9795 z"
             style="fill:#800000;stroke:none;stroke-width:0.26458332"
             sodipodi:nodetypes="cccccc" />
        </g>
        <text
           xml:space="preserve"
           style="font-style:normal;font-weight:normal;font-size:11.11926937px;line-height:1.25;font-family:sans-serif;letter-spacing:0px;word-spacing:0px;fill:#ffffff;fill-opacity:1;stroke:none;stroke-width:0.27798173"
           x="90.56855"
           y="129.04146"
           id="text943-5-3-8-2-2-5-3-78"><tspan
             id="tspan1176-0-4"
             sodipodi:role="line"
             x="90.56855"
             y="129.04146"
             style="font-style:normal;font-variant:normal;font-weight:bold;font-stretch:normal;font-family:sans-serif;-inkscape-font-specification:'sans-serif Bold';text-align:center;text-anchor:middle;fill:#ffffff;stroke-width:0.27798173">Artikel</tspan><tspan
             id="tspan1216-5"
             sodipodi:role="line"
             x="90.56855"
             y="142.94055"
             style="font-style:normal;font-variant:normal;font-weight:bold;font-stretch:normal;font-family:sans-serif;-inkscape-font-specification:'sans-serif Bold';text-align:center;text-anchor:middle;fill:#ffffff;stroke-width:0.27798173">2</tspan></text>
      </g>
      <g
         transform="matrix(0.5630356,0,0,0.5630356,111.92177,62.494138)"
         id="g948-0-3-8-3-1-6-0"
         style="display:inline;opacity:1">
        <path
           sodipodi:nodetypes="cccccc"
           style="fill:none;stroke:none;stroke-width:0.26458332"
           d="m 107.8829,153.87554 c -20.991957,8.8191 -36.604093,-5.32769 -37.040579,-21.27134 0.0052,-11.52957 6.991295,-20.61106 13.706367,-25.6214 -11.523753,3.18234 -19.142911,13.66609 -19.143814,25.62118 -4.9e-5,14.68104 11.901306,26.58241 26.582357,26.58236 5.732597,-0.01 11.308369,-1.87286 15.895669,-5.3108 z"
           id="path886-7-3-7-6-7-7-6-2-2-3"
           inkscape:connector-curvature="0" />
        <g
           transform="rotate(30.436689,99.639052,134.12736)"
           id="g960-2-5-9-7-7-6-6">
          <circle
             transform="rotate(-46.587585)"
             r="26.582277"
             cy="157.62325"
             cx="-33.514217"
             id="path886-75-9-0-6-9-2-5-0-1-1"
             style="fill:#aa0000;stroke:none;stroke-width:3.25999999;stroke-miterlimit:4;stroke-dasharray:none" />
          <path
             inkscape:connector-curvature="0"
             id="path886-7-3-1-9-1-2-0-3-9-8-0"
             d="M 75.581375,153.46012 C 61.62966,135.466 71.253692,116.72437 86.541104,112.17624 c 11.138056,-2.97905 21.718236,1.41854 28.295846,6.60803 -6.05648,-10.30744 -18.154984,-14.95359 -29.702948,-11.86026 -14.180808,3.79969 -22.596352,18.37581 -18.796568,32.55661 1.493365,5.53467 3.187698,9.71307 9.243941,13.9795 z"
             style="fill:#800000;stroke:none;stroke-width:0.26458332"
             sodipodi:nodetypes="cccccc" />
        </g>
        <text
           xml:space="preserve"
           style="font-style:normal;font-weight:normal;font-size:11.11926937px;line-height:1.25;font-family:sans-serif;letter-spacing:0px;word-spacing:0px;fill:#ffffff;fill-opacity:1;stroke:none;stroke-width:0.27798173"
           x="90.56855"
           y="129.04146"
           id="text943-5-3-8-2-2-5-3-7-6"><tspan
             id="tspan1176-0-9-3"
             sodipodi:role="line"
             x="90.56855"
             y="129.04146"
             style="font-style:normal;font-variant:normal;font-weight:bold;font-stretch:normal;font-family:sans-serif;-inkscape-font-specification:'sans-serif Bold';text-align:center;text-anchor:middle;fill:#ffffff;stroke-width:0.27798173">Artikel</tspan><tspan
             id="tspan1216-2-2"
             sodipodi:role="line"
             x="90.56855"
             y="142.94055"
             style="font-style:normal;font-variant:normal;font-weight:bold;font-stretch:normal;font-family:sans-serif;-inkscape-font-specification:'sans-serif Bold';text-align:center;text-anchor:middle;fill:#ffffff;stroke-width:0.27798173">3</tspan></text>
      </g>
    </g>
  </g>
</svg>
