<?xml version="1.0" encoding="UTF-8" standalone="no"?>
<!-- Created with Inkscape (http://www.inkscape.org/) -->

<svg
   version="1.1"
   id="svg2"
   width="25.5mm"
   height="5mm"
   viewBox="0 0 96.377933 18.897637"
   sodipodi:docname="logo-icon.svg"
   inkscape:version="1.1.1 (3bf5ae0d25, 2021-09-20)"
   inkscape:export-filename="/home/sholikinshino/Desktop/Proyek_web/academic_website/images/logo.png"
   inkscape:export-xdpi="300.10999"
   inkscape:export-ydpi="300.10999"
   xmlns:inkscape="http://www.inkscape.org/namespaces/inkscape"
   xmlns:sodipodi="http://sodipodi.sourceforge.net/DTD/sodipodi-0.dtd"
   xmlns="http://www.w3.org/2000/svg"
   xmlns:svg="http://www.w3.org/2000/svg"
   xmlns:rdf="http://www.w3.org/1999/02/22-rdf-syntax-ns#"
   xmlns:cc="http://creativecommons.org/ns#"
   xmlns:dc="http://purl.org/dc/elements/1.1/">
  <metadata
     id="metadata8">
    <rdf:RDF>
      <cc:Work
         rdf:about="">
        <dc:format>image/svg+xml</dc:format>
        <dc:type
           rdf:resource="http://purl.org/dc/dcmitype/StillImage" />
      </cc:Work>
    </rdf:RDF>
  </metadata>
  <defs
     id="defs6" />
  <sodipodi:namedview
     pagecolor="#ffffff"
     bordercolor="#666666"
     borderopacity="1"
     objecttolerance="10"
     gridtolerance="10"
     guidetolerance="10"
     inkscape:pageopacity="0"
     inkscape:pageshadow="2"
     inkscape:window-width="1920"
     inkscape:window-height="991"
     id="namedview4"
     showgrid="false"
     inkscape:zoom="11.133252"
     inkscape:cx="48.188976"
     inkscape:cy="9.4761174"
     inkscape:window-x="-9"
     inkscape:window-y="-9"
     inkscape:window-maximized="1"
     inkscape:current-layer="svg2"
     units="mm"
     inkscape:pagecheckerboard="0"
     inkscape:document-units="mm" />
  <circle
     style="fill:#ffffff;stroke-width:5.51982"
     id="path856"
     cx="50.904411"
     cy="9.733263"
     r="9.1617432" />
  <path
     style="fill:#800000;stroke-width:1.17910993"
     d="m 50.374293,0.6427063 a 9.0993596,9.0993596 0 0 0 -3.6313,0.99076 c 0.10885,-0.00344 0.20628,-0.020189 0.31829,-0.020189 0.73425,0 1.48158,0.066636 2.24379,0.1994963 0.35235,0.061421 0.70938,0.1410631 1.06922,0.2308784 z m 1.68787,0.06501 v 7.4508696 c 0.4014,-0.5300285 0.87088,-0.9256248 1.41217,-1.1880147 0.54738,-0.2623904 1.17803,-0.3945105 1.88962,-0.3945105 1.17381,0 2.06083,0.3139508 2.66294,0.9436874 0.60211,0.6244891 0.90334,1.5463239 0.90334,2.7638149 v 3.718708 a 9.0993596,9.0993596 0 0 0 1.0737,-4.2790928 9.0993596,9.0993596 0 0 0 -7.94177,-9.0154634 z m -4.76102,2.6248394 c -1.15381,0 -2.04481,0.2249267 -2.67416,0.6724617 -0.62235,0.4475345 -0.93247,1.0824067 -0.93247,1.9075483 0,0.6922797 0.20609,1.2169293 0.61866,1.573559 0.41956,0.3496358 1.20851,0.6327687 2.36931,0.8495431 l 1.27991,0.2622603 c 0.96617,0.1838288 1.75675,0.4663133 2.4119,0.8226436 V 3.9422551 c -0.34373,-0.126608 -0.68159,-0.2412723 -1.00646,-0.3272642 -0.71325,-0.1888032 -1.40239,-0.282434 -2.06669,-0.2824352 z m 7.68847,4.5032493 c -0.90621,0 -1.61987,0.2478896 -2.14291,0.7464319 -0.52305,0.4985404 -0.78454,1.1791563 -0.78454,2.0397971 v 0.410201 c 0.34011,0.621033 0.52676,1.347115 0.52676,2.201189 0,0.884895 -0.1796,1.642199 -0.52676,2.277401 v 0.09415 h -0.0494 c -0.24251,0.414957 -0.56059,0.77622 -0.95713,1.080417 -0.97046,0.749599 -2.38821,1.128986 -4.22978,1.161118 a 9.0993596,9.0993596 0 0 0 4.07735,0.977309 9.0993596,9.0993596 0 0 0 6.34803,-2.580014 v -5.913172 c 0,-0.8344013 -0.18777,-1.4593482 -0.56486,-1.8739255 -0.37707,-0.4145779 -0.94267,-0.6209065 -1.69684,-0.6209065 z m -13.01212,0.1367303 a 9.0993596,9.0993596 0 0 0 -0.1726,1.7506405 9.0993596,9.0993596 0 0 0 2.30205,6.0319762 c 0.0157,0.0048 0.0315,0.0133 0.0471,0.01798 0.82514,0.244745 1.63713,0.367614 2.43431,0.367614 1.20974,0 2.14236,-0.239546 2.79968,-0.715052 0.65732,-0.475492 0.98628,-1.151982 0.98628,-2.033059 0,-0.769202 -0.23731,-1.370889 -0.71281,-1.804437 -0.46852,-0.433617 -1.24088,-0.758362 -2.31776,-0.975136 l -1.29115,-0.253292 c -1.58034,-0.314671 -2.72328,-0.8058696 -3.42954,-1.4771725 -0.27347,-0.2599349 -0.47824,-0.5712525 -0.64556,-0.9100639 z"
     id="path3719"
     inkscape:connector-curvature="0"
     inkscape:export-xdpi="48.039383"
     inkscape:export-ydpi="48.039383" />
  <text
     id="text817"
     y="9.040802"
     x="41.576145"
     style="font-style:normal;font-weight:normal;font-size:5.33333px;line-height:1.25;font-family:sans-serif;letter-spacing:0px;word-spacing:0px;fill:#000000;fill-opacity:1;stroke:none;stroke-width:1"
     xml:space="preserve" />
  <path
     d="m 65.269193,5.7900291 q -1.31079,0 -2.07245,1.0273724 -0.76168,1.018516 -0.76168,2.798703 0,1.7801885 0.75282,2.8075605 0.76167,1.018515 2.08131,1.018515 1.30193,0 2.0636,-1.027372 0.76167,-1.027372 0.76167,-2.7987035 0,-1.762474 -0.76167,-2.789846 -0.76167,-1.0362294 -2.0636,-1.0362294 z m 0,-1.3816386 q 2.1256,0 3.33896,1.3816386 1.21337,1.3816384 1.21337,3.8260754 0,2.4355815 -1.21337,3.8260755 -1.21336,1.381639 -3.33896,1.381639 -2.13446,0 -3.34782,-1.381639 -1.2045,-1.390494 -1.2045,-3.8260755 0,-2.444437 1.2045,-3.8260754 1.21336,-1.3816386 3.34782,-1.3816386 z"
     style="font-style:normal;font-variant:normal;font-weight:normal;font-stretch:normal;font-size:15.09797096px;line-height:1.25;font-family:RaghuMalayalamSans;-inkscape-font-specification:RaghuMalayalamSans;letter-spacing:0px;word-spacing:0px;fill:#000000;fill-opacity:1;stroke:none;stroke-width:3.40095615"
     id="path910"
     inkscape:connector-curvature="0" />
  <path
     d="m 70.522793,1.0428599 h 1.62963 V 14.823819 h -1.62963 z"
     style="font-style:normal;font-variant:normal;font-weight:normal;font-stretch:normal;font-size:15.09797096px;line-height:1.25;font-family:RaghuMalayalamSans;-inkscape-font-specification:RaghuMalayalamSans;letter-spacing:0px;word-spacing:0px;fill:#000000;fill-opacity:1;stroke:none;stroke-width:3.40095615"
     id="path912"
     inkscape:connector-curvature="0" />
  <path
     d="m 73.562233,4.9043622 h 1.62962 v 9.9194568 h -1.62962 z m 0,-3.8615023 h 1.62962 v 2.063601 h -1.62962 z"
     style="font-style:normal;font-variant:normal;font-weight:normal;font-stretch:normal;font-size:15.09797096px;line-height:1.25;font-family:RaghuMalayalamSans;-inkscape-font-specification:RaghuMalayalamSans;letter-spacing:0px;word-spacing:0px;fill:#000000;fill-opacity:1;stroke:none;stroke-width:3.40095615"
     id="path914"
     inkscape:connector-curvature="0" />
  <path
     d="m 76.539673,1.0428599 h 1.63849 v 8.1392676 l 4.8623,-4.2777653 h 2.08131 l -5.26085,4.6408883 5.48227,5.2785685 h -2.1256 l -5.03943,-4.8445925 v 4.8445925 h -1.63849 z"
     style="font-style:normal;font-variant:normal;font-weight:normal;font-stretch:normal;font-size:15.09797096px;line-height:1.25;font-family:RaghuMalayalamSans;-inkscape-font-specification:RaghuMalayalamSans;letter-spacing:0px;word-spacing:0px;fill:#000000;fill-opacity:1;stroke:none;stroke-width:3.40095615"
     id="path916"
     inkscape:connector-curvature="0" />
  <path
     d="m 85.105663,4.9043622 h 1.62963 v 9.9194568 h -1.62963 z m 0,-3.8615023 h 1.62963 v 2.063601 h -1.62963 z"
     style="font-style:normal;font-variant:normal;font-weight:normal;font-stretch:normal;font-size:15.09797096px;line-height:1.25;font-family:RaghuMalayalamSans;-inkscape-font-specification:RaghuMalayalamSans;letter-spacing:0px;word-spacing:0px;fill:#000000;fill-opacity:1;stroke:none;stroke-width:3.40095615"
     id="path918"
     inkscape:connector-curvature="0" />
  <path
     d="m 95.762104,8.8367185 v 5.9871005 h -1.62963 V 8.8898585 q 0,-1.408209 -0.54912,-2.107885 -0.54911,-0.6996758 -1.64733,-0.6996758 -1.31965,0 -2.08133,0.8413828 -0.76166,0.841382 -0.76166,2.293874 v 5.6062645 h -1.63848 V 4.9043622 h 1.63848 v 1.5410583 q 0.58453,-0.8945223 1.37278,-1.3373551 0.7971,-0.4428329 1.83333,-0.4428329 1.70933,0 2.58614,1.0627988 0.87682,1.0539422 0.87682,3.1086872 z"
     style="font-style:normal;font-variant:normal;font-weight:normal;font-stretch:normal;font-size:15.09797096px;line-height:1.25;font-family:RaghuMalayalamSans;-inkscape-font-specification:RaghuMalayalamSans;letter-spacing:0px;word-spacing:0px;fill:#000000;fill-opacity:1;stroke:none;stroke-width:3.40095615"
     id="path920"
     inkscape:connector-curvature="0" />
  <path
     d="m 8.8238114,6.8085445 q 0.611109,-1.0982254 1.4613476,-1.6207682 0.85024,-0.5225427 2.001605,-0.5225427 1.549915,0 2.391297,1.0893688 0.841383,1.0805121 0.841383,3.0821171 V 14.823819 H 13.880962 V 8.8898595 q 0,-1.425922 -0.50483,-2.116742 -0.504829,-0.6908189 -1.541058,-0.6908189 -1.266502,0 -2.0016034,0.8413829 -0.7351032,0.841382 -0.7351032,2.293874 V 14.823819 H 7.4598864 V 8.8898595 q 0,-1.434779 -0.50483,-2.116742 -0.504829,-0.6908189 -1.558771,-0.6908189 -1.248789,0 -1.983892,0.8502389 -0.735102,0.841383 -0.735102,2.285018 V 14.823819 H 1.0388094 V 4.9043633 h 1.638482 v 1.5410582 q 0.557969,-0.9122355 1.337355,-1.3462118 0.779386,-0.4339761 1.851041,-0.4339761 1.080513,0 1.833328,0.5491126 0.761673,0.5491128 1.124796,1.5941983 z"
     style="font-style:normal;font-variant:normal;font-weight:normal;font-stretch:normal;font-size:15.09797096px;line-height:1.25;font-family:RaghuMalayalamSans;-inkscape-font-specification:RaghuMalayalamSans;letter-spacing:0px;word-spacing:0px;fill:#000000;fill-opacity:1;stroke:none;stroke-width:3.40095615"
     id="path893"
     inkscape:connector-curvature="0" />
  <rect
     y="9.4585276"
     x="35.64325"
     height="5.3652916"
     width="4.9054093"
     id="rect891"
     style="opacity:1;fill:#800000;stroke:none;stroke-width:2.90551162;stroke-miterlimit:4;stroke-dasharray:none" />
  <path
     d="m 20.674849,5.7900292 q -1.310785,0 -2.072457,1.027373 -0.761673,1.018516 -0.761673,2.7987028 0,1.780187 0.752816,2.80756 0.761673,1.018515 2.081314,1.018515 1.301928,0 2.063601,-1.027371 0.761673,-1.027373 0.761673,-2.798704 0,-1.7624738 -0.761673,-2.7898468 -0.761673,-1.036229 -2.063601,-1.036229 z m 0,-1.381638 q 2.125598,0 3.33896,1.381638 1.213362,1.381639 1.213362,3.8260758 0,2.435581 -1.213362,3.826075 -1.213362,1.381639 -3.33896,1.381639 -2.134454,0 -3.347816,-1.381639 -1.204506,-1.390494 -1.204506,-3.826075 0,-2.4444368 1.204506,-3.8260758 1.213362,-1.381638 3.347816,-1.381638 z"
     style="font-style:normal;font-variant:normal;font-weight:normal;font-stretch:normal;font-size:15.09797096px;line-height:1.25;font-family:RaghuMalayalamSans;-inkscape-font-specification:RaghuMalayalamSans;letter-spacing:0px;word-spacing:0px;fill:#000000;fill-opacity:1;stroke:none;stroke-width:3.40095615"
     id="path895"
     inkscape:connector-curvature="0" />
  <path
     d="M 34.364408,8.8367202 V 14.823819 H 32.734783 V 8.8898602 q 0,-1.408209 -0.549112,-2.107885 -0.549113,-0.699676 -1.647339,-0.699676 -1.319641,0 -2.081314,0.841383 -0.761673,0.841382 -0.761673,2.2938738 v 5.606263 H 26.056864 V 1.0428612 h 1.638481 v 5.402561 q 0.58454,-0.894522 1.372783,-1.337355 0.797099,-0.442833 1.833327,-0.442833 1.709335,0 2.586144,1.062799 0.876809,1.053942 0.876809,3.108687 z"
     style="font-style:normal;font-variant:normal;font-weight:normal;font-stretch:normal;font-size:15.09797096px;line-height:1.25;font-family:RaghuMalayalamSans;-inkscape-font-specification:RaghuMalayalamSans;letter-spacing:0px;word-spacing:0px;fill:#000000;fill-opacity:1;stroke:none;stroke-width:3.40095615"
     id="path897"
     inkscape:connector-curvature="0" />
</svg>
