<?xml version="1.0" encoding="UTF-8" standalone="no"?>
<!-- Created with Inkscape (http://www.inkscape.org/) -->

<svg
   xmlns:dc="http://purl.org/dc/elements/1.1/"
   xmlns:cc="http://creativecommons.org/ns#"
   xmlns:rdf="http://www.w3.org/1999/02/22-rdf-syntax-ns#"
   xmlns:svg="http://www.w3.org/2000/svg"
   xmlns="http://www.w3.org/2000/svg"
   xmlns:sodipodi="http://sodipodi.sourceforge.net/DTD/sodipodi-0.dtd"
   xmlns:inkscape="http://www.inkscape.org/namespaces/inkscape"
   version="1.1"
   id="svg2"
   width="40"
   height="15"
   viewBox="0 0 40 15"
   sodipodi:docname="logo.svg"
   inkscape:version="0.92.5 (2060ec1f9f, 2020-04-08)"
   inkscape:export-filename="/home/sholikinshino/Desktop/Proyek_web/academic_website/images/logo.png"
   inkscape:export-xdpi="300.10999"
   inkscape:export-ydpi="300.10999">
  <metadata
     id="metadata8">
    <rdf:RDF>
      <cc:Work
         rdf:about="">
        <dc:format>image/svg+xml</dc:format>
        <dc:type
           rdf:resource="http://purl.org/dc/dcmitype/StillImage" />
        <dc:title />
      </cc:Work>
    </rdf:RDF>
  </metadata>
  <defs
     id="defs6" />
  <sodipodi:namedview
     pagecolor="#ffffff"
     bordercolor="#666666"
     borderopacity="1"
     objecttolerance="10"
     gridtolerance="10"
     guidetolerance="10"
     inkscape:pageopacity="0"
     inkscape:pageshadow="2"
     inkscape:window-width="840"
     inkscape:window-height="415"
     id="namedview4"
     showgrid="false"
     inkscape:zoom="32.9"
     inkscape:cx="20"
     inkscape:cy="7.5"
     inkscape:window-x="702"
     inkscape:window-y="110"
     inkscape:window-maximized="0"
     inkscape:current-layer="g817" />
  <g
     id="g817"
     transform="matrix(1.2013822,0,0,1.2013822,-3.1335193,-2.0595515)">
    <path
       inkscape:export-ydpi="48.039383"
       inkscape:export-xdpi="48.039383"
       inkscape:connector-curvature="0"
       id="path3719"
       d="M 7.2113392,4.5795888 A 4.5079806,4.5079806 0 0 0 5.4123341,5.0704285 c 0.053946,-0.0017 0.1021913,-0.010002 0.1576903,-0.010002 0.3637538,0 0.7339972,0.033013 1.1116074,0.098834 0.1745646,0.030429 0.3514398,0.069885 0.5297074,0.1143811 z m 0.8362027,0.032206 V 8.3030851 C 8.2464067,8.0404998 8.478989,7.8445145 8.7471546,7.7145221 9.0183342,7.5845292 9.3307711,7.5190748 9.6833043,7.5190748 c 0.5815267,0 1.0209717,0.1555366 1.3192687,0.467519 0.298295,0.3093827 0.44753,0.7660757 0.44753,1.3692416 V 11.198149 A 4.5079806,4.5079806 0 0 0 11.982031,9.078212 4.5079806,4.5079806 0 0 0 8.0475419,4.6117948 Z M 5.6888478,5.9121861 c -0.5716107,0 -1.0130338,0.1114324 -1.3248223,0.3331491 -0.3083237,0.2217164 -0.461966,0.5362431 -0.461966,0.9450325 0,0.3429673 0.1021036,0.6028879 0.306497,0.7795684 0.2078588,0.1732157 0.5987181,0.3134846 1.173795,0.4208784 l 0.634093,0.1299283 C 6.495103,8.6118148 6.8867663,8.7517625 7.2113392,8.9282946 V 6.2142415 C 7.0410551,6.1515176 6.8736672,6.094711 6.7127253,6.052109 6.3593663,5.9585727 6.0179578,5.9121864 5.6888478,5.9121861 Z m 3.8090033,2.2309877 c -0.4489526,0 -0.8025086,0.1228088 -1.0616353,0.3697953 C 8.1770901,8.7599557 8.0475419,9.0971446 8.0475419,9.5235207 v 0.2032209 c 0.1684983,0.3076704 0.2609653,0.6673844 0.2609653,1.0905074 0,0.438392 -0.088972,0.813574 -0.2609653,1.128264 v 0.04664 H 8.023099 C 7.9029515,12.19773 7.7453721,12.376706 7.5489191,12.52741 7.0681356,12.898774 6.3657573,13.08673 5.4534125,13.102649 a 4.5079806,4.5079806 0 0 0 2.0199933,0.484176 4.5079806,4.5079806 0 0 0 3.1449232,-1.278184 V 9.3791571 c 0,-0.4133768 -0.09303,-0.7229863 -0.279844,-0.9283751 C 10.151682,8.2453929 9.8714726,8.1431742 9.4978466,8.1431742 Z m -6.4464317,0.06774 a 4.5079806,4.5079806 0 0 0 -0.085508,0.8672977 4.5079806,4.5079806 0 0 0 1.140479,2.9883455 c 0.00777,0.0024 0.015593,0.0066 0.023317,0.0089 0.4087893,0.12125 0.811066,0.182121 1.2059988,0.182121 0.5993261,0 1.0613649,-0.118674 1.3870104,-0.354248 0.3256461,-0.235569 0.4886187,-0.570713 0.4886187,-1.007215 0,-0.381076 -0.117565,-0.679162 -0.3531379,-0.893949 C 6.6260898,9.787356 6.2434501,9.6264721 5.7099459,9.5190782 L 5.0703006,9.3935925 C 4.2873647,9.2376989 3.7211361,8.9943509 3.3712403,8.6617758 3.2357581,8.5329996 3.134314,8.3787674 3.0514179,8.2109144 Z"
       style="fill:#800000;stroke-width:0.58415151" />
    <text
       inkscape:export-ydpi="48"
       inkscape:export-xdpi="48"
       id="text15"
       y="12.784632"
       x="11.77803"
       style="font-style:normal;font-weight:normal;font-size:9.630229px;line-height:1.25;font-family:sans-serif;letter-spacing:0px;word-spacing:0px;fill:#000000;fill-opacity:1;stroke:none;stroke-width:0.24075578"
       xml:space="preserve"><tspan
         style="line-height:0;letter-spacing:-0.61151963px;fill:#333333;stroke-width:0.24075578"
         y="12.784632"
         x="11.77803"
         id="tspan13"
         sodipodi:role="line">olikin</tspan></text>
  </g>
</svg>
